<?xml version="1.0" encoding="UTF-8" standalone="no"?>
<!DOCTYPE svg PUBLIC "-//W3C//DTD SVG 1.1//EN" "http://www.w3.org/Graphics/SVG/1.1/DTD/svg11.dtd">
<svg xmlns="http://www.w3.org/2000/svg" xmlns:xlink="http://www.w3.org/1999/xlink" version="1.1">
<metadata>
Created by FontForge 20190801 at Tue Aug 11 14:52:36 2020
 By www-data
Copyright (c) 2016 by Martin Va'cha. All rights reserved.
</metadata>
<defs>
<font id="MatterLight" horiz-adv-x="530">
  <font-face font-family="MatterLight" font-weight="300" font-stretch="normal" units-per-em="1000" panose-1="0 0 4 0 0 0 0 0 0 0" ascent="810" descent="-190" x-height="504" cap-height="700" bbox="-721 -212 1466 1076" underline-thickness="50" underline-position="-100" unicode-range="U+000D-FB02"/>
<missing-glyph horiz-adv-x="1088" d="M108.5 554q64.5 113 175.5 182t242 74v-1000q-132 4 -242.5 72.5t-175 181.5t-64.5 245t64.5 245zM562 806q41 -14 75 -84.5t54 -179.5t20 -233t-20 -232.5t-54 -179t-75 -84.5v993zM854.5 99q-31.5 -99 -88 -169.5t-128.5 -100.5q51 66 80.5 194.5t29.5 285.5t-29.5 286 t-80.5 196q71 -30 127.5 -101.5t88.5 -171t32 -209.5q0 -111 -31.5 -210zM1006 118q-38 -91 -107 -160.5t-159 -107.5q84 73 133.5 195t49.5 264q0 141 -49.5 264t-133.5 196q90 -38 159 -108t107 -161t38 -191t-38 -191z"/>
    <glyph glyph-name=".notdef" horiz-adv-x="1088" d="M108.5 554q64.5 113 175.5 182t242 74v-1000q-132 4 -242.5 72.5t-175 181.5t-64.5 245t64.5 245zM562 806q41 -14 75 -84.5t54 -179.5t20 -233t-20 -232.5t-54 -179t-75 -84.5v993zM854.5 99q-31.5 -99 -88 -169.5t-128.5 -100.5q51 66 80.5 194.5t29.5 285.5t-29.5 286 t-80.5 196q71 -30 127.5 -101.5t88.5 -171t32 -209.5q0 -111 -31.5 -210zM1006 118q-38 -91 -107 -160.5t-159 -107.5q84 73 133.5 195t49.5 264q0 141 -49.5 264t-133.5 196q90 -38 159 -108t107 -161t38 -191t-38 -191z"/>
    <glyph glyph-name=".null" horiz-adv-x="0"/>
    <glyph glyph-name="nonmarkingreturn" unicode="&#xD;" horiz-adv-x="242"/>
    <glyph glyph-name="space" unicode=" " horiz-adv-x="242"/>
    <glyph glyph-name="exclam" unicode="!" horiz-adv-x="255" d="M149 184h-43l-22 516h87zM90.5 6q-14.5 14 -14.5 37q0 22 14.5 36.5t37.5 14.5q22 0 36.5 -14.5t14.5 -36.5t-14.5 -36.5t-36.5 -14.5q-23 0 -37.5 14z"/>
    <glyph glyph-name="quotedbl" unicode="&quot;" horiz-adv-x="314" d="M113 535h-52l-15 173h82zM253 535h-52l-15 173h82z"/>
    <glyph glyph-name="numbersign" unicode="#" horiz-adv-x="671" d="M641 486v-54h-141l-36 -164h133v-54h-145l-48 -214h-58l48 214h-177l-48 -214h-58l48 214h-129v54h141l36 164h-133v54h145l48 214h58l-48 -214h177l48 214h58l-48 -214h129zM229 268h177l36 164h-177z"/>
    <glyph glyph-name="dollar" unicode="$" horiz-adv-x="583" d="M485 52.5q-58 -51.5 -157 -59.5v-93h-67v94q-88 10 -150 66t-81 144l68 23q12 -78 66 -125.5t131 -47.5q81 0 129.5 35.5t48.5 94.5q0 46 -26 75t-63.5 44.5t-103.5 35.5q-72 21 -115.5 39.5t-73.5 55t-30 96.5q0 74 54.5 121.5t145.5 55.5v93h67v-94q82 -9 136.5 -54.5 t64.5 -114.5l-61 -22q-11 61 -57.5 96t-118.5 35q-76 0 -119.5 -31t-43.5 -85q0 -37 22.5 -60t56.5 -36t94 -30q77 -21 125 -42t82 -63.5t34 -114.5q0 -80 -58 -131.5z"/>
    <glyph glyph-name="percent" unicode="%" horiz-adv-x="831" d="M211 0h-61l468 700h61zM546.5 15.5q-37.5 23.5 -58.5 63.5t-21 89t21 89t58.5 63.5t84.5 23.5t84 -23.5t58 -63.5t21 -89t-21 -89t-58 -63.5t-84 -23.5t-84.5 23.5zM705.5 78q28.5 34 28.5 90t-28.5 90t-74.5 34q-47 0 -75.5 -34t-28.5 -90t28.5 -90t75.5 -34 q46 0 74.5 34zM116.5 379.5q-37.5 23.5 -58.5 63.5t-21 89t21 89t58.5 63.5t84.5 23.5t84 -23.5t58 -63.5t21 -89t-21 -89t-58 -63.5t-84 -23.5t-84.5 23.5zM275.5 442q28.5 34 28.5 90t-28.5 90t-74.5 34q-47 0 -75.5 -34t-28.5 -90t28.5 -90t75.5 -34q46 0 74.5 34z"/>
    <glyph glyph-name="ampersand" unicode="&amp;" horiz-adv-x="649" d="M634 0h-83l-77 87q-44 -48 -93.5 -71.5t-108.5 -23.5q-100 0 -161 54t-61 149q0 73 41.5 116t114.5 78q-47 55 -64.5 89t-17.5 72q0 71 46 114.5t120 43.5t119.5 -43.5t45.5 -114.5q0 -66 -38.5 -105t-109.5 -74l164 -186l95 110l49 -44l-99 -117zM206.5 496 q17.5 -28 60.5 -79q60 29 91.5 58t31.5 75q0 43 -28 70t-72 27t-72.5 -27t-28.5 -70q0 -26 17.5 -54zM429 137l-182 206q-61 -31 -94 -63.5t-33 -84.5q0 -63 43 -102t109 -39q83 0 157 83z"/>
    <glyph glyph-name="quotesingle" unicode="'" horiz-adv-x="174" d="M113 535h-52l-15 173h82z"/>
    <glyph glyph-name="parenleft" unicode="(" horiz-adv-x="261" d="M192 -166q-72 95 -112 216.5t-40 242.5t40 242t112 216l44 -33q-133 -204 -133 -425q0 -219 133 -425z"/>
    <glyph glyph-name="parenright" unicode=")" horiz-adv-x="261" d="M25 -132q133 206 133 425q0 221 -133 425l44 33q72 -95 112 -216t40 -242t-40 -242.5t-112 -216.5z"/>
    <glyph glyph-name="asterisk" unicode="*" horiz-adv-x="491" d="M434 581l16 -51l-163 -49l104 -135l-42 -32l-103 140l-104 -140l-42 32l104 135l-163 49l16 51l163 -50l-1 169h53l-1 -169z"/>
    <glyph glyph-name="plus" unicode="+" horiz-adv-x="551" d="M303 366h213v-57h-212v-211h-56v212h-213v57h212v211h56v-212z"/>
    <glyph glyph-name="comma" unicode="," horiz-adv-x="233" d="M77 -96h-47l54 185h95z"/>
    <glyph glyph-name="hyphen" unicode="-" horiz-adv-x="340" d="M310 260h-280v56h280v-56z"/>
    <glyph glyph-name="period" unicode="." horiz-adv-x="249" d="M87.5 6q-14.5 14 -14.5 37q0 22 14.5 36.5t37.5 14.5q22 0 36.5 -14.5t14.5 -36.5t-14.5 -36.5t-36.5 -14.5q-23 0 -37.5 14z"/>
    <glyph glyph-name="slash" unicode="/" horiz-adv-x="398" d="M73 -1h-63l314 701h64z"/>
    <glyph glyph-name="zero" unicode="0" horiz-adv-x="606" d="M110 88.5q-66 96.5 -66 261.5t66 261.5t193 96.5t193 -96.5t66 -261.5t-66 -261.5t-193 -96.5t-193 96.5zM442.5 134q49.5 80 49.5 216t-49.5 216t-139.5 80q-91 0 -140 -80t-49 -216t49 -216t140 -80q90 0 139.5 80z"/>
    <glyph glyph-name="one" unicode="1" horiz-adv-x="329" d="M188 605q-33 -33 -73 -51.5t-95 -28.5v60q112 23 178 115h55v-700h-65v605z"/>
    <glyph glyph-name="two" unicode="2" horiz-adv-x="552" d="M30 0v62l270 237q64 56 93 105t29 100q0 65 -40 103.5t-108 38.5q-74 0 -116.5 -42t-42.5 -115q0 -18 1 -27l-66 5q-4 72 22 126.5t78 84.5t124 30q99 0 158.5 -55.5t59.5 -148.5q0 -63 -35.5 -123.5t-113.5 -128.5l-218 -190h367v-62h-462z"/>
    <glyph glyph-name="three" unicode="3" horiz-adv-x="561" d="M101.5 46.5q-66.5 54.5 -76.5 145.5l65 9q7 -67 56 -107t123 -40q80 0 128.5 44.5t48.5 117.5q0 76 -45 117.5t-126 41.5q-44 0 -76 -20l-32 41l237 242h-359v62h437v-62l-209 -212q22 2 33 2q62 0 109.5 -26t74 -74t26.5 -112q0 -66 -30.5 -117t-86.5 -79t-130 -28 q-101 0 -167.5 54.5z"/>
    <glyph glyph-name="four" unicode="4" horiz-adv-x="601" d="M465 0h-67v185h-378v62l362 453h83v-453h106v-62h-106v-185zM398 627l-303 -380h303v380z"/>
    <glyph glyph-name="five" unicode="5" horiz-adv-x="567" d="M116 44.5q-68 52.5 -81 139.5l64 11q10 -64 60.5 -102.5t123.5 -38.5q77 0 123.5 48.5t46.5 127.5q0 82 -48.5 129t-132.5 47q-54 0 -97.5 -24t-70.5 -68l-48 10l53 376h366v-62h-316l-33 -232q29 27 71 44.5t80 17.5q74 0 129.5 -29.5t86 -83.5t30.5 -125t-29.5 -125 t-83.5 -83.5t-126 -29.5q-100 0 -168 52.5z"/>
    <glyph glyph-name="six" unicode="6" horiz-adv-x="588" d="M427.5 437.5q56.5 -30.5 88 -85t31.5 -122.5q0 -69 -31.5 -123t-88 -84.5t-128.5 -30.5q-77 0 -134.5 38.5t-89 110t-31.5 167.5q0 126 39.5 216t111.5 137t169 47q51 0 98.5 -15t85.5 -45l-37 -56q-62 54 -150 54q-72 0 -130 -38.5t-91.5 -106t-33.5 -151.5 q24 53 77.5 85.5t115.5 32.5q72 0 128.5 -30.5zM390.5 76.5q40.5 22.5 63.5 63t23 91.5q0 50 -23 90t-63.5 62.5t-91.5 22.5t-91.5 -22.5t-63.5 -62.5t-23 -90q0 -51 23 -91.5t63.5 -63t91.5 -22.5t91.5 22.5z"/>
    <glyph glyph-name="seven" unicode="7" horiz-adv-x="545" d="M117 0q16 149 104 313.5t219 324.5h-409v62h478v-62q-300 -377 -323 -638h-69z"/>
    <glyph glyph-name="eight" unicode="8" horiz-adv-x="570" d="M157 17.5q-56 25.5 -86.5 72.5t-30.5 109t37 110.5t99 67.5q-49 22 -78.5 62.5t-29.5 86.5q0 83 59.5 132.5t159.5 49.5q97 0 155.5 -49.5t58.5 -132.5q0 -47 -29 -87.5t-78 -61.5q62 -19 99 -67.5t37 -110.5t-30 -109t-85 -72.5t-128 -25.5q-74 0 -130 25.5zM391.5 436 q39.5 34 39.5 90q0 55 -39.5 87.5t-104.5 32.5q-68 0 -108.5 -32.5t-40.5 -87.5q0 -56 40.5 -90t108.5 -34q65 0 104.5 34zM412.5 93.5q47.5 39.5 47.5 105.5t-47.5 105.5t-126.5 39.5q-80 0 -128 -39.5t-48 -105.5t48 -105.5t128 -39.5q79 0 126.5 39.5z"/>
    <glyph glyph-name="nine" unicode="9" horiz-adv-x="583" d="M155.5 262.5q-56.5 30.5 -88 85t-31.5 122.5q0 69 31.5 123t88 84.5t128.5 30.5q77 0 134.5 -38.5t89 -110t31.5 -167.5q0 -126 -39.5 -216t-111.5 -137t-169 -47q-51 0 -98.5 15t-85.5 45l37 56q62 -54 150 -54q72 0 130 38.5t91.5 106t33.5 151.5q-24 -53 -77.5 -85.5 t-115.5 -32.5q-72 0 -128.5 30.5zM192.5 623.5q-40.5 -22.5 -63.5 -63t-23 -91.5q0 -50 23 -90t63.5 -62.5t91.5 -22.5t91.5 22.5t63.5 62.5t23 90q0 51 -23 91.5t-63.5 63t-91.5 22.5t-91.5 -22.5z"/>
    <glyph glyph-name="colon" unicode=":" horiz-adv-x="249" d="M87.5 424q-14.5 14 -14.5 37q0 22 14.5 36.5t37.5 14.5q22 0 36.5 -14.5t14.5 -36.5t-14.5 -36.5t-36.5 -14.5q-23 0 -37.5 14zM87.5 6q-14.5 14 -14.5 37q0 22 14.5 36.5t37.5 14.5q22 0 36.5 -14.5t14.5 -36.5t-14.5 -36.5t-36.5 -14.5q-23 0 -37.5 14z"/>
    <glyph glyph-name="semicolon" unicode=";" horiz-adv-x="253" d="M77 -96h-47l54 185h95zM127.5 372q-14.5 14 -14.5 37q0 22 14.5 36.5t37.5 14.5q22 0 36.5 -14.5t14.5 -36.5t-14.5 -36.5t-36.5 -14.5q-23 0 -37.5 14z"/>
    <glyph glyph-name="less" unicode="&lt;" d="M495 132v-65l-460 188v72l460 188v-65l-398 -159z"/>
    <glyph glyph-name="equal" unicode="=" d="M495 219h-460v56h460v-56zM495 402h-460v56h460v-56z"/>
    <glyph glyph-name="greater" unicode="&gt;" d="M495 255l-460 -188v65l398 159l-398 159v65l460 -188v-72z"/>
    <glyph glyph-name="question" unicode="?" horiz-adv-x="503" d="M191 184q0 49 15 84t36.5 57.5t57.5 50.5q31 25 48 42t29 42t12 58q0 57 -36.5 92.5t-96.5 35.5q-66 0 -108 -37.5t-46 -101.5l-64 11q7 86 66.5 138t151.5 52q61 0 107 -24t71 -66.5t25 -96.5q0 -47 -14.5 -79.5t-35 -53t-55.5 -47.5q-32 -24 -51 -43t-32 -47t-13 -67 h-67zM193.5 6q-14.5 14 -14.5 37q0 22 14.5 36.5t37.5 14.5q22 0 36.5 -14.5t14.5 -36.5t-14.5 -36.5t-36.5 -14.5q-23 0 -37.5 14z"/>
    <glyph glyph-name="at" unicode="@" horiz-adv-x="909" d="M577 497h58v-287q0 -29 18.5 -50t43.5 -21q48 0 78 51.5t30 135.5q0 87 -45 158t-124.5 112t-176.5 41q-100 0 -181 -46t-127.5 -126t-46.5 -179q0 -104 45 -184.5t127 -125.5t188 -45q72 0 133 18.5t137 59.5l26 -55q-84 -41 -151.5 -59t-143.5 -18q-124 0 -219.5 51 t-148 144t-52.5 214q0 115 54 207.5t148.5 145t211.5 52.5q114 0 207 -47.5t145.5 -130.5t52.5 -187q0 -73 -20.5 -128.5t-58.5 -86t-88 -30.5q-36 0 -65 18.5t-42 49.5q-20 -36 -60.5 -56.5t-92.5 -20.5q-92 0 -147.5 59t-55.5 157q0 60 26.5 109.5t73.5 77.5t106 28 q39 0 76.5 -18t60.5 -47v59zM543 169q40 44 40 119q0 74 -39.5 118t-104.5 44t-104.5 -44t-39.5 -118t39 -118.5t103 -44.5q66 0 106 44z"/>
    <glyph glyph-name="A" unicode="A" horiz-adv-x="643" d="M633 0h-70l-75 191h-333l-76 -191h-69l282 700h59zM322 611l-142 -358h283z"/>
    <glyph glyph-name="B" unicode="B" horiz-adv-x="604" d="M76 0v700h243q100 0 155.5 -47.5t55.5 -132.5q0 -46 -28 -83.5t-68 -53.5q59 -19 92.5 -64t33.5 -117q0 -93 -58.5 -147.5t-164.5 -54.5h-261zM319 404q68 0 104.5 29.5t36.5 87.5t-36 87.5t-104 29.5h-177v-234h176zM322 62q82 0 124.5 36t42.5 104t-42.5 104t-124.5 36 h-179v-280h179z"/>
    <glyph glyph-name="C" unicode="C" horiz-adv-x="705" d="M213.5 32q-76.5 40 -123 121t-46.5 197t47 197t123.5 121t164.5 40q109 0 186 -58t102 -157l-66 -15q-18 80 -76 124t-146 44q-78 0 -138 -34.5t-93.5 -101.5t-33.5 -160t33.5 -160t93.5 -101.5t138 -34.5q88 0 144.5 42.5t77.5 122.5l66 -13q-27 -99 -103.5 -156.5 t-184.5 -57.5q-89 0 -165.5 40z"/>
    <glyph glyph-name="D" unicode="D" horiz-adv-x="664" d="M76 0v700h198q99 0 177.5 -42t123.5 -121.5t45 -186.5t-45 -186.5t-123.5 -121.5t-177.5 -42h-198zM276 62q74 0 136 31t99.5 96t37.5 161t-37.5 161t-99.5 96t-136 31h-133v-576h133z"/>
    <glyph glyph-name="E" unicode="E" horiz-adv-x="560" d="M514 0h-438v700h427v-62h-360v-234h295v-62h-295v-280h371v-62z"/>
    <glyph glyph-name="F" unicode="F" horiz-adv-x="556" d="M143 0h-67v700h435v-62h-368v-242h302v-62h-302v-334z"/>
    <glyph glyph-name="G" unicode="G" horiz-adv-x="737" d="M213 33q-76 41 -122.5 121.5t-46.5 195.5t46.5 195.5t122.5 121.5t164 41q111 0 190 -58.5t100 -155.5l-66 -15q-16 79 -75 123t-149 44q-77 0 -136 -34.5t-92.5 -101t-33.5 -160.5t33.5 -160.5t92.5 -101t136 -34.5q71 0 123.5 30t81.5 84t29 124h-264v62h328v-354h-60 v121q-25 -59 -90.5 -94t-146.5 -35q-89 0 -165 41z"/>
    <glyph glyph-name="H" unicode="H" horiz-adv-x="680" d="M537 403v297h67v-700h-67v341h-394v-341h-67v700h67v-297h394z"/>
    <glyph glyph-name="I" unicode="I" horiz-adv-x="219" d="M143 0h-67v700h67v-700z"/>
    <glyph glyph-name="J" unicode="J" horiz-adv-x="327" d="M25 63q23 -9 55 -9q54 0 78.5 30t24.5 104v512h68v-505q0 -101 -46 -151t-125 -50q-31 0 -55 8v61z"/>
    <glyph glyph-name="K" unicode="K" horiz-adv-x="605" d="M595 0h-78l-271 376l-103 -104v-272h-67v700h67v-338l330 338h91l-272 -276z"/>
    <glyph glyph-name="L" unicode="L" horiz-adv-x="517" d="M502 0h-426v700h67v-638h359v-62z"/>
    <glyph glyph-name="M" unicode="M" horiz-adv-x="822" d="M145 0h-69v700h87l248 -601l248 601h87v-700h-69v572l-235 -572h-62l-235 572v-572z"/>
    <glyph glyph-name="N" unicode="N" horiz-adv-x="684" d="M144 0h-68v700h81l383 -595v595h68v-700h-81l-383 593v-593z"/>
    <glyph glyph-name="O" unicode="O" horiz-adv-x="767" d="M208.5 38q-77.5 46 -121 127.5t-43.5 184.5t43.5 184.5t121 127.5t174.5 46t174.5 -46t121.5 -127.5t44 -184.5t-44 -184.5t-121.5 -127.5t-174.5 -46t-174.5 46zM522.5 92q61.5 38 96 105.5t34.5 152.5t-34.5 152.5t-96 105.5t-139.5 38q-77 0 -138.5 -38t-96 -105.5 t-34.5 -152.5t34.5 -152.5t96 -105.5t138.5 -38q78 0 139.5 38z"/>
    <glyph glyph-name="P" unicode="P" horiz-adv-x="580" d="M76 0v700h257q100 0 159.5 -54t59.5 -143t-59.5 -143t-159.5 -54h-190v-306h-67zM335 368q69 0 108 35.5t39 99.5t-39 99.5t-108 35.5h-192v-270h192z"/>
    <glyph glyph-name="Q" unicode="Q" horiz-adv-x="767" d="M694 197.5q-29 -69.5 -81 -118.5l72 -79l-42 -35l-73 81q-82 -54 -187 -54q-97 0 -174.5 46t-121 127.5t-43.5 184.5t43.5 184.5t121 127.5t174.5 46t174.5 -46t121.5 -127.5t44 -184.5q0 -83 -29 -152.5zM526 94l-146 161l42 36l147 -162q40 41 62 97.5t22 123.5 q0 85 -34.5 152.5t-96 105.5t-139.5 38q-77 0 -138.5 -38t-96 -105.5t-34.5 -152.5t34.5 -152.5t96 -105.5t138.5 -38q80 0 143 40z"/>
    <glyph glyph-name="R" unicode="R" horiz-adv-x="621" d="M606 0h-79l-203 326h-5h-176v-326h-67v700h243q98 0 157.5 -51t59.5 -136q0 -66 -37.5 -113t-103.5 -65zM143 638v-250h172q71 0 111 33t40 92t-40 92t-111 33h-172z"/>
    <glyph glyph-name="S" unicode="S" horiz-adv-x="583" d="M122.5 50q-72.5 58 -92.5 154l68 23q12 -78 66 -125.5t131 -47.5q81 0 129.5 35.5t48.5 94.5q0 46 -26 75t-63.5 44.5t-103.5 35.5q-72 21 -115.5 39.5t-73.5 55t-30 96.5q0 53 29 93.5t81.5 62.5t120.5 22q95 0 160 -47t77 -124l-61 -22q-11 61 -57.5 96t-118.5 35 q-76 0 -119.5 -31t-43.5 -85q0 -37 22.5 -60t56.5 -36t94 -30q77 -21 125 -42t82 -63.5t34 -114.5q0 -57 -30.5 -100.5t-87 -67.5t-130.5 -24q-100 0 -172.5 58z"/>
    <glyph glyph-name="T" unicode="T" horiz-adv-x="564" d="M316 0h-67v638h-229v62h524v-62h-228v-638z"/>
    <glyph glyph-name="U" unicode="U" horiz-adv-x="672" d="M199 22q-59 30 -91 85t-32 128v465h68v-471q0 -79 52.5 -127t139.5 -48q88 0 140.5 47.5t52.5 127.5v471h67v-465q0 -73 -32 -128t-91 -85t-137 -30t-137 30z"/>
    <glyph glyph-name="V" unicode="V" horiz-adv-x="626" d="M349 0h-71l-268 700h69l234 -626l235 626h69z"/>
    <glyph glyph-name="W" unicode="W" horiz-adv-x="979" d="M307 0h-69l-219 700h70l184 -626l186 626h63l184 -626l185 626h69l-217 -700h-70l-182 592z"/>
    <glyph glyph-name="X" unicode="X" horiz-adv-x="588" d="M329 378l243 -378h-70l-208 323l-208 -323h-70l243 378l-207 322h70l172 -268l173 268h70z"/>
    <glyph glyph-name="Y" unicode="Y" horiz-adv-x="578" d="M322 0h-67v294l-250 406h79l205 -341l204 341h80l-251 -406v-294z"/>
    <glyph glyph-name="Z" unicode="Z" horiz-adv-x="587" d="M547 0h-522v62l443 576h-419v62h498v-62l-435 -576h435v-62z"/>
    <glyph glyph-name="bracketleft" unicode="[" horiz-adv-x="296" d="M262 -139h-186v889h186v-50h-130v-789h130v-50z"/>
    <glyph glyph-name="backslash" unicode="\" horiz-adv-x="398" d="M74 700l314 -701h-63l-315 701h64z"/>
    <glyph glyph-name="bracketright" unicode="]" horiz-adv-x="296" d="M220 750v-889h-186v50h130v789h-130v50h186z"/>
    <glyph glyph-name="asciicircum" unicode="^" horiz-adv-x="526" d="M110 429h-71l200 271h48l200 -271h-71l-153 213z"/>
    <glyph glyph-name="underscore" unicode="_" horiz-adv-x="500" d="M475 -56h-450v56h450v-56z"/>
    <glyph glyph-name="grave" unicode="`" horiz-adv-x="262" d="M106 708l77 -148h-47l-115 148h85z"/>
    <glyph glyph-name="a" unicode="a" d="M361 489.5q45 -22.5 70.5 -63.5t25.5 -94v-332h-63v92q-23 -46 -71 -73t-107 -27q-76 0 -123.5 41t-47.5 107q0 72 61 112.5t187 53.5l101 10v14q0 57 -37.5 90.5t-98.5 33.5q-58 0 -95 -32t-44 -87l-61 12q11 74 66 119.5t134 45.5q58 0 103 -22.5zM348.5 98 q45.5 48 45.5 135v30l-99 -10q-184 -20 -184 -113q0 -40 31 -65t79 -25q82 0 127.5 48z"/>
    <glyph glyph-name="b" unicode="b" horiz-adv-x="599" d="M202.5 18q-49.5 26 -66.5 63v-81h-63v708h63v-285q25 39 74 64t101 25q78 0 133 -34.5t83.5 -93.5t28.5 -132t-28.5 -132t-83.5 -93.5t-133 -34.5q-59 0 -108.5 26zM440 105q49 55 49 147t-49 147t-131 55t-131 -55t-49 -147t49 -147t131 -55t131 55z"/>
    <glyph glyph-name="c" unicode="c" horiz-adv-x="542" d="M160 24q-56 32 -86.5 91t-30.5 137t30.5 137t86.5 91t130 32q82 0 140 -43.5t72 -114.5l-62 -13q-10 50 -51 81.5t-99 31.5q-82 0 -131.5 -55t-49.5 -147t49.5 -147t131.5 -55q60 0 100.5 30.5t51.5 86.5l62 -12q-17 -77 -74 -120t-140 -43q-74 0 -130 32z"/>
    <glyph glyph-name="d" unicode="d" horiz-adv-x="599" d="M155 26.5q-55 34.5 -83.5 93.5t-28.5 132t28.5 132t83.5 93.5t133 34.5q52 0 101 -25t74 -64v285h63v-708h-63v81q-17 -37 -66.5 -63t-108.5 -26q-78 0 -133 34.5zM421 105q49 55 49 147t-49 147t-131 55t-131 -55t-49 -147t49 -147t131 -55t131 55z"/>
    <glyph glyph-name="e" unicode="e" horiz-adv-x="562" d="M517 246h-410q0 -58 23 -102.5t62.5 -69t90.5 -24.5q65 0 107.5 29t53.5 82l60 -12q-17 -75 -75 -116t-145 -41q-70 0 -125 33.5t-85.5 93t-30.5 133.5t30.5 133.5t85.5 93t125 33.5q68 0 121.5 -30t83.5 -83t30 -120q0 -19 -2 -33zM454 304q-8 67 -53 108.5t-117 41.5 q-67 0 -112.5 -40t-59.5 -110h342z"/>
    <glyph glyph-name="f" unicode="f" horiz-adv-x="358" d="M126 0v446h-88v58h88v52q0 78 37 120.5t97 42.5q36 0 64 -7l-2 -60q-23 9 -54 9q-35 0 -57 -26t-22 -69v-62h134v-58h-134v-446h-63z"/>
    <glyph glyph-name="g" unicode="g" horiz-adv-x="594" d="M459 504h62v-485q0 -61 -29 -108.5t-80.5 -74t-117.5 -26.5q-88 0 -148.5 42t-70.5 109l63 11q3 -46 47 -75.5t109 -29.5q72 0 118.5 40.5t46.5 105.5v78q-17 -35 -65.5 -57t-107.5 -22q-77 0 -132 33t-83 89.5t-28 127.5t28 127.5t82.5 89.5t131.5 33q52 0 101 -24 t73 -61v77zM416.5 122.5q48.5 52.5 48.5 139.5t-48.5 139.5t-128.5 52.5q-81 0 -129.5 -52.5t-48.5 -139.5t48.5 -139.5t129.5 -52.5q80 0 128.5 52.5z"/>
    <glyph glyph-name="h" unicode="h" horiz-adv-x="577" d="M73 0v708h63v-314q29 59 75 88.5t104 29.5q86 0 137.5 -48.5t51.5 -129.5v-334h-63v326q0 60 -35.5 94t-99.5 34q-51 0 -89.5 -29.5t-59.5 -83.5t-21 -126v-215h-63z"/>
    <glyph glyph-name="i" unicode="i" horiz-adv-x="209" d="M136 0h-63v504h63v-504zM69 623q-14 14 -14 35q0 22 14 36t35 14q22 0 36.5 -14t14.5 -36q0 -21 -14.5 -35t-36.5 -14q-21 0 -35 14z"/>
    <glyph glyph-name="j" unicode="j" horiz-adv-x="209" d="M-8 -189l-2 57h10q73 0 73 94v542h63v-549q0 -63 -36 -104t-94 -41zM69 623q-14 14 -14 35q0 22 14 36t35 14q22 0 36.5 -14t14.5 -36q0 -21 -14.5 -35t-36.5 -14q-21 0 -35 14z"/>
    <glyph glyph-name="k" unicode="k" horiz-adv-x="514" d="M499 0h-82l-209 262l-71 -64v-198h-64v708h64v-424l256 220h88l-223 -198z"/>
    <glyph glyph-name="l" unicode="l" horiz-adv-x="209" d="M136 0h-63v708h63v-708z"/>
    <glyph glyph-name="m" unicode="m" horiz-adv-x="868" d="M73 0v504h63v-105q18 52 57.5 82.5t97.5 30.5q65 0 111 -29.5t58 -82.5q21 50 64 81t97 31q81 0 127.5 -47t46.5 -129v-336h-63v328q0 57 -32 91.5t-89 34.5q-69 0 -107.5 -56.5t-38.5 -146.5v-251h-63v328q0 58 -31.5 92t-88.5 34q-69 0 -107.5 -56.5t-38.5 -146.5v-251 h-63z"/>
    <glyph glyph-name="n" unicode="n" horiz-adv-x="567" d="M73 0v504h63v-105q29 52 75.5 82.5t104.5 30.5q51 0 91.5 -22t63.5 -62t23 -92v-336h-63v328q0 56 -33.5 91t-90.5 35q-51 0 -89.5 -28.5t-60 -81t-21.5 -123.5v-221h-63z"/>
    <glyph glyph-name="o" unicode="o" horiz-adv-x="592" d="M165.5 25q-57.5 33 -90 92.5t-32.5 134.5t32.5 134.5t90 92.5t130.5 33t130.5 -33.5t90 -92.5t32.5 -134t-32.5 -134t-90 -92.5t-130.5 -33.5t-130.5 33zM393.5 76q42.5 26 66 72t23.5 104t-23.5 104t-66 72t-97.5 26t-97.5 -26t-66 -71.5t-23.5 -104.5t23.5 -104.5 t66 -71.5t97.5 -26t97.5 26z"/>
    <glyph glyph-name="p" unicode="p" horiz-adv-x="599" d="M73 -182v686h63v-81q20 37 69.5 63t105.5 26q78 0 133.5 -34.5t83.5 -93.5t28 -132t-28 -132t-83 -93.5t-133 -34.5q-50 0 -99.5 25t-76.5 64v-263h-63zM440.5 105q49.5 55 49.5 147t-49.5 147t-131.5 55q-81 0 -130 -55.5t-49 -146.5t49 -146.5t130 -55.5q82 0 131.5 55 z"/>
    <glyph glyph-name="q" unicode="q" horiz-adv-x="599" d="M526 -182h-63v263q-27 -39 -76.5 -64t-99.5 -25q-78 0 -133 34.5t-83 93.5t-28 132t28 132t83.5 93.5t133.5 34.5q56 0 105.5 -26t69.5 -63v81h63v-686zM420 105.5q49 55.5 49 146.5t-49 146.5t-130 55.5q-82 0 -131.5 -55t-49.5 -147t49.5 -147t131.5 -55q81 0 130 55.5 z"/>
    <glyph glyph-name="r" unicode="r" horiz-adv-x="371" d="M352 442q-30 12 -66 12q-43 0 -77 -29.5t-53.5 -88t-19.5 -141.5v-195h-63v504h63v-107q23 50 68 82.5t92 32.5q33 0 60 -9z"/>
    <glyph glyph-name="s" unicode="s" horiz-adv-x="463" d="M102.5 34.5q-51.5 42.5 -68.5 102.5l56 28q18 -54 53 -84.5t96 -30.5q50 0 82.5 26t32.5 62q0 32 -18 51.5t-44 29.5t-72 21q-53 13 -85.5 26t-55.5 41t-23 75q0 60 47.5 95t127.5 35q64 0 114 -34.5t65 -89.5l-55 -25q-10 40 -46 65.5t-82 25.5q-50 0 -78 -18.5 t-28 -53.5q0 -24 15.5 -38.5t38 -22.5t63.5 -18q58 -14 94 -29t61.5 -47.5t25.5 -87.5q0 -66 -49 -106.5t-131 -40.5q-85 0 -136.5 42.5z"/>
    <glyph glyph-name="t" unicode="t" horiz-adv-x="357" d="M324 3q-33 -11 -77 -11q-62 0 -98 37.5t-36 113.5v303h-98v58h98v155h63v-155h139v-58h-139v-313q0 -41 21 -62t58 -21q38 0 65 14z"/>
    <glyph glyph-name="u" unicode="u" horiz-adv-x="567" d="M494 504v-504h-63v105q-29 -52 -75.5 -82.5t-104.5 -30.5q-51 0 -91.5 22t-63.5 62t-23 92v336h63v-328q0 -56 33.5 -91t90.5 -35q51 0 89.5 28.5t60 81t21.5 123.5v221h63z"/>
    <glyph glyph-name="v" unicode="v" horiz-adv-x="471" d="M271 0h-71l-185 504h66l154 -431l154 431h67z"/>
    <glyph glyph-name="w" unicode="w" horiz-adv-x="751" d="M249 0h-66l-154 504h66l121 -416l128 416h63l127 -416l121 416h67l-154 -504h-67l-126 412z"/>
    <glyph glyph-name="x" unicode="x" horiz-adv-x="468" d="M271 262l177 -262h-73l-141 208l-141 -208h-73l178 262l-164 242h73l127 -188l127 188h73z"/>
    <glyph glyph-name="y" unicode="y" horiz-adv-x="486" d="M246 85l161 419h64l-264 -686h-64l70 182l-198 504h68z"/>
    <glyph glyph-name="z" unicode="z" horiz-adv-x="487" d="M449 0h-414v48l330 398h-313v58h397v-48l-327 -398h327v-58z"/>
    <glyph glyph-name="braceleft" unicode="{" horiz-adv-x="310" d="M238 -130q-46 0 -73.5 30.5t-27.5 80.5v208q0 51 -20 73t-66 23v54q46 1 66 23t20 72v209q0 50 27.5 80t73.5 30h45v-53h-31q-30 0 -43.5 -14t-13.5 -43v-225q0 -46 -17.5 -70t-51.5 -36q34 -13 51.5 -37t17.5 -70v-225q0 -29 13.5 -42.5t43.5 -13.5h31v-54h-45z"/>
    <glyph glyph-name="bar" unicode="|" horiz-adv-x="219" d="M143 -50h-67v800h67v-800z"/>
    <glyph glyph-name="braceright" unicode="}" horiz-adv-x="310" d="M27 -130v54h31q30 0 43.5 13.5t13.5 42.5v225q0 46 17.5 70t51.5 37q-34 12 -51.5 36t-17.5 70v225q0 29 -13.5 43t-43.5 14h-31v53h45q46 0 73.5 -30t27.5 -80v-209q0 -50 20 -72t66 -23v-54q-46 -1 -66 -23t-20 -73v-208q0 -50 -27.5 -80.5t-73.5 -30.5h-45z"/>
    <glyph glyph-name="asciitilde" unicode="~" horiz-adv-x="536" d="M314 272.5q-22 8.5 -46 25.5q-6 4 -24 17t-35 19.5t-35 6.5q-28 0 -47.5 -17.5t-23.5 -49.5l-53 9q4 52 37.5 83t86.5 31q26 0 48 -8.5t46 -25.5q6 -4 24 -17t35 -19.5t35 -6.5q28 0 47.5 17.5t23.5 49.5l53 -9q-4 -52 -37.5 -83t-86.5 -31q-26 0 -48 8.5z"/>
    <glyph glyph-name="uni00A0" unicode=" " horiz-adv-x="242"/>
    <glyph glyph-name="exclamdown" unicode="¡" horiz-adv-x="255" d="M164.5 489.5q14.5 -14.5 14.5 -36.5t-14.5 -36.5t-36.5 -14.5q-23 0 -37.5 14.5t-14.5 36.5q0 23 14.5 37t37.5 14q22 0 36.5 -14.5zM84 -204l22 516h43l22 -516h-87z"/>
    <glyph glyph-name="cent" unicode="¢" horiz-adv-x="542" d="M504 155q-16 -71 -64.5 -112.5t-121.5 -49.5v-114l-67 1v114q-96 13 -152 82t-56 176t56 176t152 82v116h67v-115q72 -8 121.5 -50t62.5 -107l-62 -13q-10 50 -51 81.5t-99 31.5q-82 0 -131.5 -55t-49.5 -147t49.5 -147t131.5 -55q60 0 100.5 30.5t51.5 86.5z"/>
    <glyph glyph-name="sterling" unicode="£" horiz-adv-x="550" d="M531 103q-30 -51 -64.5 -77t-85.5 -26h-319v62q49 62 70.5 104t21.5 93q0 29 -10 62h-106v62h83q-15 37 -23 65.5t-8 58.5q0 93 56 147t146 54q73 0 126.5 -39.5t72.5 -104.5l-63 -22q-18 53 -50.5 78.5t-85.5 25.5q-60 0 -96 -36t-36 -104q0 -29 8 -55.5t24 -67.5h208 v-62h-186q10 -33 10 -64q0 -49 -26.5 -107.5t-62.5 -87.5h246q25 0 42 9t28 22.5t28 40.5z"/>
    <glyph glyph-name="currency" unicode="¤" horiz-adv-x="661" d="M537 93l81 -81l-48 -47l-79 80q-65 -53 -159 -53q-93 0 -161 54l-80 -81l-48 47l83 83q-47 66 -47 157t47 157l-83 84l47 47l81 -81q67 53 161 53q91 0 159 -52l80 80l47 -47l-81 -82q48 -67 48 -159t-48 -159zM429.5 76q42.5 26 66 72t23.5 104t-23.5 104t-66 72 t-97.5 26t-97.5 -26t-66 -71.5t-23.5 -104.5t23.5 -104.5t66 -71.5t97.5 -26t97.5 26z"/>
    <glyph glyph-name="yen" unicode="¥" horiz-adv-x="578" d="M493 700h80l-215 -347h156v-62h-192v-109h192v-62h-192v-120h-67v120h-190v62h190v109h-190v62h154l-214 347h79l205 -341z"/>
    <glyph glyph-name="brokenbar" unicode="¦" horiz-adv-x="219" d="M143 401h-67v349h67v-349zM143 -50h-67v349h67v-349z"/>
    <glyph glyph-name="section" unicode="§" horiz-adv-x="580" d="M506.5 61.5q18.5 -31.5 18.5 -77.5q0 -52 -28 -91.5t-79.5 -61t-119.5 -21.5q-92 0 -158.5 52.5t-84.5 139.5l56 21q13 -71 64.5 -114t122.5 -43q74 0 119 32t45 86q0 38 -23 63t-57.5 39t-91.5 30q-68 21 -109 38.5t-69.5 51.5t-28.5 89q0 38 21 67.5t58 49.5 q-38 22 -58.5 53t-20.5 78t27.5 85t75.5 59t109 21q87 0 147 -42.5t71 -112.5l-53 -20q-10 56 -54 87.5t-111 31.5q-68 0 -109 -30t-41 -79q0 -37 22 -60t55 -36t90 -29q69 -19 111.5 -37t72 -54t29.5 -95q0 -70 -70 -116q33 -23 51.5 -54.5zM167 235q22 -23 54 -35.5 t90 -28.5q66 -18 97 -31q26 15 40 38.5t14 53.5q0 38 -23 63t-57.5 39t-91.5 30q-52 16 -77 25q-33 -14 -50.5 -38t-17.5 -56q0 -37 22 -60z"/>
    <glyph glyph-name="dieresis" unicode="¨" horiz-adv-x="369" d="M64 623q-14 14 -14 35q0 22 14 36t35 14q22 0 36.5 -14t14.5 -36q0 -21 -14.5 -35t-36.5 -14q-21 0 -35 14zM233 623q-14 14 -14 35q0 22 14 36t35 14q22 0 36.5 -14t14.5 -36q0 -21 -14.5 -35t-36.5 -14q-21 0 -35 14z"/>
    <glyph glyph-name="copyright" unicode="©" horiz-adv-x="805" d="M218.5 38.5q-81.5 46.5 -128 128t-46.5 183.5t46.5 183.5t128 128t183.5 46.5t184 -46.5t128.5 -128t46.5 -183.5t-46.5 -183.5t-128.5 -128t-184 -46.5t-183.5 46.5zM559.5 79.5q70.5 40.5 111 111.5t40.5 159t-40.5 159t-111 111.5t-157.5 40.5t-157.5 -40.5 t-110.5 -111.5t-40 -159t40 -159t110.5 -111.5t157.5 -40.5t157.5 40.5zM307 172.5q-44 25.5 -68 72t-24 106.5q0 61 24.5 107.5t68 72t100.5 25.5q64 0 109 -35t58 -95l-49 -11q-8 46 -39 70.5t-79 24.5q-66 0 -104 -42.5t-38 -116.5q0 -73 38 -115.5t104 -42.5 q47 0 77.5 23.5t40.5 69.5l49 -10q-15 -60 -59.5 -94.5t-107.5 -34.5q-57 0 -101 25.5z"/>
    <glyph glyph-name="ordfeminine" unicode="ª" horiz-adv-x="339" d="M258 676q36 -32 36 -84v-208h-48v55q-14 -28 -43.5 -44t-65.5 -16q-48 0 -78 26t-30 67q0 46 38 72t116 34l63 6v7q0 35 -22.5 55.5t-58.5 20.5q-34 0 -56.5 -19.5t-26.5 -52.5l-45 8q8 47 43 76t85 29q57 0 93 -32zM219 449q27 29 27 81v16l-63 -7q-105 -12 -105 -66 q0 -24 18.5 -38.5t47.5 -14.5q48 0 75 29z"/>
    <glyph glyph-name="guillemotleft" unicode="«" horiz-adv-x="526" d="M272 151v-68l-244 195v42l244 195v-68l-187 -148zM491 151v-68l-244 195v42l244 195v-68l-187 -148z"/>
    <glyph glyph-name="logicalnot" unicode="¬" horiz-adv-x="571" d="M511 152h-63v180h-395v58h458v-238z"/>
    <glyph glyph-name="uni00AD" unicode="­" horiz-adv-x="340" d="M310 260h-280v56h280v-56z"/>
    <glyph glyph-name="registered" unicode="®" horiz-adv-x="805" d="M218.5 38.5q-81.5 46.5 -128 128t-46.5 183.5t46.5 183.5t128 128t183.5 46.5t184 -46.5t128.5 -128t46.5 -183.5t-46.5 -183.5t-128.5 -128t-184 -46.5t-183.5 46.5zM559.5 79.5q70.5 40.5 111 111.5t40.5 159t-40.5 159t-111 111.5t-157.5 40.5t-157.5 -40.5 t-110.5 -111.5t-40 -159t40 -159t110.5 -111.5t157.5 -40.5t157.5 40.5zM579 158h-56l-116 181h-91v-181h-49v401h141q57 0 92 -30.5t35 -79.5q0 -37 -20 -64t-56 -38zM316 512v-126h90q38 0 58 16.5t20 46.5t-20 46.5t-58 16.5h-90z"/>
    <glyph glyph-name="macron" unicode="¯" horiz-adv-x="361" d="M311 594h-261v56h261v-56z"/>
    <glyph glyph-name="degree" unicode="°" horiz-adv-x="334" d="M80 502q-36 36 -36 86q0 51 35 87t85 36q52 0 89 -35.5t37 -87.5q0 -50 -36.5 -86t-87.5 -37q-50 1 -86 37zM216 538q20 20 20 50q0 29 -20 49t-50 20q-29 0 -48.5 -20t-19.5 -49q0 -30 19.5 -50t48.5 -20q30 0 50 20z"/>
    <glyph glyph-name="plusminus" unicode="±" horiz-adv-x="551" d="M303 366h213v-57h-212v-211h-56v212h-213v57h212v211h56v-212zM506 56v-56h-460v56h460z"/>
    <glyph glyph-name="uni00B2" unicode="²" horiz-adv-x="327" d="M31 375v48l130 111q40 33 57.5 60t17.5 54q0 30 -19 48t-51 18q-39 0 -59 -25t-16 -67l-54 5q-4 61 32 99t97 38q58 0 93 -32t35 -84q0 -36 -22.5 -70.5t-73.5 -77.5l-90 -75h186v-50h-263z"/>
    <glyph glyph-name="uni00B3" unicode="³" horiz-adv-x="328" d="M67.5 401.5q-38.5 30.5 -43.5 80.5l53 8q4 -31 27.5 -50t58.5 -19q38 0 61 20.5t23 55.5q0 36 -21.5 55.5t-59.5 19.5q-24 0 -42 -12l-25 37l117 115h-181v48h248v-48l-106 -102l15 1q51 0 82 -31.5t31 -83.5q0 -57 -38.5 -91t-103.5 -34q-57 0 -95.5 30.5z"/>
    <glyph glyph-name="acute" unicode="´" horiz-adv-x="262" d="M97 560h-47l77 148h85z"/>
    <glyph glyph-name="uni00B5" unicode="µ" horiz-adv-x="562" d="M426 504h63v-504h-63v105q-29 -52 -75.5 -82.5t-104.5 -30.5q-68 0 -115 55v-237h-63v694h63v-328q0 -56 33.5 -91t90.5 -35q51 0 89.5 28.5t60 81t21.5 123.5v221z"/>
    <glyph glyph-name="paragraph" unicode="¶" horiz-adv-x="660" d="M231 354q-51 0 -93.5 23t-67 63t-24.5 87t24.5 87t67 63t93.5 23h378v-62h-67v-820h-67v820h-177v-820h-67v536z"/>
    <glyph glyph-name="periodcentered" unicode="·" horiz-adv-x="243" d="M88.5 310q-14.5 14 -14.5 37q0 22 14.5 36.5t37.5 14.5q22 0 36.5 -14.5t14.5 -36.5t-14.5 -36.5t-36.5 -14.5q-23 0 -37.5 14z"/>
    <glyph glyph-name="cedilla" unicode="¸" horiz-adv-x="262" d="M182 27l30 -26l-77 -148h-85z"/>
    <glyph glyph-name="uni00B9" unicode="¹" horiz-adv-x="203" d="M109 700q-45 -30 -79 -39v51q40 12 89 48h43v-385h-53v325z"/>
    <glyph glyph-name="ordmasculine" unicode="º" horiz-adv-x="381" d="M74.5 425q-45.5 46 -45.5 119q0 47 21 84.5t58 58.5t83 21t82.5 -21t57.5 -58.5t21 -84.5q0 -48 -21 -85.5t-57.5 -58.5t-82.5 -21q-71 0 -116.5 46zM271 456q31 34 31 88q0 53 -31 87t-80 34q-50 0 -81 -34t-31 -87q0 -54 30.5 -88t81.5 -34q49 0 80 34z"/>
    <glyph glyph-name="guillemotright" unicode="»" horiz-adv-x="542" d="M279 278l-244 -195v68l187 148l-187 148v68l244 -195v-42zM514 278l-244 -195v68l187 148l-187 148v68l244 -195v-42z"/>
    <glyph glyph-name="onequarter" unicode="¼" horiz-adv-x="761" d="M680 0h-57v90h-203v50l196 245h64v-245h57v-50h-57v-90zM623 320l-143 -180h143v180zM109 640q-45 -30 -79 -39v51q40 12 89 48h43v-385h-53v325zM156 0h-61l468 700h61z"/>
    <glyph glyph-name="onehalf" unicode="½" horiz-adv-x="788" d="M109 640q-45 -30 -79 -39v51q40 12 89 48h43v-385h-53v325zM152 0h-61l468 700h61zM492 0v48l130 111q40 33 57.5 60t17.5 54q0 30 -19 48t-51 18q-39 0 -59 -25t-16 -67l-54 5q-4 61 32 99t97 38q58 0 93 -32t35 -84q0 -36 -22.5 -70.5t-73.5 -77.5l-90 -75h186v-50 h-263z"/>
    <glyph glyph-name="threequarters" unicode="¾" horiz-adv-x="831" d="M67.5 341.5q-38.5 30.5 -43.5 80.5l53 8q4 -31 27.5 -50t58.5 -19q38 0 61 20.5t23 55.5q0 36 -21.5 55.5t-59.5 19.5q-24 0 -42 -12l-25 37l117 115h-181v48h248v-48l-106 -102l15 1q51 0 82 -31.5t31 -83.5q0 -57 -38.5 -91t-103.5 -34q-57 0 -95.5 30.5zM750 0h-57v90 h-203v50l196 245h64v-245h57v-50h-57v-90zM693 320l-143 -180h143v180zM212 0h-61l468 700h61z"/>
    <glyph glyph-name="questiondown" unicode="¿" horiz-adv-x="434" d="M274.5 490q14.5 -14 14.5 -37q0 -22 -14.5 -36.5t-37.5 -14.5q-22 0 -36.5 14.5t-14.5 36.5t14.5 36.5t36.5 14.5q23 0 37.5 -14zM277 312q0 -49 -15 -84t-36.5 -57.5t-57.5 -50.5q-31 -25 -48 -42t-29 -42t-12 -58q0 -57 36.5 -92.5t96.5 -35.5q66 0 108 37.5t46 101.5 l64 -11q-7 -86 -66.5 -138t-151.5 -52q-61 0 -107 24t-71 66.5t-25 96.5q0 47 14.5 79.5t35 53t55.5 47.5q32 24 51 43t32 47t13 67h67z"/>
    <glyph glyph-name="Agrave" unicode="À" horiz-adv-x="643" d="M633 0h-70l-75 191h-333l-76 -191h-69l282 700h59zM322 611l-142 -358h283zM269 904l77 -148h-47l-115 148h85z"/>
    <glyph glyph-name="Aacute" unicode="Á" horiz-adv-x="643" d="M633 0h-70l-75 191h-333l-76 -191h-69l282 700h59zM322 611l-142 -358h283zM338 756h-47l77 148h85z"/>
    <glyph glyph-name="Acircumflex" unicode="Â" horiz-adv-x="643" d="M633 0h-70l-75 191h-333l-76 -191h-69l282 700h59zM322 611l-142 -358h283zM180 756l118 148h47l118 -148h-56l-85 96l-87 -96h-55z"/>
    <glyph glyph-name="Atilde" unicode="Ã" horiz-adv-x="643" d="M633 0h-70l-75 191h-333l-76 -191h-69l282 700h59zM322 611l-142 -358h283zM162 797q1 41 27.5 66.5t68.5 25.5q36 0 70 -27q21 -15 35 -22t32 -7q20 0 33 12.5t15 36.5l48 -9q-2 -41 -28.5 -66t-67.5 -25q-19 0 -35.5 7t-35.5 19q-5 3 -18 12.5t-24.5 14t-23.5 4.5 q-21 0 -34 -13t-15 -37z"/>
    <glyph glyph-name="Adieresis" unicode="Ä" horiz-adv-x="643" d="M633 0h-70l-75 191h-333l-76 -191h-69l282 700h59zM322 611l-142 -358h283zM201 819q-14 14 -14 35q0 22 14 36t35 14q22 0 36.5 -14t14.5 -36q0 -21 -14.5 -35t-36.5 -14q-21 0 -35 14zM370 819q-14 14 -14 35q0 22 14 36t35 14q22 0 36.5 -14t14.5 -36q0 -21 -14.5 -35 t-36.5 -14q-21 0 -35 14z"/>
    <glyph glyph-name="Aring" unicode="Å" horiz-adv-x="643" d="M633 0h-70l-75 191h-333l-76 -191h-69l282 700h59zM322 611l-142 -358h283zM247 769q-30 28 -30 70t30 70t75 28t75 -28t30 -70t-30 -70t-75 -28t-75 28zM363 799.5q16 15.5 16 39.5t-16 39.5t-41 15.5q-24 0 -40 -15.5t-16 -39.5t16 -39.5t40 -15.5q25 0 41 15.5z"/>
    <glyph glyph-name="AE" unicode="Æ" horiz-adv-x="939" d="M522 342v-280h371v-62h-438v199h-258l-116 -199h-73l417 700h457v-62h-360v-234h295v-62h-295zM455 640l-222 -379h222v379z"/>
    <glyph glyph-name="Ccedilla" unicode="Ç" horiz-adv-x="705" d="M523.5 96.5q56.5 42.5 77.5 122.5l66 -13q-27 -98 -102.5 -155.5t-182.5 -58.5l-72 -139h-85l108 142q-80 10 -145.5 53t-104.5 119.5t-39 182.5q0 116 47 197t123.5 121t164.5 40q109 0 186 -58t102 -157l-66 -15q-18 80 -76 124t-146 44q-78 0 -138 -34.5t-93.5 -101.5 t-33.5 -160t33.5 -160t93.5 -101.5t138 -34.5q88 0 144.5 42.5z"/>
    <glyph glyph-name="Egrave" unicode="È" horiz-adv-x="560" d="M514 0h-438v700h427v-62h-360v-234h295v-62h-295v-280h371v-62zM247 904l77 -148h-47l-115 148h85z"/>
    <glyph glyph-name="Eacute" unicode="É" horiz-adv-x="560" d="M514 0h-438v700h427v-62h-360v-234h295v-62h-295v-280h371v-62zM316 756h-47l77 148h85z"/>
    <glyph glyph-name="Ecircumflex" unicode="Ê" horiz-adv-x="560" d="M514 0h-438v700h427v-62h-360v-234h295v-62h-295v-280h371v-62zM158 756l118 148h47l118 -148h-56l-85 96l-87 -96h-55z"/>
    <glyph glyph-name="Edieresis" unicode="Ë" horiz-adv-x="560" d="M514 0h-438v700h427v-62h-360v-234h295v-62h-295v-280h371v-62zM179 819q-14 14 -14 35q0 22 14 36t35 14q22 0 36.5 -14t14.5 -36q0 -21 -14.5 -35t-36.5 -14q-21 0 -35 14zM348 819q-14 14 -14 35q0 22 14 36t35 14q22 0 36.5 -14t14.5 -36q0 -21 -14.5 -35t-36.5 -14 q-21 0 -35 14z"/>
    <glyph glyph-name="Igrave" unicode="Ì" horiz-adv-x="219" d="M143 0h-67v700h67v-700zM56 904l77 -148h-47l-115 148h85z"/>
    <glyph glyph-name="Iacute" unicode="Í" horiz-adv-x="219" d="M143 0h-67v700h67v-700zM125 756h-47l77 148h85z"/>
    <glyph glyph-name="Icircumflex" unicode="Î" horiz-adv-x="219" d="M143 0h-67v700h67v-700zM-33 756l118 148h47l118 -148h-56l-85 96l-87 -96h-55z"/>
    <glyph glyph-name="Idieresis" unicode="Ï" horiz-adv-x="219" d="M143 0h-67v700h67v-700zM-12 819q-14 14 -14 35q0 22 14 36t35 14q22 0 36.5 -14t14.5 -36q0 -21 -14.5 -35t-36.5 -14q-21 0 -35 14zM157 819q-14 14 -14 35q0 22 14 36t35 14q22 0 36.5 -14t14.5 -36q0 -21 -14.5 -35t-36.5 -14q-21 0 -35 14z"/>
    <glyph glyph-name="Eth" unicode="Ð" horiz-adv-x="664" d="M274 700q99 0 177.5 -42t123.5 -121.5t45 -186.5t-45 -186.5t-123.5 -121.5t-177.5 -42h-198v324h-59v52h59v324h198zM276 62q74 0 136 31t99.5 96t37.5 161t-37.5 161t-99.5 96t-136 31h-133v-262h166v-52h-166v-262h133z"/>
    <glyph glyph-name="Ntilde" unicode="Ñ" horiz-adv-x="684" d="M144 0h-68v700h81l383 -595v595h68v-700h-81l-383 593v-593zM183 797q1 41 27.5 66.5t68.5 25.5q36 0 70 -27q21 -15 35 -22t32 -7q20 0 33 12.5t15 36.5l48 -9q-2 -41 -28.5 -66t-67.5 -25q-19 0 -35.5 7t-35.5 19q-5 3 -18 12.5t-24.5 14t-23.5 4.5q-21 0 -34 -13 t-15 -37z"/>
    <glyph glyph-name="Ograve" unicode="Ò" horiz-adv-x="767" d="M208.5 38q-77.5 46 -121 127.5t-43.5 184.5t43.5 184.5t121 127.5t174.5 46t174.5 -46t121.5 -127.5t44 -184.5t-44 -184.5t-121.5 -127.5t-174.5 -46t-174.5 46zM522.5 92q61.5 38 96 105.5t34.5 152.5t-34.5 152.5t-96 105.5t-139.5 38q-77 0 -138.5 -38t-96 -105.5 t-34.5 -152.5t34.5 -152.5t96 -105.5t138.5 -38q78 0 139.5 38zM330 904l77 -148h-47l-115 148h85z"/>
    <glyph glyph-name="Oacute" unicode="Ó" horiz-adv-x="767" d="M208.5 38q-77.5 46 -121 127.5t-43.5 184.5t43.5 184.5t121 127.5t174.5 46t174.5 -46t121.5 -127.5t44 -184.5t-44 -184.5t-121.5 -127.5t-174.5 -46t-174.5 46zM522.5 92q61.5 38 96 105.5t34.5 152.5t-34.5 152.5t-96 105.5t-139.5 38q-77 0 -138.5 -38t-96 -105.5 t-34.5 -152.5t34.5 -152.5t96 -105.5t138.5 -38q78 0 139.5 38zM399 756h-47l77 148h85z"/>
    <glyph glyph-name="Ocircumflex" unicode="Ô" horiz-adv-x="767" d="M208.5 38q-77.5 46 -121 127.5t-43.5 184.5t43.5 184.5t121 127.5t174.5 46t174.5 -46t121.5 -127.5t44 -184.5t-44 -184.5t-121.5 -127.5t-174.5 -46t-174.5 46zM522.5 92q61.5 38 96 105.5t34.5 152.5t-34.5 152.5t-96 105.5t-139.5 38q-77 0 -138.5 -38t-96 -105.5 t-34.5 -152.5t34.5 -152.5t96 -105.5t138.5 -38q78 0 139.5 38zM241 756l118 148h47l118 -148h-56l-85 96l-87 -96h-55z"/>
    <glyph glyph-name="Otilde" unicode="Õ" horiz-adv-x="767" d="M208.5 38q-77.5 46 -121 127.5t-43.5 184.5t43.5 184.5t121 127.5t174.5 46t174.5 -46t121.5 -127.5t44 -184.5t-44 -184.5t-121.5 -127.5t-174.5 -46t-174.5 46zM522.5 92q61.5 38 96 105.5t34.5 152.5t-34.5 152.5t-96 105.5t-139.5 38q-77 0 -138.5 -38t-96 -105.5 t-34.5 -152.5t34.5 -152.5t96 -105.5t138.5 -38q78 0 139.5 38zM223 797q1 41 27.5 66.5t68.5 25.5q36 0 70 -27q21 -15 35 -22t32 -7q20 0 33 12.5t15 36.5l48 -9q-2 -41 -28.5 -66t-67.5 -25q-19 0 -35.5 7t-35.5 19q-5 3 -18 12.5t-24.5 14t-23.5 4.5q-21 0 -34 -13 t-15 -37z"/>
    <glyph glyph-name="Odieresis" unicode="Ö" horiz-adv-x="767" d="M208.5 38q-77.5 46 -121 127.5t-43.5 184.5t43.5 184.5t121 127.5t174.5 46t174.5 -46t121.5 -127.5t44 -184.5t-44 -184.5t-121.5 -127.5t-174.5 -46t-174.5 46zM522.5 92q61.5 38 96 105.5t34.5 152.5t-34.5 152.5t-96 105.5t-139.5 38q-77 0 -138.5 -38t-96 -105.5 t-34.5 -152.5t34.5 -152.5t96 -105.5t138.5 -38q78 0 139.5 38zM262 819q-14 14 -14 35q0 22 14 36t35 14q22 0 36.5 -14t14.5 -36q0 -21 -14.5 -35t-36.5 -14q-21 0 -35 14zM431 819q-14 14 -14 35q0 22 14 36t35 14q22 0 36.5 -14t14.5 -36q0 -21 -14.5 -35t-36.5 -14 q-21 0 -35 14z"/>
    <glyph glyph-name="multiply" unicode="×" horiz-adv-x="521" d="M435 552l40 -40l-174 -174l174 -174l-40 -40l-174 174l-175 -174l-40 40l174 174l-174 174l40 40l175 -174z"/>
    <glyph glyph-name="Oslash" unicode="Ø" horiz-adv-x="767" d="M636 597q42 -48 64.5 -111t22.5 -136q0 -103 -44 -184.5t-121.5 -127.5t-174.5 -46q-117 0 -206 68l-58 -68l-46 44l57 67q-41 48 -63.5 111t-22.5 136q0 103 43.5 184.5t121 127.5t174.5 46q119 0 206 -67l57 67l47 -44zM129.5 243.5q15.5 -49.5 45.5 -87.5l371 435 q-69 55 -163 55q-77 0 -138.5 -38t-96 -105.5t-34.5 -152.5q0 -57 15.5 -106.5zM522.5 92q61.5 38 96 105.5t34.5 152.5q0 114 -62 195l-371 -435q68 -56 163 -56q78 0 139.5 38z"/>
    <glyph glyph-name="Ugrave" unicode="Ù" horiz-adv-x="672" d="M199 22q-59 30 -91 85t-32 128v465h68v-471q0 -79 52.5 -127t139.5 -48q88 0 140.5 47.5t52.5 127.5v471h67v-465q0 -73 -32 -128t-91 -85t-137 -30t-137 30zM283 904l77 -148h-47l-115 148h85z"/>
    <glyph glyph-name="Uacute" unicode="Ú" horiz-adv-x="672" d="M199 22q-59 30 -91 85t-32 128v465h68v-471q0 -79 52.5 -127t139.5 -48q88 0 140.5 47.5t52.5 127.5v471h67v-465q0 -73 -32 -128t-91 -85t-137 -30t-137 30zM352 756h-47l77 148h85z"/>
    <glyph glyph-name="Ucircumflex" unicode="Û" horiz-adv-x="672" d="M199 22q-59 30 -91 85t-32 128v465h68v-471q0 -79 52.5 -127t139.5 -48q88 0 140.5 47.5t52.5 127.5v471h67v-465q0 -73 -32 -128t-91 -85t-137 -30t-137 30zM194 756l118 148h47l118 -148h-56l-85 96l-87 -96h-55z"/>
    <glyph glyph-name="Udieresis" unicode="Ü" horiz-adv-x="672" d="M199 22q-59 30 -91 85t-32 128v465h68v-471q0 -79 52.5 -127t139.5 -48q88 0 140.5 47.5t52.5 127.5v471h67v-465q0 -73 -32 -128t-91 -85t-137 -30t-137 30zM215 819q-14 14 -14 35q0 22 14 36t35 14q22 0 36.5 -14t14.5 -36q0 -21 -14.5 -35t-36.5 -14q-21 0 -35 14z M384 819q-14 14 -14 35q0 22 14 36t35 14q22 0 36.5 -14t14.5 -36q0 -21 -14.5 -35t-36.5 -14q-21 0 -35 14z"/>
    <glyph glyph-name="Yacute" unicode="Ý" horiz-adv-x="578" d="M322 0h-67v294l-250 406h79l205 -341l204 341h80l-251 -406v-294zM305 756h-47l77 148h85z"/>
    <glyph glyph-name="Thorn" unicode="Þ" horiz-adv-x="580" d="M76 0v700h67v-157h190q102 0 160.5 -51.5t58.5 -141.5t-58.5 -141.5t-160.5 -51.5h-190v-157h-67zM335 219q76 0 111 35.5t35 95.5t-35 95.5t-111 35.5h-192v-262h192z"/>
    <glyph glyph-name="germandbls" unicode="ß" horiz-adv-x="573" d="M254.5 -5.5q-30.5 2.5 -30.5 4.5v58q38 -7 77 -7q83 0 127 40t44 112q0 75 -53 113.5t-138 38.5h-57v56h64q65 0 101.5 32.5t36.5 87.5q0 56 -37.5 88t-99.5 32t-98 -41.5t-36 -121.5v-487h-66v354h-59v56h59v78q0 71 26.5 120.5t72 74.5t101.5 25q61 0 106 -22.5 t69 -61.5t24 -89q0 -56 -29.5 -97.5t-74.5 -51.5q61 -15 107 -61t46 -117q0 -103 -63 -159.5t-167 -56.5q-22 0 -52.5 2.5z"/>
    <glyph glyph-name="agrave" unicode="à" d="M361 489.5q45 -22.5 70.5 -63.5t25.5 -94v-332h-63v92q-23 -46 -71 -73t-107 -27q-76 0 -123.5 41t-47.5 107q0 72 61 112.5t187 53.5l101 10v14q0 57 -37.5 90.5t-98.5 33.5q-58 0 -95 -32t-44 -87l-61 12q11 74 66 119.5t134 45.5q58 0 103 -22.5zM348.5 98 q45.5 48 45.5 135v30l-99 -10q-184 -20 -184 -113q0 -40 31 -65t79 -25q82 0 127.5 48zM206 708l77 -148h-47l-115 148h85z"/>
    <glyph glyph-name="aacute" unicode="á" d="M361 489.5q45 -22.5 70.5 -63.5t25.5 -94v-332h-63v92q-23 -46 -71 -73t-107 -27q-76 0 -123.5 41t-47.5 107q0 72 61 112.5t187 53.5l101 10v14q0 57 -37.5 90.5t-98.5 33.5q-58 0 -95 -32t-44 -87l-61 12q11 74 66 119.5t134 45.5q58 0 103 -22.5zM348.5 98 q45.5 48 45.5 135v30l-99 -10q-184 -20 -184 -113q0 -40 31 -65t79 -25q82 0 127.5 48zM275 560h-47l77 148h85z"/>
    <glyph glyph-name="acircumflex" unicode="â" d="M361 489.5q45 -22.5 70.5 -63.5t25.5 -94v-332h-63v92q-23 -46 -71 -73t-107 -27q-76 0 -123.5 41t-47.5 107q0 72 61 112.5t187 53.5l101 10v14q0 57 -37.5 90.5t-98.5 33.5q-58 0 -95 -32t-44 -87l-61 12q11 74 66 119.5t134 45.5q58 0 103 -22.5zM348.5 98 q45.5 48 45.5 135v30l-99 -10q-184 -20 -184 -113q0 -40 31 -65t79 -25q82 0 127.5 48zM117 560l118 148h47l118 -148h-56l-85 96l-87 -96h-55z"/>
    <glyph glyph-name="atilde" unicode="ã" d="M361 489.5q45 -22.5 70.5 -63.5t25.5 -94v-332h-63v92q-23 -46 -71 -73t-107 -27q-76 0 -123.5 41t-47.5 107q0 72 61 112.5t187 53.5l101 10v14q0 57 -37.5 90.5t-98.5 33.5q-58 0 -95 -32t-44 -87l-61 12q11 74 66 119.5t134 45.5q58 0 103 -22.5zM348.5 98 q45.5 48 45.5 135v30l-99 -10q-184 -20 -184 -113q0 -40 31 -65t79 -25q82 0 127.5 48zM99 601q1 41 27.5 66.5t68.5 25.5q36 0 70 -27q21 -15 35 -22t32 -7q20 0 33 12.5t15 36.5l48 -9q-2 -41 -28.5 -66t-67.5 -25q-19 0 -35.5 7t-35.5 19q-5 3 -18 12.5t-24.5 14 t-23.5 4.5q-21 0 -34 -13t-15 -37z"/>
    <glyph glyph-name="adieresis" unicode="ä" d="M361 489.5q45 -22.5 70.5 -63.5t25.5 -94v-332h-63v92q-23 -46 -71 -73t-107 -27q-76 0 -123.5 41t-47.5 107q0 72 61 112.5t187 53.5l101 10v14q0 57 -37.5 90.5t-98.5 33.5q-58 0 -95 -32t-44 -87l-61 12q11 74 66 119.5t134 45.5q58 0 103 -22.5zM348.5 98 q45.5 48 45.5 135v30l-99 -10q-184 -20 -184 -113q0 -40 31 -65t79 -25q82 0 127.5 48zM138 623q-14 14 -14 35q0 22 14 36t35 14q22 0 36.5 -14t14.5 -36q0 -21 -14.5 -35t-36.5 -14q-21 0 -35 14zM307 623q-14 14 -14 35q0 22 14 36t35 14q22 0 36.5 -14t14.5 -36 q0 -21 -14.5 -35t-36.5 -14q-21 0 -35 14z"/>
    <glyph glyph-name="aring" unicode="å" d="M361 489.5q45 -22.5 70.5 -63.5t25.5 -94v-332h-63v92q-23 -46 -71 -73t-107 -27q-76 0 -123.5 41t-47.5 107q0 72 61 112.5t187 53.5l101 10v14q0 57 -37.5 90.5t-98.5 33.5q-58 0 -95 -32t-44 -87l-61 12q11 74 66 119.5t134 45.5q58 0 103 -22.5zM348.5 98 q45.5 48 45.5 135v30l-99 -10q-184 -20 -184 -113q0 -40 31 -65t79 -25q82 0 127.5 48zM184 573q-30 28 -30 70t30 70t75 28t75 -28t30 -70t-30 -70t-75 -28t-75 28zM300 603.5q16 15.5 16 39.5t-16 39.5t-41 15.5q-24 0 -40 -15.5t-16 -39.5t16 -39.5t40 -15.5 q25 0 41 15.5z"/>
    <glyph glyph-name="ae" unicode="æ" horiz-adv-x="921" d="M876 246h-410q0 -58 23 -102.5t62.5 -69t90.5 -24.5q65 0 107.5 29t53.5 82l60 -12q-17 -75 -75 -116t-145 -41q-71 0 -126 34t-86 94q-26 -60 -80.5 -94t-130.5 -34q-78 0 -126.5 41t-48.5 107q0 75 64.5 118.5t189.5 43.5h103v28q0 57 -38.5 90.5t-101.5 33.5 q-57 0 -95.5 -31t-42.5 -76l-62 12q6 43 34 78t71.5 55t94.5 20q65 0 113.5 -27t71.5 -74q32 47 82.5 74t113.5 27q68 0 121.5 -30t83.5 -83t30 -120q0 -19 -2 -33zM813 304q-8 67 -53 108.5t-117 41.5q-67 0 -112.5 -40t-59.5 -110h342zM355 98q47 48 47 135v16h-101 q-91 0 -140 -30t-49 -79q0 -40 31.5 -65t81.5 -25q83 0 130 48z"/>
    <glyph glyph-name="ccedilla" unicode="ç" horiz-adv-x="542" d="M504 155q-16 -76 -71 -118.5t-136 -44.5l-72 -139h-85l108 142q-95 14 -150 82.5t-55 174.5q0 78 30.5 137t86.5 91t130 32q82 0 140 -43.5t72 -114.5l-62 -13q-10 50 -51 81.5t-99 31.5q-82 0 -131.5 -55t-49.5 -147t49.5 -147t131.5 -55q60 0 100.5 30.5t51.5 86.5z "/>
    <glyph glyph-name="egrave" unicode="è" horiz-adv-x="562" d="M517 246h-410q0 -58 23 -102.5t62.5 -69t90.5 -24.5q65 0 107.5 29t53.5 82l60 -12q-17 -75 -75 -116t-145 -41q-70 0 -125 33.5t-85.5 93t-30.5 133.5t30.5 133.5t85.5 93t125 33.5q68 0 121.5 -30t83.5 -83t30 -120q0 -19 -2 -33zM454 304q-8 67 -53 108.5t-117 41.5 q-67 0 -112.5 -40t-59.5 -110h342zM227 708l77 -148h-47l-115 148h85z"/>
    <glyph glyph-name="eacute" unicode="é" horiz-adv-x="562" d="M517 246h-410q0 -58 23 -102.5t62.5 -69t90.5 -24.5q65 0 107.5 29t53.5 82l60 -12q-17 -75 -75 -116t-145 -41q-70 0 -125 33.5t-85.5 93t-30.5 133.5t30.5 133.5t85.5 93t125 33.5q68 0 121.5 -30t83.5 -83t30 -120q0 -19 -2 -33zM454 304q-8 67 -53 108.5t-117 41.5 q-67 0 -112.5 -40t-59.5 -110h342zM296 560h-47l77 148h85z"/>
    <glyph glyph-name="ecircumflex" unicode="ê" horiz-adv-x="562" d="M517 246h-410q0 -58 23 -102.5t62.5 -69t90.5 -24.5q65 0 107.5 29t53.5 82l60 -12q-17 -75 -75 -116t-145 -41q-70 0 -125 33.5t-85.5 93t-30.5 133.5t30.5 133.5t85.5 93t125 33.5q68 0 121.5 -30t83.5 -83t30 -120q0 -19 -2 -33zM454 304q-8 67 -53 108.5t-117 41.5 q-67 0 -112.5 -40t-59.5 -110h342zM138 560l118 148h47l118 -148h-56l-85 96l-87 -96h-55z"/>
    <glyph glyph-name="edieresis" unicode="ë" horiz-adv-x="562" d="M517 246h-410q0 -58 23 -102.5t62.5 -69t90.5 -24.5q65 0 107.5 29t53.5 82l60 -12q-17 -75 -75 -116t-145 -41q-70 0 -125 33.5t-85.5 93t-30.5 133.5t30.5 133.5t85.5 93t125 33.5q68 0 121.5 -30t83.5 -83t30 -120q0 -19 -2 -33zM454 304q-8 67 -53 108.5t-117 41.5 q-67 0 -112.5 -40t-59.5 -110h342zM159 623q-14 14 -14 35q0 22 14 36t35 14q22 0 36.5 -14t14.5 -36q0 -21 -14.5 -35t-36.5 -14q-21 0 -35 14zM328 623q-14 14 -14 35q0 22 14 36t35 14q22 0 36.5 -14t14.5 -36q0 -21 -14.5 -35t-36.5 -14q-21 0 -35 14z"/>
    <glyph glyph-name="igrave" unicode="ì" horiz-adv-x="209" d="M136 0h-63v504h63v-504zM51 708l77 -148h-47l-115 148h85z"/>
    <glyph glyph-name="iacute" unicode="í" horiz-adv-x="209" d="M136 0h-63v504h63v-504zM120 560h-47l77 148h85z"/>
    <glyph glyph-name="icircumflex" unicode="î" horiz-adv-x="209" d="M136 0h-63v504h63v-504zM-38 560l118 148h47l118 -148h-56l-85 96l-87 -96h-55z"/>
    <glyph glyph-name="idieresis" unicode="ï" horiz-adv-x="209" d="M136 0h-63v504h63v-504zM-17 623q-14 14 -14 35q0 22 14 36t35 14q22 0 36.5 -14t14.5 -36q0 -21 -14.5 -35t-36.5 -14q-21 0 -35 14zM152 623q-14 14 -14 35q0 22 14 36t35 14q22 0 36.5 -14t14.5 -36q0 -21 -14.5 -35t-36.5 -14q-21 0 -35 14z"/>
    <glyph glyph-name="eth" unicode="ð" horiz-adv-x="598" d="M437 634q118 -109 118 -304q0 -109 -33 -185t-91 -114.5t-135 -38.5q-73 0 -130.5 33t-90 92.5t-32.5 134.5t32.5 134.5t90 92.5t130.5 33q66 0 119.5 -32.5t72.5 -85.5q-12 132 -111 217l-153 -59l-17 44l123 48q-49 30 -110 49l82 23q50 -19 92 -47l102 39l17 -45z M393.5 76q42.5 26 66 72t23.5 104t-23.5 104t-66 72t-97.5 26t-97.5 -26t-66 -71.5t-23.5 -104.5t23.5 -104.5t66 -71.5t97.5 -26t97.5 26z"/>
    <glyph glyph-name="ntilde" unicode="ñ" horiz-adv-x="567" d="M73 0v504h63v-105q29 52 75.5 82.5t104.5 30.5q51 0 91.5 -22t63.5 -62t23 -92v-336h-63v328q0 56 -33.5 91t-90.5 35q-51 0 -89.5 -28.5t-60 -81t-21.5 -123.5v-221h-63zM121 601q1 41 27.5 66.5t68.5 25.5q36 0 70 -27q21 -15 35 -22t32 -7q20 0 33 12.5t15 36.5l48 -9 q-2 -41 -28.5 -66t-67.5 -25q-19 0 -35.5 7t-35.5 19q-5 3 -18 12.5t-24.5 14t-23.5 4.5q-21 0 -34 -13t-15 -37z"/>
    <glyph glyph-name="ograve" unicode="ò" horiz-adv-x="592" d="M165.5 25q-57.5 33 -90 92.5t-32.5 134.5t32.5 134.5t90 92.5t130.5 33t130.5 -33.5t90 -92.5t32.5 -134t-32.5 -134t-90 -92.5t-130.5 -33.5t-130.5 33zM393.5 76q42.5 26 66 72t23.5 104t-23.5 104t-66 72t-97.5 26t-97.5 -26t-66 -71.5t-23.5 -104.5t23.5 -104.5 t66 -71.5t97.5 -26t97.5 26zM243 708l77 -148h-47l-115 148h85z"/>
    <glyph glyph-name="oacute" unicode="ó" horiz-adv-x="592" d="M165.5 25q-57.5 33 -90 92.5t-32.5 134.5t32.5 134.5t90 92.5t130.5 33t130.5 -33.5t90 -92.5t32.5 -134t-32.5 -134t-90 -92.5t-130.5 -33.5t-130.5 33zM393.5 76q42.5 26 66 72t23.5 104t-23.5 104t-66 72t-97.5 26t-97.5 -26t-66 -71.5t-23.5 -104.5t23.5 -104.5 t66 -71.5t97.5 -26t97.5 26zM312 560h-47l77 148h85z"/>
    <glyph glyph-name="ocircumflex" unicode="ô" horiz-adv-x="592" d="M165.5 25q-57.5 33 -90 92.5t-32.5 134.5t32.5 134.5t90 92.5t130.5 33t130.5 -33.5t90 -92.5t32.5 -134t-32.5 -134t-90 -92.5t-130.5 -33.5t-130.5 33zM393.5 76q42.5 26 66 72t23.5 104t-23.5 104t-66 72t-97.5 26t-97.5 -26t-66 -71.5t-23.5 -104.5t23.5 -104.5 t66 -71.5t97.5 -26t97.5 26zM154 560l118 148h47l118 -148h-56l-85 96l-87 -96h-55z"/>
    <glyph glyph-name="otilde" unicode="õ" horiz-adv-x="592" d="M165.5 25q-57.5 33 -90 92.5t-32.5 134.5t32.5 134.5t90 92.5t130.5 33t130.5 -33.5t90 -92.5t32.5 -134t-32.5 -134t-90 -92.5t-130.5 -33.5t-130.5 33zM393.5 76q42.5 26 66 72t23.5 104t-23.5 104t-66 72t-97.5 26t-97.5 -26t-66 -71.5t-23.5 -104.5t23.5 -104.5 t66 -71.5t97.5 -26t97.5 26zM136 601q1 41 27.5 66.5t68.5 25.5q36 0 70 -27q21 -15 35 -22t32 -7q20 0 33 12.5t15 36.5l48 -9q-2 -41 -28.5 -66t-67.5 -25q-19 0 -35.5 7t-35.5 19q-5 3 -18 12.5t-24.5 14t-23.5 4.5q-21 0 -34 -13t-15 -37z"/>
    <glyph glyph-name="odieresis" unicode="ö" horiz-adv-x="592" d="M165.5 25q-57.5 33 -90 92.5t-32.5 134.5t32.5 134.5t90 92.5t130.5 33t130.5 -33.5t90 -92.5t32.5 -134t-32.5 -134t-90 -92.5t-130.5 -33.5t-130.5 33zM393.5 76q42.5 26 66 72t23.5 104t-23.5 104t-66 72t-97.5 26t-97.5 -26t-66 -71.5t-23.5 -104.5t23.5 -104.5 t66 -71.5t97.5 -26t97.5 26zM175 623q-14 14 -14 35q0 22 14 36t35 14q22 0 36.5 -14t14.5 -36q0 -21 -14.5 -35t-36.5 -14q-21 0 -35 14zM344 623q-14 14 -14 35q0 22 14 36t35 14q22 0 36.5 -14t14.5 -36q0 -21 -14.5 -35t-36.5 -14q-21 0 -35 14z"/>
    <glyph glyph-name="divide" unicode="÷" d="M495 309h-460v56h460v-56zM232.5 481q-14.5 14 -14.5 37q0 22 14.5 36.5t37.5 14.5q22 0 36.5 -14.5t14.5 -36.5t-14.5 -36.5t-36.5 -14.5q-23 0 -37.5 14zM232.5 119q-14.5 14 -14.5 37q0 22 14.5 36.5t37.5 14.5q22 0 36.5 -14.5t14.5 -36.5t-14.5 -36.5t-36.5 -14.5 q-23 0 -37.5 14z"/>
    <glyph glyph-name="oslash" unicode="ø" horiz-adv-x="592" d="M483 434q32 -35 49 -81.5t17 -100.5q0 -75 -32.5 -134t-90 -92.5t-130.5 -33.5q-86 0 -151 46l-62 -72l-38 34l62 73q-31 34 -47.5 80t-16.5 99q0 75 32.5 134.5t90 92.5t130.5 33q86 0 148 -45l61 71l38 -34zM149 121l256 300q-47 33 -109 33q-55 0 -97.5 -26t-66 -71.5 t-23.5 -104.5q0 -77 40 -131zM393.5 76q42.5 26 66 72t23.5 104q0 79 -42 133l-256 -300q48 -35 111 -35q55 0 97.5 26z"/>
    <glyph glyph-name="ugrave" unicode="ù" horiz-adv-x="567" d="M494 504v-504h-63v105q-29 -52 -75.5 -82.5t-104.5 -30.5q-51 0 -91.5 22t-63.5 62t-23 92v336h63v-328q0 -56 33.5 -91t90.5 -35q51 0 89.5 28.5t60 81t21.5 123.5v221h63zM229 708l77 -148h-47l-115 148h85z"/>
    <glyph glyph-name="uacute" unicode="ú" horiz-adv-x="567" d="M494 504v-504h-63v105q-29 -52 -75.5 -82.5t-104.5 -30.5q-51 0 -91.5 22t-63.5 62t-23 92v336h63v-328q0 -56 33.5 -91t90.5 -35q51 0 89.5 28.5t60 81t21.5 123.5v221h63zM298 560h-47l77 148h85z"/>
    <glyph glyph-name="ucircumflex" unicode="û" horiz-adv-x="567" d="M494 504v-504h-63v105q-29 -52 -75.5 -82.5t-104.5 -30.5q-51 0 -91.5 22t-63.5 62t-23 92v336h63v-328q0 -56 33.5 -91t90.5 -35q51 0 89.5 28.5t60 81t21.5 123.5v221h63zM140 560l118 148h47l118 -148h-56l-85 96l-87 -96h-55z"/>
    <glyph glyph-name="udieresis" unicode="ü" horiz-adv-x="567" d="M494 504v-504h-63v105q-29 -52 -75.5 -82.5t-104.5 -30.5q-51 0 -91.5 22t-63.5 62t-23 92v336h63v-328q0 -56 33.5 -91t90.5 -35q51 0 89.5 28.5t60 81t21.5 123.5v221h63zM161 623q-14 14 -14 35q0 22 14 36t35 14q22 0 36.5 -14t14.5 -36q0 -21 -14.5 -35t-36.5 -14 q-21 0 -35 14zM330 623q-14 14 -14 35q0 22 14 36t35 14q22 0 36.5 -14t14.5 -36q0 -21 -14.5 -35t-36.5 -14q-21 0 -35 14z"/>
    <glyph glyph-name="yacute" unicode="ý" horiz-adv-x="486" d="M246 85l161 419h64l-264 -686h-64l70 182l-198 504h68zM259 560h-47l77 148h85z"/>
    <glyph glyph-name="thorn" unicode="þ" horiz-adv-x="599" d="M73 -204v912h65v-275q30 35 79 57t94 22q78 0 133.5 -34.5t83.5 -93.5t28 -132t-28 -132t-83 -93.5t-133 -34.5q-53 0 -102 22t-72 52v-270h-65zM442.5 106.5q47.5 56.5 47.5 145.5q0 88 -47.5 145t-133.5 57t-132.5 -57t-46.5 -145q0 -89 46.5 -145.5t132.5 -56.5 t133.5 56.5z"/>
    <glyph glyph-name="ydieresis" unicode="ÿ" horiz-adv-x="486" d="M246 85l161 419h64l-264 -686h-64l70 182l-198 504h68zM122 623q-14 14 -14 35q0 22 14 36t35 14q22 0 36.5 -14t14.5 -36q0 -21 -14.5 -35t-36.5 -14q-21 0 -35 14zM291 623q-14 14 -14 35q0 22 14 36t35 14q22 0 36.5 -14t14.5 -36q0 -21 -14.5 -35t-36.5 -14 q-21 0 -35 14z"/>
    <glyph glyph-name="Amacron" unicode="Ā" horiz-adv-x="643" d="M633 0h-70l-75 191h-333l-76 -191h-69l282 700h59zM322 611l-142 -358h283zM452 790h-261v56h261v-56z"/>
    <glyph glyph-name="amacron" unicode="ā" d="M361 489.5q45 -22.5 70.5 -63.5t25.5 -94v-332h-63v92q-23 -46 -71 -73t-107 -27q-76 0 -123.5 41t-47.5 107q0 72 61 112.5t187 53.5l101 10v14q0 57 -37.5 90.5t-98.5 33.5q-58 0 -95 -32t-44 -87l-61 12q11 74 66 119.5t134 45.5q58 0 103 -22.5zM348.5 98 q45.5 48 45.5 135v30l-99 -10q-184 -20 -184 -113q0 -40 31 -65t79 -25q82 0 127.5 48zM389 594h-261v56h261v-56z"/>
    <glyph glyph-name="Abreve" unicode="Ă" horiz-adv-x="643" d="M633 0h-70l-75 191h-333l-76 -191h-69l282 700h59zM322 611l-142 -358h283zM234 788q-35 35 -35 88h55q0 -30 19.5 -50.5t48.5 -20.5t49 20.5t20 50.5h55q0 -53 -35.5 -88t-88.5 -35t-88 35z"/>
    <glyph glyph-name="abreve" unicode="ă" d="M361 489.5q45 -22.5 70.5 -63.5t25.5 -94v-332h-63v92q-23 -46 -71 -73t-107 -27q-76 0 -123.5 41t-47.5 107q0 72 61 112.5t187 53.5l101 10v14q0 57 -37.5 90.5t-98.5 33.5q-58 0 -95 -32t-44 -87l-61 12q11 74 66 119.5t134 45.5q58 0 103 -22.5zM348.5 98 q45.5 48 45.5 135v30l-99 -10q-184 -20 -184 -113q0 -40 31 -65t79 -25q82 0 127.5 48zM171 592q-35 35 -35 88h55q0 -30 19.5 -50.5t48.5 -20.5t49 20.5t20 50.5h55q0 -53 -35.5 -88t-88.5 -35t-88 35z"/>
    <glyph glyph-name="Aogonek" unicode="Ą" horiz-adv-x="643" d="M673 -186q-24 -4 -46 -4q-49 0 -79 27t-30 70q0 20 13 47t32 46l-75 191h-333l-76 -191h-69l282 700h59l282 -700q-22 -22 -35 -45t-13 -39q0 -19 12.5 -31t32.5 -12q23 0 33 2zM322 611l-142 -358h283z"/>
    <glyph glyph-name="aogonek" unicode="ą" d="M497 -186q-24 -4 -46 -4q-49 0 -79 27t-30 70q0 23 15.5 52.5t36.5 47.5v85q-23 -46 -71 -73t-107 -27q-76 0 -123.5 41t-47.5 107q0 72 61 112.5t187 53.5l101 10v14q0 57 -37.5 90.5t-98.5 33.5q-58 0 -95 -32t-44 -87l-61 12q11 74 66 119.5t134 45.5q58 0 103 -22.5 t70.5 -63.5t25.5 -94v-332q-22 -22 -35 -45t-13 -39q0 -19 12.5 -31t32.5 -12q23 0 33 2zM348.5 98q45.5 48 45.5 135v30l-99 -10q-184 -20 -184 -113q0 -40 31 -65t79 -25q82 0 127.5 48z"/>
    <glyph glyph-name="Cacute" unicode="Ć" horiz-adv-x="705" d="M213.5 32q-76.5 40 -123 121t-46.5 197t47 197t123.5 121t164.5 40q109 0 186 -58t102 -157l-66 -15q-18 80 -76 124t-146 44q-78 0 -138 -34.5t-93.5 -101.5t-33.5 -160t33.5 -160t93.5 -101.5t138 -34.5q88 0 144.5 42.5t77.5 122.5l66 -13q-27 -99 -103.5 -156.5 t-184.5 -57.5q-89 0 -165.5 40zM387 756h-47l77 148h85z"/>
    <glyph glyph-name="cacute" unicode="ć" horiz-adv-x="542" d="M160 24q-56 32 -86.5 91t-30.5 137t30.5 137t86.5 91t130 32q82 0 140 -43.5t72 -114.5l-62 -13q-10 50 -51 81.5t-99 31.5q-82 0 -131.5 -55t-49.5 -147t49.5 -147t131.5 -55q60 0 100.5 30.5t51.5 86.5l62 -12q-17 -77 -74 -120t-140 -43q-74 0 -130 32zM303 560h-47 l77 148h85z"/>
    <glyph glyph-name="Ccircumflex" unicode="Ĉ" horiz-adv-x="705" d="M213.5 32q-76.5 40 -123 121t-46.5 197t47 197t123.5 121t164.5 40q109 0 186 -58t102 -157l-66 -15q-18 80 -76 124t-146 44q-78 0 -138 -34.5t-93.5 -101.5t-33.5 -160t33.5 -160t93.5 -101.5t138 -34.5q88 0 144.5 42.5t77.5 122.5l66 -13q-27 -99 -103.5 -156.5 t-184.5 -57.5q-89 0 -165.5 40zM229 756l118 148h47l118 -148h-56l-85 96l-87 -96h-55z"/>
    <glyph glyph-name="ccircumflex" unicode="ĉ" horiz-adv-x="542" d="M160 24q-56 32 -86.5 91t-30.5 137t30.5 137t86.5 91t130 32q82 0 140 -43.5t72 -114.5l-62 -13q-10 50 -51 81.5t-99 31.5q-82 0 -131.5 -55t-49.5 -147t49.5 -147t131.5 -55q60 0 100.5 30.5t51.5 86.5l62 -12q-17 -77 -74 -120t-140 -43q-74 0 -130 32zM145 560 l118 148h47l118 -148h-56l-85 96l-87 -96h-55z"/>
    <glyph glyph-name="Cdotaccent" unicode="Ċ" horiz-adv-x="705" d="M213.5 32q-76.5 40 -123 121t-46.5 197t47 197t123.5 121t164.5 40q109 0 186 -58t102 -157l-66 -15q-18 80 -76 124t-146 44q-78 0 -138 -34.5t-93.5 -101.5t-33.5 -160t33.5 -160t93.5 -101.5t138 -34.5q88 0 144.5 42.5t77.5 122.5l66 -13q-27 -99 -103.5 -156.5 t-184.5 -57.5q-89 0 -165.5 40zM336 819q-14 14 -14 35q0 22 14 36t35 14q22 0 36.5 -14t14.5 -36q0 -21 -14.5 -35t-36.5 -14q-21 0 -35 14z"/>
    <glyph glyph-name="cdotaccent" unicode="ċ" horiz-adv-x="542" d="M160 24q-56 32 -86.5 91t-30.5 137t30.5 137t86.5 91t130 32q82 0 140 -43.5t72 -114.5l-62 -13q-10 50 -51 81.5t-99 31.5q-82 0 -131.5 -55t-49.5 -147t49.5 -147t131.5 -55q60 0 100.5 30.5t51.5 86.5l62 -12q-17 -77 -74 -120t-140 -43q-74 0 -130 32zM252 623 q-14 14 -14 35q0 22 14 36t35 14q22 0 36.5 -14t14.5 -36q0 -21 -14.5 -35t-36.5 -14q-21 0 -35 14z"/>
    <glyph glyph-name="Ccaron" unicode="Č" horiz-adv-x="705" d="M213.5 32q-76.5 40 -123 121t-46.5 197t47 197t123.5 121t164.5 40q109 0 186 -58t102 -157l-66 -15q-18 80 -76 124t-146 44q-78 0 -138 -34.5t-93.5 -101.5t-33.5 -160t33.5 -160t93.5 -101.5t138 -34.5q88 0 144.5 42.5t77.5 122.5l66 -13q-27 -99 -103.5 -156.5 t-184.5 -57.5q-89 0 -165.5 40zM394 756h-47l-118 148h55l87 -96l85 96h56z"/>
    <glyph glyph-name="ccaron" unicode="č" horiz-adv-x="542" d="M160 24q-56 32 -86.5 91t-30.5 137t30.5 137t86.5 91t130 32q82 0 140 -43.5t72 -114.5l-62 -13q-10 50 -51 81.5t-99 31.5q-82 0 -131.5 -55t-49.5 -147t49.5 -147t131.5 -55q60 0 100.5 30.5t51.5 86.5l62 -12q-17 -77 -74 -120t-140 -43q-74 0 -130 32zM310 560h-47 l-118 148h55l87 -96l85 96h56z"/>
    <glyph glyph-name="Dcaron" unicode="Ď" horiz-adv-x="664" d="M76 0v700h198q99 0 177.5 -42t123.5 -121.5t45 -186.5t-45 -186.5t-123.5 -121.5t-177.5 -42h-198zM276 62q74 0 136 31t99.5 96t37.5 161t-37.5 161t-99.5 96t-136 31h-133v-576h133zM320 756h-47l-118 148h55l87 -96l85 96h56z"/>
    <glyph glyph-name="dcaron" unicode="ď" horiz-adv-x="657" d="M155 26.5q-55 34.5 -83.5 93.5t-28.5 132t28.5 132t83.5 93.5t133 34.5q52 0 101 -25t74 -64v285h63v-708h-63v81q-17 -37 -66.5 -63t-108.5 -26q-78 0 -133 34.5zM421 105q49 55 49 147t-49 147t-131 55t-131 -55t-49 -147t49 -147t131 -55t131 55zM614 560h-40l33 168 h70z"/>
    <glyph glyph-name="Dcroat" unicode="Đ" horiz-adv-x="664" d="M274 700q99 0 177.5 -42t123.5 -121.5t45 -186.5t-45 -186.5t-123.5 -121.5t-177.5 -42h-198v324h-59v52h59v324h198zM276 62q74 0 136 31t99.5 96t37.5 161t-37.5 161t-99.5 96t-136 31h-133v-262h166v-52h-166v-262h133z"/>
    <glyph glyph-name="dcroat" unicode="đ" horiz-adv-x="599" d="M609 629v-52h-83v-577h-63v81q-17 -37 -66.5 -63t-108.5 -26q-78 0 -133 34.5t-83.5 93.5t-28.5 132t28.5 132t83.5 93.5t133 34.5q52 0 101 -25t74 -64v154h-146v52h146v79h63v-79h83zM421 105q49 55 49 147t-49 147t-131 55t-131 -55t-49 -147t49 -147t131 -55t131 55z "/>
    <glyph glyph-name="Emacron" unicode="Ē" horiz-adv-x="560" d="M514 0h-438v700h427v-62h-360v-234h295v-62h-295v-280h371v-62zM430 790h-261v56h261v-56z"/>
    <glyph glyph-name="emacron" unicode="ē" horiz-adv-x="562" d="M517 246h-410q0 -58 23 -102.5t62.5 -69t90.5 -24.5q65 0 107.5 29t53.5 82l60 -12q-17 -75 -75 -116t-145 -41q-70 0 -125 33.5t-85.5 93t-30.5 133.5t30.5 133.5t85.5 93t125 33.5q68 0 121.5 -30t83.5 -83t30 -120q0 -19 -2 -33zM454 304q-8 67 -53 108.5t-117 41.5 q-67 0 -112.5 -40t-59.5 -110h342zM410 594h-261v56h261v-56z"/>
    <glyph glyph-name="Ebreve" unicode="Ĕ" horiz-adv-x="560" d="M514 0h-438v700h427v-62h-360v-234h295v-62h-295v-280h371v-62zM212 788q-35 35 -35 88h55q0 -30 19.5 -50.5t48.5 -20.5t49 20.5t20 50.5h55q0 -53 -35.5 -88t-88.5 -35t-88 35z"/>
    <glyph glyph-name="ebreve" unicode="ĕ" horiz-adv-x="562" d="M517 246h-410q0 -58 23 -102.5t62.5 -69t90.5 -24.5q65 0 107.5 29t53.5 82l60 -12q-17 -75 -75 -116t-145 -41q-70 0 -125 33.5t-85.5 93t-30.5 133.5t30.5 133.5t85.5 93t125 33.5q68 0 121.5 -30t83.5 -83t30 -120q0 -19 -2 -33zM454 304q-8 67 -53 108.5t-117 41.5 q-67 0 -112.5 -40t-59.5 -110h342zM192 592q-35 35 -35 88h55q0 -30 19.5 -50.5t48.5 -20.5t49 20.5t20 50.5h55q0 -53 -35.5 -88t-88.5 -35t-88 35z"/>
    <glyph glyph-name="Edotaccent" unicode="Ė" horiz-adv-x="560" d="M514 0h-438v700h427v-62h-360v-234h295v-62h-295v-280h371v-62zM265 819q-14 14 -14 35q0 22 14 36t35 14q22 0 36.5 -14t14.5 -36q0 -21 -14.5 -35t-36.5 -14q-21 0 -35 14z"/>
    <glyph glyph-name="edotaccent" unicode="ė" horiz-adv-x="562" d="M517 246h-410q0 -58 23 -102.5t62.5 -69t90.5 -24.5q65 0 107.5 29t53.5 82l60 -12q-17 -75 -75 -116t-145 -41q-70 0 -125 33.5t-85.5 93t-30.5 133.5t30.5 133.5t85.5 93t125 33.5q68 0 121.5 -30t83.5 -83t30 -120q0 -19 -2 -33zM454 304q-8 67 -53 108.5t-117 41.5 q-67 0 -112.5 -40t-59.5 -110h342zM245 623q-14 14 -14 35q0 22 14 36t35 14q22 0 36.5 -14t14.5 -36q0 -21 -14.5 -35t-36.5 -14q-21 0 -35 14z"/>
    <glyph glyph-name="Eogonek" unicode="Ę" horiz-adv-x="560" d="M554 -186q-24 -4 -46 -4q-49 0 -79 27t-30 70q0 20 13 47t32 46h-368v700h427v-62h-360v-234h295v-62h-295v-280h371v-62q-22 -22 -35 -45t-13 -39q0 -19 12.5 -31t32.5 -12q23 0 33 2z"/>
    <glyph glyph-name="eogonek" unicode="ę" horiz-adv-x="562" d="M517 246h-410q0 -58 23 -102.5t62.5 -69t90.5 -24.5q65 0 107.5 29t53.5 82l60 -12q-14 -62 -57 -101t-107 -51q-20 -21 -32.5 -43t-12.5 -38q0 -19 12.5 -31t32.5 -12q23 0 33 2l10 -61q-24 -4 -46 -4q-49 0 -79 27t-30 70q0 19 11 43t27 43q-66 4 -116.5 38.5t-78.5 92 t-28 128.5q0 74 30.5 133.5t85.5 93t125 33.5q68 0 121.5 -30t83.5 -83t30 -120q0 -19 -2 -33zM454 304q-8 67 -53 108.5t-117 41.5q-67 0 -112.5 -40t-59.5 -110h342z"/>
    <glyph glyph-name="Ecaron" unicode="Ě" horiz-adv-x="560" d="M514 0h-438v700h427v-62h-360v-234h295v-62h-295v-280h371v-62zM323 756h-47l-118 148h55l87 -96l85 96h56z"/>
    <glyph glyph-name="ecaron" unicode="ě" horiz-adv-x="562" d="M517 246h-410q0 -58 23 -102.5t62.5 -69t90.5 -24.5q65 0 107.5 29t53.5 82l60 -12q-17 -75 -75 -116t-145 -41q-70 0 -125 33.5t-85.5 93t-30.5 133.5t30.5 133.5t85.5 93t125 33.5q68 0 121.5 -30t83.5 -83t30 -120q0 -19 -2 -33zM454 304q-8 67 -53 108.5t-117 41.5 q-67 0 -112.5 -40t-59.5 -110h342zM303 560h-47l-118 148h55l87 -96l85 96h56z"/>
    <glyph glyph-name="Gcircumflex" unicode="Ĝ" horiz-adv-x="737" d="M213 33q-76 41 -122.5 121.5t-46.5 195.5t46.5 195.5t122.5 121.5t164 41q111 0 190 -58.5t100 -155.5l-66 -15q-16 79 -75 123t-149 44q-77 0 -136 -34.5t-92.5 -101t-33.5 -160.5t33.5 -160.5t92.5 -101t136 -34.5q71 0 123.5 30t81.5 84t29 124h-264v62h328v-354h-60 v121q-25 -59 -90.5 -94t-146.5 -35q-89 0 -165 41zM222 756l118 148h47l118 -148h-56l-85 96l-87 -96h-55z"/>
    <glyph glyph-name="gcircumflex" unicode="ĝ" horiz-adv-x="594" d="M459 504h62v-485q0 -61 -29 -108.5t-80.5 -74t-117.5 -26.5q-88 0 -148.5 42t-70.5 109l63 11q3 -46 47 -75.5t109 -29.5q72 0 118.5 40.5t46.5 105.5v78q-17 -35 -65.5 -57t-107.5 -22q-77 0 -132 33t-83 89.5t-28 127.5t28 127.5t82.5 89.5t131.5 33q52 0 101 -24 t73 -61v77zM416.5 122.5q48.5 52.5 48.5 139.5t-48.5 139.5t-128.5 52.5q-81 0 -129.5 -52.5t-48.5 -139.5t48.5 -139.5t129.5 -52.5q80 0 128.5 52.5zM145 560l118 148h47l118 -148h-56l-85 96l-87 -96h-55z"/>
    <glyph glyph-name="Gbreve" unicode="Ğ" horiz-adv-x="737" d="M213 33q-76 41 -122.5 121.5t-46.5 195.5t46.5 195.5t122.5 121.5t164 41q111 0 190 -58.5t100 -155.5l-66 -15q-16 79 -75 123t-149 44q-77 0 -136 -34.5t-92.5 -101t-33.5 -160.5t33.5 -160.5t92.5 -101t136 -34.5q71 0 123.5 30t81.5 84t29 124h-264v62h328v-354h-60 v121q-25 -59 -90.5 -94t-146.5 -35q-89 0 -165 41zM276 788q-35 35 -35 88h55q0 -30 19.5 -50.5t48.5 -20.5t49 20.5t20 50.5h55q0 -53 -35.5 -88t-88.5 -35t-88 35z"/>
    <glyph glyph-name="gbreve" unicode="ğ" horiz-adv-x="594" d="M459 504h62v-485q0 -61 -29 -108.5t-80.5 -74t-117.5 -26.5q-88 0 -148.5 42t-70.5 109l63 11q3 -46 47 -75.5t109 -29.5q72 0 118.5 40.5t46.5 105.5v78q-17 -35 -65.5 -57t-107.5 -22q-77 0 -132 33t-83 89.5t-28 127.5t28 127.5t82.5 89.5t131.5 33q52 0 101 -24 t73 -61v77zM416.5 122.5q48.5 52.5 48.5 139.5t-48.5 139.5t-128.5 52.5q-81 0 -129.5 -52.5t-48.5 -139.5t48.5 -139.5t129.5 -52.5q80 0 128.5 52.5zM199 592q-35 35 -35 88h55q0 -30 19.5 -50.5t48.5 -20.5t49 20.5t20 50.5h55q0 -53 -35.5 -88t-88.5 -35t-88 35z"/>
    <glyph glyph-name="Gdotaccent" unicode="Ġ" horiz-adv-x="737" d="M213 33q-76 41 -122.5 121.5t-46.5 195.5t46.5 195.5t122.5 121.5t164 41q111 0 190 -58.5t100 -155.5l-66 -15q-16 79 -75 123t-149 44q-77 0 -136 -34.5t-92.5 -101t-33.5 -160.5t33.5 -160.5t92.5 -101t136 -34.5q71 0 123.5 30t81.5 84t29 124h-264v62h328v-354h-60 v121q-25 -59 -90.5 -94t-146.5 -35q-89 0 -165 41zM329 819q-14 14 -14 35q0 22 14 36t35 14q22 0 36.5 -14t14.5 -36q0 -21 -14.5 -35t-36.5 -14q-21 0 -35 14z"/>
    <glyph glyph-name="gdotaccent" unicode="ġ" horiz-adv-x="594" d="M459 504h62v-485q0 -61 -29 -108.5t-80.5 -74t-117.5 -26.5q-88 0 -148.5 42t-70.5 109l63 11q3 -46 47 -75.5t109 -29.5q72 0 118.5 40.5t46.5 105.5v78q-17 -35 -65.5 -57t-107.5 -22q-77 0 -132 33t-83 89.5t-28 127.5t28 127.5t82.5 89.5t131.5 33q52 0 101 -24 t73 -61v77zM416.5 122.5q48.5 52.5 48.5 139.5t-48.5 139.5t-128.5 52.5q-81 0 -129.5 -52.5t-48.5 -139.5t48.5 -139.5t129.5 -52.5q80 0 128.5 52.5zM252 623q-14 14 -14 35q0 22 14 36t35 14q22 0 36.5 -14t14.5 -36q0 -21 -14.5 -35t-36.5 -14q-21 0 -35 14z"/>
    <glyph glyph-name="uni0122" unicode="Ģ" horiz-adv-x="737" d="M213 33q-76 41 -122.5 121.5t-46.5 195.5t46.5 195.5t122.5 121.5t164 41q111 0 190 -58.5t100 -155.5l-66 -15q-16 79 -75 123t-149 44q-77 0 -136 -34.5t-92.5 -101t-33.5 -160.5t33.5 -160.5t92.5 -101t136 -34.5q71 0 123.5 30t81.5 84t29 124h-264v62h328v-354h-60 v121q-25 -59 -90.5 -94t-146.5 -35q-89 0 -165 41zM325 -190h-47l47 148h76z"/>
    <glyph glyph-name="uni0123" unicode="ģ" horiz-adv-x="594" d="M459 504h62v-485q0 -61 -29 -108.5t-80.5 -74t-117.5 -26.5q-88 0 -148.5 42t-70.5 109l63 11q3 -46 47 -75.5t109 -29.5q72 0 118.5 40.5t46.5 105.5v78q-17 -35 -65.5 -57t-107.5 -22q-77 0 -132 33t-83 89.5t-28 127.5t28 127.5t82.5 89.5t131.5 33q52 0 101 -24 t73 -61v77zM416.5 122.5q48.5 52.5 48.5 139.5t-48.5 139.5t-128.5 52.5q-81 0 -129.5 -52.5t-48.5 -139.5t48.5 -139.5t129.5 -52.5q80 0 128.5 52.5zM320 708h47l-30 -148h-75z"/>
    <glyph glyph-name="Hcircumflex" unicode="Ĥ" horiz-adv-x="680" d="M537 403v297h67v-700h-67v341h-394v-341h-67v700h67v-297h394zM198 756l118 148h47l118 -148h-56l-85 96l-87 -96h-55z"/>
    <glyph glyph-name="hcircumflex" unicode="ĥ" horiz-adv-x="577" d="M73 0v708h63v-314q29 59 75 88.5t104 29.5q86 0 137.5 -48.5t51.5 -129.5v-334h-63v326q0 60 -35.5 94t-99.5 34q-51 0 -89.5 -29.5t-59.5 -83.5t-21 -126v-215h-63zM-39 756l118 148h47l118 -148h-56l-85 96l-87 -96h-55z"/>
    <glyph glyph-name="Hbar" unicode="Ħ" horiz-adv-x="680" d="M604 580h71v-58h-71v-522h-67v341h-394v-341h-67v522h-72v58h72v120h67v-120h394v120h67v-120zM143 403h394v119h-394v-119z"/>
    <glyph glyph-name="hbar" unicode="ħ" horiz-adv-x="577" d="M452.5 463.5q51.5 -48.5 51.5 -129.5v-334h-63v326q0 60 -35.5 94t-99.5 34q-51 0 -89.5 -29.5t-59.5 -83.5t-21 -126v-215h-63v577h-88v52h88v79h63v-79h141v-52h-141v-183q29 59 75 88.5t104 29.5q86 0 137.5 -48.5z"/>
    <glyph glyph-name="Itilde" unicode="Ĩ" horiz-adv-x="219" d="M143 0h-67v700h67v-700zM-51 797q1 41 27.5 66.5t68.5 25.5q36 0 70 -27q21 -15 35 -22t32 -7q20 0 33 12.5t15 36.5l48 -9q-2 -41 -28.5 -66t-67.5 -25q-19 0 -35.5 7t-35.5 19q-5 3 -18 12.5t-24.5 14t-23.5 4.5q-21 0 -34 -13t-15 -37z"/>
    <glyph glyph-name="itilde" unicode="ĩ" horiz-adv-x="209" d="M136 0h-63v504h63v-504zM-56 601q1 41 27.5 66.5t68.5 25.5q36 0 70 -27q21 -15 35 -22t32 -7q20 0 33 12.5t15 36.5l48 -9q-2 -41 -28.5 -66t-67.5 -25q-19 0 -35.5 7t-35.5 19q-5 3 -18 12.5t-24.5 14t-23.5 4.5q-21 0 -34 -13t-15 -37z"/>
    <glyph glyph-name="Imacron" unicode="Ī" horiz-adv-x="219" d="M143 0h-67v700h67v-700zM239 790h-261v56h261v-56z"/>
    <glyph glyph-name="imacron" unicode="ī" horiz-adv-x="209" d="M136 0h-63v504h63v-504zM234 594h-261v56h261v-56z"/>
    <glyph glyph-name="Ibreve" unicode="Ĭ" horiz-adv-x="219" d="M143 0h-67v700h67v-700zM21 788q-35 35 -35 88h55q0 -30 19.5 -50.5t48.5 -20.5t49 20.5t20 50.5h55q0 -53 -35.5 -88t-88.5 -35t-88 35z"/>
    <glyph glyph-name="ibreve" unicode="ĭ" horiz-adv-x="209" d="M136 0h-63v504h63v-504zM16 592q-35 35 -35 88h55q0 -30 19.5 -50.5t48.5 -20.5t49 20.5t20 50.5h55q0 -53 -35.5 -88t-88.5 -35t-88 35z"/>
    <glyph glyph-name="Iogonek" unicode="Į" horiz-adv-x="219" d="M183 -186q-24 -4 -46 -4q-49 0 -79 27t-30 70q0 21 14.5 49.5t33.5 46.5v697h67v-700q-22 -22 -35 -45t-13 -39q0 -19 12.5 -31t32.5 -12q23 0 33 2z"/>
    <glyph glyph-name="iogonek" unicode="į" horiz-adv-x="209" d="M69 623q-14 14 -14 35q0 22 14 36t35 14q22 0 36.5 -14t14.5 -36q0 -21 -14.5 -35t-36.5 -14q-21 0 -35 14zM176 -186q-24 -4 -46 -4q-49 0 -79 27t-30 70q0 23 15.5 52.5t36.5 47.5v497h63v-504q-22 -22 -35 -45t-13 -39q0 -19 12.5 -31t32.5 -12q23 0 33 2z"/>
    <glyph glyph-name="Idotaccent" unicode="İ" horiz-adv-x="219" d="M143 0h-67v700h67v-700zM74 819q-14 14 -14 35q0 22 14 36t35 14q22 0 36.5 -14t14.5 -36q0 -21 -14.5 -35t-36.5 -14q-21 0 -35 14z"/>
    <glyph glyph-name="dotlessi" unicode="ı" horiz-adv-x="209" d="M136 0h-63v504h63v-504z"/>
    <glyph glyph-name="IJ" unicode="Ĳ" horiz-adv-x="546" d="M143 0h-67v700h67v-700zM244 63q23 -9 55 -9q54 0 78.5 30t24.5 104v512h68v-505q0 -101 -46 -151t-125 -50q-31 0 -55 8v61z"/>
    <glyph glyph-name="Jcircumflex" unicode="Ĵ" horiz-adv-x="327" d="M25 63q23 -9 55 -9q54 0 78.5 30t24.5 104v512h68v-505q0 -101 -46 -151t-125 -50q-31 0 -55 8v61zM75 756l118 148h47l118 -148h-56l-85 96l-87 -96h-55z"/>
    <glyph glyph-name="jcircumflex" unicode="ĵ" horiz-adv-x="209" d="M-8 -189l-2 57h10q73 0 73 94v542h63v-549q0 -63 -36 -104t-94 -41zM-38 560l118 148h47l118 -148h-56l-85 96l-87 -96h-55z"/>
    <glyph glyph-name="uni0136" unicode="Ķ" horiz-adv-x="605" d="M595 0h-78l-271 376l-103 -104v-272h-67v700h67v-338l330 338h91l-272 -276zM246 -190h-47l47 148h76z"/>
    <glyph glyph-name="uni0137" unicode="ķ" horiz-adv-x="514" d="M499 0h-82l-209 262l-71 -64v-198h-64v708h64v-424l256 220h88l-223 -198zM200 -190h-47l47 148h76z"/>
    <glyph glyph-name="kgreenlandic" unicode="ĸ" horiz-adv-x="514" d="M499 0h-82l-210 264l-70 -62v-202h-64v504h64v-223l260 223h81l-222 -196z"/>
    <glyph glyph-name="Lacute" unicode="Ĺ" horiz-adv-x="517" d="M502 0h-426v700h67v-638h359v-62zM125 756h-47l77 148h85z"/>
    <glyph glyph-name="lacute" unicode="ĺ" horiz-adv-x="209" d="M136 0h-63v708h63v-708zM117 756h-47l77 148h85z"/>
    <glyph glyph-name="uni013B" unicode="Ļ" horiz-adv-x="517" d="M502 0h-426v700h67v-638h359v-62zM287 -190h-47l47 148h76z"/>
    <glyph glyph-name="uni013C" unicode="ļ" horiz-adv-x="209" d="M136 0h-63v708h63v-708zM62 -190h-47l47 148h76z"/>
    <glyph glyph-name="Lcaron" unicode="Ľ" horiz-adv-x="517" d="M502 0h-426v700h67v-638h359v-62zM238 560h-40l33 168h70z"/>
    <glyph glyph-name="lcaron" unicode="ľ" horiz-adv-x="268" d="M136 0h-63v708h63v-708zM225 560h-40l33 168h70z"/>
    <glyph glyph-name="Ldot" unicode="Ŀ" horiz-adv-x="517" d="M502 0h-426v700h67v-638h359v-62zM307.5 313q-14.5 14 -14.5 37q0 22 14.5 36.5t37.5 14.5q22 0 36.5 -14.5t14.5 -36.5t-14.5 -36.5t-36.5 -14.5q-23 0 -37.5 14z"/>
    <glyph glyph-name="ldot" unicode="ŀ" horiz-adv-x="356" d="M136 0h-63v708h63v-708zM194.5 307q-14.5 14 -14.5 37q0 22 14.5 36.5t37.5 14.5q22 0 36.5 -14.5t14.5 -36.5t-14.5 -36.5t-36.5 -14.5q-23 0 -37.5 14z"/>
    <glyph glyph-name="Lslash" unicode="Ł" horiz-adv-x="517" d="M143 312v-250h359v-62h-426v280l-88 -41v62l88 41v358h67v-327l189 88v-61z"/>
    <glyph glyph-name="lslash" unicode="ł" horiz-adv-x="271" d="M167 416l89 42v-62l-89 -42v-354h-63v325l-89 -42v62l89 42v321h63v-292z"/>
    <glyph glyph-name="Nacute" unicode="Ń" horiz-adv-x="684" d="M144 0h-68v700h81l383 -595v595h68v-700h-81l-383 593v-593zM359 756h-47l77 148h85z"/>
    <glyph glyph-name="nacute" unicode="ń" horiz-adv-x="567" d="M73 0v504h63v-105q29 52 75.5 82.5t104.5 30.5q51 0 91.5 -22t63.5 -62t23 -92v-336h-63v328q0 56 -33.5 91t-90.5 35q-51 0 -89.5 -28.5t-60 -81t-21.5 -123.5v-221h-63zM297 560h-47l77 148h85z"/>
    <glyph glyph-name="uni0145" unicode="Ņ" horiz-adv-x="684" d="M144 0h-68v700h81l383 -595v595h68v-700h-81l-383 593v-593zM304 -190h-47l47 148h76z"/>
    <glyph glyph-name="uni0146" unicode="ņ" horiz-adv-x="567" d="M73 0v504h63v-105q29 52 75.5 82.5t104.5 30.5q51 0 91.5 -22t63.5 -62t23 -92v-336h-63v328q0 56 -33.5 91t-90.5 35q-51 0 -89.5 -28.5t-60 -81t-21.5 -123.5v-221h-63zM242 -190h-47l47 148h76z"/>
    <glyph glyph-name="Ncaron" unicode="Ň" horiz-adv-x="684" d="M144 0h-68v700h81l383 -595v595h68v-700h-81l-383 593v-593zM366 756h-47l-118 148h55l87 -96l85 96h56z"/>
    <glyph glyph-name="ncaron" unicode="ň" horiz-adv-x="567" d="M73 0v504h63v-105q29 52 75.5 82.5t104.5 30.5q51 0 91.5 -22t63.5 -62t23 -92v-336h-63v328q0 56 -33.5 91t-90.5 35q-51 0 -89.5 -28.5t-60 -81t-21.5 -123.5v-221h-63zM304 560h-47l-118 148h55l87 -96l85 96h56z"/>
    <glyph glyph-name="napostrophe" unicode="ŉ" horiz-adv-x="570" d="M113 560h-40l33 168h70zM76 0v504h63v-105q29 52 75.5 82.5t104.5 30.5q51 0 91.5 -22t63.5 -62t23 -92v-336h-63v328q0 56 -33.5 91t-90.5 35q-51 0 -89.5 -28.5t-60 -81t-21.5 -123.5v-221h-63z"/>
    <glyph glyph-name="Eng" unicode="Ŋ" horiz-adv-x="684" d="M540 700h68v-764q0 -68 -40.5 -109.5t-105.5 -34.5v60q79 -6 79 93v38l-397 610v-593h-68v700h81l383 -595v595z"/>
    <glyph glyph-name="eng" unicode="ŋ" horiz-adv-x="567" d="M407.5 490q40.5 -22 63.5 -62t23 -92v-381q0 -63 -36 -104t-94 -41q-10 0 -16 1l-3 60h13q37 1 55 25t18 68v364q0 56 -33.5 91t-90.5 35q-51 0 -89.5 -28.5t-60 -81t-21.5 -123.5v-221h-63v504h63v-105q29 52 75.5 82.5t104.5 30.5q51 0 91.5 -22z"/>
    <glyph glyph-name="Omacron" unicode="Ō" horiz-adv-x="767" d="M208.5 38q-77.5 46 -121 127.5t-43.5 184.5t43.5 184.5t121 127.5t174.5 46t174.5 -46t121.5 -127.5t44 -184.5t-44 -184.5t-121.5 -127.5t-174.5 -46t-174.5 46zM522.5 92q61.5 38 96 105.5t34.5 152.5t-34.5 152.5t-96 105.5t-139.5 38q-77 0 -138.5 -38t-96 -105.5 t-34.5 -152.5t34.5 -152.5t96 -105.5t138.5 -38q78 0 139.5 38zM513 790h-261v56h261v-56z"/>
    <glyph glyph-name="omacron" unicode="ō" horiz-adv-x="592" d="M165.5 25q-57.5 33 -90 92.5t-32.5 134.5t32.5 134.5t90 92.5t130.5 33t130.5 -33.5t90 -92.5t32.5 -134t-32.5 -134t-90 -92.5t-130.5 -33.5t-130.5 33zM393.5 76q42.5 26 66 72t23.5 104t-23.5 104t-66 72t-97.5 26t-97.5 -26t-66 -71.5t-23.5 -104.5t23.5 -104.5 t66 -71.5t97.5 -26t97.5 26zM426 594h-261v56h261v-56z"/>
    <glyph glyph-name="Obreve" unicode="Ŏ" horiz-adv-x="767" d="M208.5 38q-77.5 46 -121 127.5t-43.5 184.5t43.5 184.5t121 127.5t174.5 46t174.5 -46t121.5 -127.5t44 -184.5t-44 -184.5t-121.5 -127.5t-174.5 -46t-174.5 46zM522.5 92q61.5 38 96 105.5t34.5 152.5t-34.5 152.5t-96 105.5t-139.5 38q-77 0 -138.5 -38t-96 -105.5 t-34.5 -152.5t34.5 -152.5t96 -105.5t138.5 -38q78 0 139.5 38zM295 788q-35 35 -35 88h55q0 -30 19.5 -50.5t48.5 -20.5t49 20.5t20 50.5h55q0 -53 -35.5 -88t-88.5 -35t-88 35z"/>
    <glyph glyph-name="obreve" unicode="ŏ" horiz-adv-x="592" d="M165.5 25q-57.5 33 -90 92.5t-32.5 134.5t32.5 134.5t90 92.5t130.5 33t130.5 -33.5t90 -92.5t32.5 -134t-32.5 -134t-90 -92.5t-130.5 -33.5t-130.5 33zM393.5 76q42.5 26 66 72t23.5 104t-23.5 104t-66 72t-97.5 26t-97.5 -26t-66 -71.5t-23.5 -104.5t23.5 -104.5 t66 -71.5t97.5 -26t97.5 26zM208 592q-35 35 -35 88h55q0 -30 19.5 -50.5t48.5 -20.5t49 20.5t20 50.5h55q0 -53 -35.5 -88t-88.5 -35t-88 35z"/>
    <glyph glyph-name="Ohungarumlaut" unicode="Ő" horiz-adv-x="767" d="M208.5 38q-77.5 46 -121 127.5t-43.5 184.5t43.5 184.5t121 127.5t174.5 46t174.5 -46t121.5 -127.5t44 -184.5t-44 -184.5t-121.5 -127.5t-174.5 -46t-174.5 46zM522.5 92q61.5 38 96 105.5t34.5 152.5t-34.5 152.5t-96 105.5t-139.5 38q-77 0 -138.5 -38t-96 -105.5 t-34.5 -152.5t34.5 -152.5t96 -105.5t138.5 -38q78 0 139.5 38zM338 756h-59l77 148h67zM460 756h-59l77 148h67z"/>
    <glyph glyph-name="ohungarumlaut" unicode="ő" horiz-adv-x="592" d="M165.5 25q-57.5 33 -90 92.5t-32.5 134.5t32.5 134.5t90 92.5t130.5 33t130.5 -33.5t90 -92.5t32.5 -134t-32.5 -134t-90 -92.5t-130.5 -33.5t-130.5 33zM393.5 76q42.5 26 66 72t23.5 104t-23.5 104t-66 72t-97.5 26t-97.5 -26t-66 -71.5t-23.5 -104.5t23.5 -104.5 t66 -71.5t97.5 -26t97.5 26zM251 560h-59l77 148h67zM373 560h-59l77 148h67z"/>
    <glyph glyph-name="OE" unicode="Œ" horiz-adv-x="1153" d="M736 62h371v-62h-438v148q-45 -73 -119.5 -114.5t-166.5 -41.5q-97 0 -174.5 46t-121 127.5t-43.5 184.5t43.5 184.5t121 127.5t174.5 46q92 0 166.5 -41.5t119.5 -114.5v148h427v-62h-360v-234h295v-62h-295v-280zM522.5 92q61.5 38 96 105.5t34.5 152.5t-34.5 152.5 t-96 105.5t-139.5 38q-77 0 -138.5 -38t-96 -105.5t-34.5 -152.5t34.5 -152.5t96 -105.5t138.5 -38q78 0 139.5 38z"/>
    <glyph glyph-name="oe" unicode="œ" horiz-adv-x="1007" d="M962 246h-410q0 -58 23 -102.5t62.5 -69t90.5 -24.5q65 0 107.5 29t53.5 82l60 -12q-17 -75 -75 -116t-145 -41q-71 0 -126 34t-85 94q-32 -60 -90 -94t-132 -34q-73 0 -130.5 33t-90 92.5t-32.5 134.5t32.5 134.5t90 92.5t130.5 33q74 0 132 -34t90 -94q30 60 85 94 t126 34q68 0 121.5 -30t83.5 -83t30 -120q0 -19 -2 -33zM393.5 76q42.5 26 66 72t23.5 104t-23.5 104t-66 72t-97.5 26t-97.5 -26t-66 -71.5t-23.5 -104.5t23.5 -104.5t66 -71.5t97.5 -26t97.5 26zM899 304q-8 67 -53 108.5t-117 41.5q-67 0 -112.5 -40t-59.5 -110h342z"/>
    <glyph glyph-name="Racute" unicode="Ŕ" horiz-adv-x="621" d="M606 0h-79l-203 326h-5h-176v-326h-67v700h243q98 0 157.5 -51t59.5 -136q0 -66 -37.5 -113t-103.5 -65zM143 638v-250h172q71 0 111 33t40 92t-40 92t-111 33h-172zM295 756h-47l77 148h85z"/>
    <glyph glyph-name="racute" unicode="ŕ" horiz-adv-x="371" d="M352 442q-30 12 -66 12q-43 0 -77 -29.5t-53.5 -88t-19.5 -141.5v-195h-63v504h63v-107q23 50 68 82.5t92 32.5q33 0 60 -9zM225 560h-47l77 148h85z"/>
    <glyph glyph-name="uni0156" unicode="Ŗ" horiz-adv-x="621" d="M606 0h-79l-203 326h-5h-176v-326h-67v700h243q98 0 157.5 -51t59.5 -136q0 -66 -37.5 -113t-103.5 -65zM143 638v-250h172q71 0 111 33t40 92t-40 92t-111 33h-172zM272 -190h-47l47 148h76z"/>
    <glyph glyph-name="uni0157" unicode="ŗ" horiz-adv-x="371" d="M352 442q-30 12 -66 12q-43 0 -77 -29.5t-53.5 -88t-19.5 -141.5v-195h-63v504h63v-107q23 50 68 82.5t92 32.5q33 0 60 -9zM66 -190h-47l47 148h76z"/>
    <glyph glyph-name="Rcaron" unicode="Ř" horiz-adv-x="621" d="M606 0h-79l-203 326h-5h-176v-326h-67v700h243q98 0 157.5 -51t59.5 -136q0 -66 -37.5 -113t-103.5 -65zM143 638v-250h172q71 0 111 33t40 92t-40 92t-111 33h-172zM302 756h-47l-118 148h55l87 -96l85 96h56z"/>
    <glyph glyph-name="rcaron" unicode="ř" horiz-adv-x="371" d="M352 442q-30 12 -66 12q-43 0 -77 -29.5t-53.5 -88t-19.5 -141.5v-195h-63v504h63v-107q23 50 68 82.5t92 32.5q33 0 60 -9zM232 560h-47l-118 148h55l87 -96l85 96h56z"/>
    <glyph glyph-name="Sacute" unicode="Ś" horiz-adv-x="583" d="M122.5 50q-72.5 58 -92.5 154l68 23q12 -78 66 -125.5t131 -47.5q81 0 129.5 35.5t48.5 94.5q0 46 -26 75t-63.5 44.5t-103.5 35.5q-72 21 -115.5 39.5t-73.5 55t-30 96.5q0 53 29 93.5t81.5 62.5t120.5 22q95 0 160 -47t77 -124l-61 -22q-11 61 -57.5 96t-118.5 35 q-76 0 -119.5 -31t-43.5 -85q0 -37 22.5 -60t56.5 -36t94 -30q77 -21 125 -42t82 -63.5t34 -114.5q0 -57 -30.5 -100.5t-87 -67.5t-130.5 -24q-100 0 -172.5 58zM307 756h-47l77 148h85z"/>
    <glyph glyph-name="sacute" unicode="ś" horiz-adv-x="463" d="M102.5 34.5q-51.5 42.5 -68.5 102.5l56 28q18 -54 53 -84.5t96 -30.5q50 0 82.5 26t32.5 62q0 32 -18 51.5t-44 29.5t-72 21q-53 13 -85.5 26t-55.5 41t-23 75q0 60 47.5 95t127.5 35q64 0 114 -34.5t65 -89.5l-55 -25q-10 40 -46 65.5t-82 25.5q-50 0 -78 -18.5 t-28 -53.5q0 -24 15.5 -38.5t38 -22.5t63.5 -18q58 -14 94 -29t61.5 -47.5t25.5 -87.5q0 -66 -49 -106.5t-131 -40.5q-85 0 -136.5 42.5zM243 560h-47l77 148h85z"/>
    <glyph glyph-name="Scircumflex" unicode="Ŝ" horiz-adv-x="583" d="M122.5 50q-72.5 58 -92.5 154l68 23q12 -78 66 -125.5t131 -47.5q81 0 129.5 35.5t48.5 94.5q0 46 -26 75t-63.5 44.5t-103.5 35.5q-72 21 -115.5 39.5t-73.5 55t-30 96.5q0 53 29 93.5t81.5 62.5t120.5 22q95 0 160 -47t77 -124l-61 -22q-11 61 -57.5 96t-118.5 35 q-76 0 -119.5 -31t-43.5 -85q0 -37 22.5 -60t56.5 -36t94 -30q77 -21 125 -42t82 -63.5t34 -114.5q0 -57 -30.5 -100.5t-87 -67.5t-130.5 -24q-100 0 -172.5 58zM149 756l118 148h47l118 -148h-56l-85 96l-87 -96h-55z"/>
    <glyph glyph-name="scircumflex" unicode="ŝ" horiz-adv-x="463" d="M102.5 34.5q-51.5 42.5 -68.5 102.5l56 28q18 -54 53 -84.5t96 -30.5q50 0 82.5 26t32.5 62q0 32 -18 51.5t-44 29.5t-72 21q-53 13 -85.5 26t-55.5 41t-23 75q0 60 47.5 95t127.5 35q64 0 114 -34.5t65 -89.5l-55 -25q-10 40 -46 65.5t-82 25.5q-50 0 -78 -18.5 t-28 -53.5q0 -24 15.5 -38.5t38 -22.5t63.5 -18q58 -14 94 -29t61.5 -47.5t25.5 -87.5q0 -66 -49 -106.5t-131 -40.5q-85 0 -136.5 42.5zM85 560l118 148h47l118 -148h-56l-85 96l-87 -96h-55z"/>
    <glyph glyph-name="Scedilla" unicode="Ş" horiz-adv-x="583" d="M482.5 50.5q-60.5 -51.5 -162.5 -57.5l-73 -140h-85l106 140q-90 8 -154.5 65t-83.5 146l68 23q12 -78 66 -125.5t131 -47.5q81 0 129.5 35.5t48.5 94.5q0 46 -26 75t-63.5 44.5t-103.5 35.5q-72 21 -115.5 39.5t-73.5 55t-30 96.5q0 53 29 93.5t81.5 62.5t120.5 22 q95 0 160 -47t77 -124l-61 -22q-11 61 -57.5 96t-118.5 35q-76 0 -119.5 -31t-43.5 -85q0 -37 22.5 -60t56.5 -36t94 -30q77 -21 125 -42t82 -63.5t34 -114.5q0 -82 -60.5 -133.5z"/>
    <glyph glyph-name="scedilla" unicode="ş" horiz-adv-x="463" d="M136.5 343.5q15.5 -14.5 38 -22.5t63.5 -18q58 -14 94 -29t61.5 -47.5t25.5 -87.5q0 -62 -44 -102t-118 -44l-73 -140h-85l107 141q-70 8 -113.5 49t-58.5 94l56 28q18 -54 53 -84.5t96 -30.5q50 0 82.5 26t32.5 62q0 32 -18 51.5t-44 29.5t-72 21q-53 13 -85.5 26 t-55.5 41t-23 75q0 60 47.5 95t127.5 35q64 0 114 -34.5t65 -89.5l-55 -25q-10 40 -46 65.5t-82 25.5q-50 0 -78 -18.5t-28 -53.5q0 -24 15.5 -38.5z"/>
    <glyph glyph-name="Scaron" unicode="Š" horiz-adv-x="583" d="M122.5 50q-72.5 58 -92.5 154l68 23q12 -78 66 -125.5t131 -47.5q81 0 129.5 35.5t48.5 94.5q0 46 -26 75t-63.5 44.5t-103.5 35.5q-72 21 -115.5 39.5t-73.5 55t-30 96.5q0 53 29 93.5t81.5 62.5t120.5 22q95 0 160 -47t77 -124l-61 -22q-11 61 -57.5 96t-118.5 35 q-76 0 -119.5 -31t-43.5 -85q0 -37 22.5 -60t56.5 -36t94 -30q77 -21 125 -42t82 -63.5t34 -114.5q0 -57 -30.5 -100.5t-87 -67.5t-130.5 -24q-100 0 -172.5 58zM314 756h-47l-118 148h55l87 -96l85 96h56z"/>
    <glyph glyph-name="scaron" unicode="š" horiz-adv-x="463" d="M102.5 34.5q-51.5 42.5 -68.5 102.5l56 28q18 -54 53 -84.5t96 -30.5q50 0 82.5 26t32.5 62q0 32 -18 51.5t-44 29.5t-72 21q-53 13 -85.5 26t-55.5 41t-23 75q0 60 47.5 95t127.5 35q64 0 114 -34.5t65 -89.5l-55 -25q-10 40 -46 65.5t-82 25.5q-50 0 -78 -18.5 t-28 -53.5q0 -24 15.5 -38.5t38 -22.5t63.5 -18q58 -14 94 -29t61.5 -47.5t25.5 -87.5q0 -66 -49 -106.5t-131 -40.5q-85 0 -136.5 42.5zM250 560h-47l-118 148h55l87 -96l85 96h56z"/>
    <glyph glyph-name="uni0162" unicode="Ţ" horiz-adv-x="564" d="M20 638v62h524v-62h-228v-638h-1l-76 -147h-85l112 147h-17v638h-229z"/>
    <glyph glyph-name="uni0163" unicode="ţ" horiz-adv-x="357" d="M324 3q-33 -11 -77 -11q-14 0 -20 1l-73 -140h-85l115 151q-34 16 -52.5 50.5t-18.5 88.5v303h-98v58h98v155h63v-155h139v-58h-139v-313q0 -41 21 -62t58 -21q38 0 65 14z"/>
    <glyph glyph-name="Tcaron" unicode="Ť" horiz-adv-x="564" d="M316 0h-67v638h-229v62h524v-62h-228v-638zM305 756h-47l-118 148h55l87 -96l85 96h56z"/>
    <glyph glyph-name="tcaron" unicode="ť" horiz-adv-x="357" d="M324 3q-33 -11 -77 -11q-62 0 -98 37.5t-36 113.5v303h-98v58h98v155h63v-155h139v-58h-139v-313q0 -41 21 -62t58 -21q38 0 65 14zM304 560h-40l33 168h70z"/>
    <glyph glyph-name="Tbar" unicode="Ŧ" horiz-adv-x="550" d="M544 700v-62h-228v-199h183v-58h-183v-381h-67v381h-197v58h197v199h-229v62h524z"/>
    <glyph glyph-name="tbar" unicode="ŧ" horiz-adv-x="357" d="M324 3q-33 -11 -77 -11q-62 0 -98 37.5t-36 113.5v83h-97v52h97v168h-98v58h98v155h63v-155h139v-58h-139v-168h132v-52h-132v-93q0 -41 21 -62t58 -21q38 0 65 14z"/>
    <glyph glyph-name="Utilde" unicode="Ũ" horiz-adv-x="672" d="M199 22q-59 30 -91 85t-32 128v465h68v-471q0 -79 52.5 -127t139.5 -48q88 0 140.5 47.5t52.5 127.5v471h67v-465q0 -73 -32 -128t-91 -85t-137 -30t-137 30zM176 797q1 41 27.5 66.5t68.5 25.5q36 0 70 -27q21 -15 35 -22t32 -7q20 0 33 12.5t15 36.5l48 -9 q-2 -41 -28.5 -66t-67.5 -25q-19 0 -35.5 7t-35.5 19q-5 3 -18 12.5t-24.5 14t-23.5 4.5q-21 0 -34 -13t-15 -37z"/>
    <glyph glyph-name="utilde" unicode="ũ" horiz-adv-x="567" d="M494 504v-504h-63v105q-29 -52 -75.5 -82.5t-104.5 -30.5q-51 0 -91.5 22t-63.5 62t-23 92v336h63v-328q0 -56 33.5 -91t90.5 -35q51 0 89.5 28.5t60 81t21.5 123.5v221h63zM122 601q1 41 27.5 66.5t68.5 25.5q36 0 70 -27q21 -15 35 -22t32 -7q20 0 33 12.5t15 36.5 l48 -9q-2 -41 -28.5 -66t-67.5 -25q-19 0 -35.5 7t-35.5 19q-5 3 -18 12.5t-24.5 14t-23.5 4.5q-21 0 -34 -13t-15 -37z"/>
    <glyph glyph-name="Umacron" unicode="Ū" horiz-adv-x="672" d="M199 22q-59 30 -91 85t-32 128v465h68v-471q0 -79 52.5 -127t139.5 -48q88 0 140.5 47.5t52.5 127.5v471h67v-465q0 -73 -32 -128t-91 -85t-137 -30t-137 30zM466 790h-261v56h261v-56z"/>
    <glyph glyph-name="umacron" unicode="ū" horiz-adv-x="567" d="M494 504v-504h-63v105q-29 -52 -75.5 -82.5t-104.5 -30.5q-51 0 -91.5 22t-63.5 62t-23 92v336h63v-328q0 -56 33.5 -91t90.5 -35q51 0 89.5 28.5t60 81t21.5 123.5v221h63zM412 594h-261v56h261v-56z"/>
    <glyph glyph-name="Ubreve" unicode="Ŭ" horiz-adv-x="672" d="M199 22q-59 30 -91 85t-32 128v465h68v-471q0 -79 52.5 -127t139.5 -48q88 0 140.5 47.5t52.5 127.5v471h67v-465q0 -73 -32 -128t-91 -85t-137 -30t-137 30zM248 788q-35 35 -35 88h55q0 -30 19.5 -50.5t48.5 -20.5t49 20.5t20 50.5h55q0 -53 -35.5 -88t-88.5 -35 t-88 35z"/>
    <glyph glyph-name="ubreve" unicode="ŭ" horiz-adv-x="567" d="M494 504v-504h-63v105q-29 -52 -75.5 -82.5t-104.5 -30.5q-51 0 -91.5 22t-63.5 62t-23 92v336h63v-328q0 -56 33.5 -91t90.5 -35q51 0 89.5 28.5t60 81t21.5 123.5v221h63zM194 592q-35 35 -35 88h55q0 -30 19.5 -50.5t48.5 -20.5t49 20.5t20 50.5h55q0 -53 -35.5 -88 t-88.5 -35t-88 35z"/>
    <glyph glyph-name="Uring" unicode="Ů" horiz-adv-x="672" d="M199 22q-59 30 -91 85t-32 128v465h68v-471q0 -79 52.5 -127t139.5 -48q88 0 140.5 47.5t52.5 127.5v471h67v-465q0 -73 -32 -128t-91 -85t-137 -30t-137 30zM261 769q-30 28 -30 70t30 70t75 28t75 -28t30 -70t-30 -70t-75 -28t-75 28zM377 799.5q16 15.5 16 39.5 t-16 39.5t-41 15.5q-24 0 -40 -15.5t-16 -39.5t16 -39.5t40 -15.5q25 0 41 15.5z"/>
    <glyph glyph-name="uring" unicode="ů" horiz-adv-x="567" d="M494 504v-504h-63v105q-29 -52 -75.5 -82.5t-104.5 -30.5q-51 0 -91.5 22t-63.5 62t-23 92v336h63v-328q0 -56 33.5 -91t90.5 -35q51 0 89.5 28.5t60 81t21.5 123.5v221h63zM207 573q-30 28 -30 70t30 70t75 28t75 -28t30 -70t-30 -70t-75 -28t-75 28zM323 603.5 q16 15.5 16 39.5t-16 39.5t-41 15.5q-24 0 -40 -15.5t-16 -39.5t16 -39.5t40 -15.5q25 0 41 15.5z"/>
    <glyph glyph-name="Uhungarumlaut" unicode="Ű" horiz-adv-x="672" d="M199 22q-59 30 -91 85t-32 128v465h68v-471q0 -79 52.5 -127t139.5 -48q88 0 140.5 47.5t52.5 127.5v471h67v-465q0 -73 -32 -128t-91 -85t-137 -30t-137 30zM291 756h-59l77 148h67zM413 756h-59l77 148h67z"/>
    <glyph glyph-name="uhungarumlaut" unicode="ű" horiz-adv-x="567" d="M494 504v-504h-63v105q-29 -52 -75.5 -82.5t-104.5 -30.5q-51 0 -91.5 22t-63.5 62t-23 92v336h63v-328q0 -56 33.5 -91t90.5 -35q51 0 89.5 28.5t60 81t21.5 123.5v221h63zM237 560h-59l77 148h67zM359 560h-59l77 148h67z"/>
    <glyph glyph-name="Uogonek" unicode="Ų" horiz-adv-x="672" d="M529 700h67v-465q0 -101 -60 -165.5t-162 -75.5q-19 -20 -30.5 -41.5t-11.5 -36.5q0 -19 12.5 -31t32.5 -12q23 0 33 2l10 -61q-24 -4 -46 -4q-49 0 -79 27t-30 70q0 19 11 43t28 43q-105 10 -166.5 75t-61.5 167v465h68v-471q0 -79 52.5 -127t139.5 -48q88 0 140.5 47.5 t52.5 127.5v471z"/>
    <glyph glyph-name="uogonek" unicode="ų" horiz-adv-x="567" d="M529 -186q-24 -4 -46 -4q-49 0 -79 27t-30 70q0 23 15.5 52.5t36.5 47.5l5 -1v99q-29 -52 -75.5 -82.5t-104.5 -30.5q-51 0 -91.5 22t-63.5 62t-23 92v336h63v-328q0 -56 33.5 -91t90.5 -35q51 0 89.5 28.5t60 81t21.5 123.5v221h63v-504h-5q-22 -22 -35 -45t-13 -39 q0 -19 12.5 -31t32.5 -12q23 0 33 2z"/>
    <glyph glyph-name="Wcircumflex" unicode="Ŵ" horiz-adv-x="979" d="M307 0h-69l-219 700h70l184 -626l186 626h63l184 -626l185 626h69l-217 -700h-70l-182 592zM349 756l118 148h47l118 -148h-56l-85 96l-87 -96h-55z"/>
    <glyph glyph-name="wcircumflex" unicode="ŵ" horiz-adv-x="751" d="M249 0h-66l-154 504h66l121 -416l128 416h63l127 -416l121 416h67l-154 -504h-67l-126 412zM233 560l118 148h47l118 -148h-56l-85 96l-87 -96h-55z"/>
    <glyph glyph-name="Ycircumflex" unicode="Ŷ" horiz-adv-x="578" d="M322 0h-67v294l-250 406h79l205 -341l204 341h80l-251 -406v-294zM147 756l118 148h47l118 -148h-56l-85 96l-87 -96h-55z"/>
    <glyph glyph-name="ycircumflex" unicode="ŷ" horiz-adv-x="486" d="M246 85l161 419h64l-264 -686h-64l70 182l-198 504h68zM101 560l118 148h47l118 -148h-56l-85 96l-87 -96h-55z"/>
    <glyph glyph-name="Ydieresis" unicode="Ÿ" horiz-adv-x="578" d="M322 0h-67v294l-250 406h79l205 -341l204 341h80l-251 -406v-294zM168 819q-14 14 -14 35q0 22 14 36t35 14q22 0 36.5 -14t14.5 -36q0 -21 -14.5 -35t-36.5 -14q-21 0 -35 14zM337 819q-14 14 -14 35q0 22 14 36t35 14q22 0 36.5 -14t14.5 -36q0 -21 -14.5 -35 t-36.5 -14q-21 0 -35 14z"/>
    <glyph glyph-name="Zacute" unicode="Ź" horiz-adv-x="587" d="M547 0h-522v62l443 576h-419v62h498v-62l-435 -576h435v-62zM300 756h-47l77 148h85z"/>
    <glyph glyph-name="zacute" unicode="ź" horiz-adv-x="487" d="M449 0h-414v48l330 398h-313v58h397v-48l-327 -398h327v-58zM265 560h-47l77 148h85z"/>
    <glyph glyph-name="Zdotaccent" unicode="Ż" horiz-adv-x="587" d="M547 0h-522v62l443 576h-419v62h498v-62l-435 -576h435v-62zM249 819q-14 14 -14 35q0 22 14 36t35 14q22 0 36.5 -14t14.5 -36q0 -21 -14.5 -35t-36.5 -14q-21 0 -35 14z"/>
    <glyph glyph-name="zdotaccent" unicode="ż" horiz-adv-x="487" d="M449 0h-414v48l330 398h-313v58h397v-48l-327 -398h327v-58zM214 623q-14 14 -14 35q0 22 14 36t35 14q22 0 36.5 -14t14.5 -36q0 -21 -14.5 -35t-36.5 -14q-21 0 -35 14z"/>
    <glyph glyph-name="Zcaron" unicode="Ž" horiz-adv-x="587" d="M547 0h-522v62l443 576h-419v62h498v-62l-435 -576h435v-62zM307 756h-47l-118 148h55l87 -96l85 96h56z"/>
    <glyph glyph-name="zcaron" unicode="ž" horiz-adv-x="487" d="M449 0h-414v48l330 398h-313v58h397v-48l-327 -398h327v-58zM272 560h-47l-118 148h55l87 -96l85 96h56z"/>
    <glyph glyph-name="longs" unicode="ſ" horiz-adv-x="358" d="M126 0v446h-88v58h88v52q0 78 37 120.5t97 42.5q36 0 64 -7l-2 -60q-23 9 -54 9q-35 0 -57 -26t-22 -69v-566h-63z"/>
    <glyph glyph-name="florin" unicode="ƒ" horiz-adv-x="466" d="M287 504h144v-58h-153l-46 -291q-27 -163 -134 -163q-36 0 -64 7l2 60q23 -9 54 -9q34 0 52.5 22.5t26.5 72.5l48 301h-111v58h120l8 52q27 163 134 163q36 0 64 -7l-2 -60q-23 9 -54 9q-34 0 -52.5 -22.5t-26.5 -72.5z"/>
    <glyph glyph-name="Aringacute" unicode="Ǻ" horiz-adv-x="643" d="M247 769q-30 28 -30 70q0 35 21.5 61t55.5 34l74 142h85l-109 -141q36 -7 59.5 -33.5t23.5 -62.5q0 -42 -30 -70t-75 -28t-75 28zM282 878.5q-16 -15.5 -16 -39.5t16 -39.5t40 -15.5q25 0 41 15.5t16 39.5t-16 39.5t-41 15.5q-24 0 -40 -15.5zM633 0h-70l-75 191h-333 l-76 -191h-69l282 700h59zM322 611l-142 -358h283z"/>
    <glyph glyph-name="aringacute" unicode="ǻ" d="M184 573q-30 28 -30 70t30 70t75 28h5l77 147h85l-115 -148h-36q39 -5 64 -32t25 -65q0 -42 -30 -70t-75 -28t-75 28zM219 682.5q-16 -15.5 -16 -39.5t16 -39.5t40 -15.5q25 0 41 15.5t16 39.5t-16 39.5t-41 15.5q-24 0 -40 -15.5zM361 489.5q45 -22.5 70.5 -63.5 t25.5 -94v-332h-63v92q-23 -46 -71 -73t-107 -27q-76 0 -123.5 41t-47.5 107q0 72 61 112.5t187 53.5l101 10v14q0 57 -37.5 90.5t-98.5 33.5q-58 0 -95 -32t-44 -87l-61 12q11 74 66 119.5t134 45.5q58 0 103 -22.5zM348.5 98q45.5 48 45.5 135v30l-99 -10 q-184 -20 -184 -113q0 -40 31 -65t79 -25q82 0 127.5 48z"/>
    <glyph glyph-name="AEacute" unicode="Ǽ" horiz-adv-x="939" d="M522 342v-280h371v-62h-438v199h-258l-116 -199h-73l417 700h457v-62h-360v-234h295v-62h-295zM455 640l-222 -379h222v379zM523 756h-47l77 148h85z"/>
    <glyph glyph-name="aeacute" unicode="ǽ" horiz-adv-x="921" d="M876 246h-410q0 -58 23 -102.5t62.5 -69t90.5 -24.5q65 0 107.5 29t53.5 82l60 -12q-17 -75 -75 -116t-145 -41q-71 0 -126 34t-86 94q-26 -60 -80.5 -94t-130.5 -34q-78 0 -126.5 41t-48.5 107q0 75 64.5 118.5t189.5 43.5h103v28q0 57 -38.5 90.5t-101.5 33.5 q-57 0 -95.5 -31t-42.5 -76l-62 12q6 43 34 78t71.5 55t94.5 20q65 0 113.5 -27t71.5 -74q32 47 82.5 74t113.5 27q68 0 121.5 -30t83.5 -83t30 -120q0 -19 -2 -33zM813 304q-8 67 -53 108.5t-117 41.5q-67 0 -112.5 -40t-59.5 -110h342zM355 98q47 48 47 135v16h-101 q-91 0 -140 -30t-49 -79q0 -40 31.5 -65t81.5 -25q83 0 130 48zM479 560h-47l77 148h85z"/>
    <glyph glyph-name="uni0218" unicode="Ș" horiz-adv-x="583" d="M122.5 50q-72.5 58 -92.5 154l68 23q12 -78 66 -125.5t131 -47.5q81 0 129.5 35.5t48.5 94.5q0 46 -26 75t-63.5 44.5t-103.5 35.5q-72 21 -115.5 39.5t-73.5 55t-30 96.5q0 53 29 93.5t81.5 62.5t120.5 22q95 0 160 -47t77 -124l-61 -22q-11 61 -57.5 96t-118.5 35 q-76 0 -119.5 -31t-43.5 -85q0 -37 22.5 -60t56.5 -36t94 -30q77 -21 125 -42t82 -63.5t34 -114.5q0 -57 -30.5 -100.5t-87 -67.5t-130.5 -24q-100 0 -172.5 58zM251 -190h-47l47 148h76z"/>
    <glyph glyph-name="uni0219" unicode="ș" horiz-adv-x="463" d="M102.5 34.5q-51.5 42.5 -68.5 102.5l56 28q18 -54 53 -84.5t96 -30.5q50 0 82.5 26t32.5 62q0 32 -18 51.5t-44 29.5t-72 21q-53 13 -85.5 26t-55.5 41t-23 75q0 60 47.5 95t127.5 35q64 0 114 -34.5t65 -89.5l-55 -25q-10 40 -46 65.5t-82 25.5q-50 0 -78 -18.5 t-28 -53.5q0 -24 15.5 -38.5t38 -22.5t63.5 -18q58 -14 94 -29t61.5 -47.5t25.5 -87.5q0 -66 -49 -106.5t-131 -40.5q-85 0 -136.5 42.5zM188 -190h-47l47 148h76z"/>
    <glyph glyph-name="uni021A" unicode="Ț" horiz-adv-x="564" d="M316 0h-67v638h-229v62h524v-62h-228v-638zM243 -190h-47l47 148h76z"/>
    <glyph glyph-name="uni021B" unicode="ț" horiz-adv-x="357" d="M324 3q-33 -11 -77 -11q-62 0 -98 37.5t-36 113.5v303h-98v58h98v155h63v-155h139v-58h-139v-313q0 -41 21 -62t58 -21q38 0 65 14zM158 -190h-47l47 148h76z"/>
    <glyph glyph-name="uni0237" unicode="ȷ" horiz-adv-x="209" d="M-8 -189l-2 57h10q73 0 73 94v542h63v-549q0 -63 -36 -104t-94 -41z"/>
    <glyph glyph-name="uni02BC" unicode="ʼ" horiz-adv-x="203" d="M90 560h-40l33 168h70z"/>
    <glyph glyph-name="circumflex" unicode="ˆ" horiz-adv-x="383" d="M50 560l118 148h47l118 -148h-56l-85 96l-87 -96h-55z"/>
    <glyph glyph-name="caron" unicode="ˇ" horiz-adv-x="383" d="M215 560h-47l-118 148h55l87 -96l85 96h56z"/>
    <glyph glyph-name="breve" unicode="˘" horiz-adv-x="347" d="M85 592q-35 35 -35 88h55q0 -30 19.5 -50.5t48.5 -20.5t49 20.5t20 50.5h55q0 -53 -35.5 -88t-88.5 -35t-88 35z"/>
    <glyph glyph-name="dotaccent" unicode="˙" horiz-adv-x="200" d="M64 623q-14 14 -14 35q0 22 14 36t35 14q22 0 36.5 -14t14.5 -36q0 -21 -14.5 -35t-36.5 -14q-21 0 -35 14z"/>
    <glyph glyph-name="ring" unicode="˚" horiz-adv-x="310" d="M80 573q-30 28 -30 70t30 70t75 28t75 -28t30 -70t-30 -70t-75 -28t-75 28zM196 603.5q16 15.5 16 39.5t-16 39.5t-41 15.5q-24 0 -40 -15.5t-16 -39.5t16 -39.5t40 -15.5q25 0 41 15.5z"/>
    <glyph glyph-name="ogonek" unicode="˛" horiz-adv-x="255" d="M80 -163q-30 27 -30 70q0 23 15.5 52.5t36.5 47.5l63 -7q-22 -22 -35 -45t-13 -39q0 -19 12.5 -31t32.5 -12q23 0 33 2l10 -61q-24 -4 -46 -4q-49 0 -79 27z"/>
    <glyph glyph-name="tilde" unicode="˜" horiz-adv-x="429" d="M50 601q1 41 27.5 66.5t68.5 25.5q36 0 70 -27q21 -15 35 -22t32 -7q20 0 33 12.5t15 36.5l48 -9q-2 -41 -28.5 -66t-67.5 -25q-19 0 -35.5 7t-35.5 19q-5 3 -18 12.5t-24.5 14t-23.5 4.5q-21 0 -34 -13t-15 -37z"/>
    <glyph glyph-name="hungarumlaut" unicode="˝" horiz-adv-x="366" d="M109 560h-59l77 148h67zM231 560h-59l77 148h67z"/>
    <glyph glyph-name="gravecomb" unicode="̀" horiz-adv-x="0" d="M-156 708l77 -148h-47l-115 148h85z"/>
    <glyph glyph-name="acutecomb" unicode="́" horiz-adv-x="0" d="M-165 560h-47l77 148h85z"/>
    <glyph glyph-name="uni0302" unicode="̂" horiz-adv-x="0" d="M-333 560l118 148h47l118 -148h-56l-85 96l-87 -96h-55z"/>
    <glyph glyph-name="tildecomb" unicode="̃" horiz-adv-x="0" d="M-379 601q1 41 27.5 66.5t68.5 25.5q36 0 70 -27q21 -15 35 -22t32 -7q20 0 33 12.5t15 36.5l48 -9q-2 -41 -28.5 -66t-67.5 -25q-19 0 -35.5 7t-35.5 19q-5 3 -18 12.5t-24.5 14t-23.5 4.5q-21 0 -34 -13t-15 -37z"/>
    <glyph glyph-name="uni0304" unicode="̄" horiz-adv-x="0" d="M-50 594h-261v56h261v-56z"/>
    <glyph glyph-name="uni0306" unicode="̆" horiz-adv-x="0" d="M-262 592q-35 35 -35 88h55q0 -30 19.5 -50.5t48.5 -20.5t49 20.5t20 50.5h55q0 -53 -35.5 -88t-88.5 -35t-88 35z"/>
    <glyph glyph-name="uni0307" unicode="̇" horiz-adv-x="0" d="M-136 623q-14 14 -14 35q0 22 14 36t35 14q22 0 36.5 -14t14.5 -36q0 -21 -14.5 -35t-36.5 -14q-21 0 -35 14z"/>
    <glyph glyph-name="uni0308" unicode="̈" horiz-adv-x="0" d="M-305 623q-14 14 -14 35q0 22 14 36t35 14q22 0 36.5 -14t14.5 -36q0 -21 -14.5 -35t-36.5 -14q-21 0 -35 14zM-136 623q-14 14 -14 35q0 22 14 36t35 14q22 0 36.5 -14t14.5 -36q0 -21 -14.5 -35t-36.5 -14q-21 0 -35 14z"/>
    <glyph glyph-name="uni030A" unicode="̊" horiz-adv-x="0" d="M-230 573q-30 28 -30 70t30 70t75 28t75 -28t30 -70t-30 -70t-75 -28t-75 28zM-114 603.5q16 15.5 16 39.5t-16 39.5t-41 15.5q-24 0 -40 -15.5t-16 -39.5t16 -39.5t40 -15.5q25 0 41 15.5z"/>
    <glyph glyph-name="uni030B" unicode="̋" horiz-adv-x="0" d="M-257 560h-59l77 148h67zM-135 560h-59l77 148h67z"/>
    <glyph glyph-name="uni030C" unicode="̌" horiz-adv-x="0" d="M-168 560h-47l-118 148h55l87 -96l85 96h56z"/>
    <glyph glyph-name="uni0312" unicode="̒" horiz-adv-x="0" d="M-97 708h47l-30 -148h-75z"/>
    <glyph glyph-name="uni0326" unicode="̦" horiz-adv-x="0" d="M-126 -190h-47l47 148h76z"/>
    <glyph glyph-name="uni0327" unicode="̧" horiz-adv-x="0" d="M-80 27l30 -26l-77 -148h-85z"/>
    <glyph glyph-name="uni0328" unicode="̨" horiz-adv-x="0" d="M-175 -163q-30 27 -30 70q0 23 15.5 52.5t36.5 47.5l63 -7q-22 -22 -35 -45t-13 -39q0 -19 12.5 -31t32.5 -12q23 0 33 2l10 -61q-24 -4 -46 -4q-49 0 -79 27z"/>
    <glyph glyph-name="uni0335" unicode="̵" horiz-adv-x="0" d="M-50 580h-292v52h292v-52z"/>
    <glyph glyph-name="uni0336" unicode="̶" horiz-adv-x="0" d="M-50 526h-671v58h671v-58z"/>
    <glyph glyph-name="uni0394" unicode="Δ" horiz-adv-x="643" d="M292 700h59l282 -700h-623zM322 611l-218 -549h435z"/>
    <glyph glyph-name="uni03A9" unicode="Ω" horiz-adv-x="735" d="M644.5 196.5q-46.5 -84.5 -122.5 -134.5h154v-62h-233v62h1v14q84 45 132.5 124.5t48.5 172.5q0 78 -33.5 141.5t-92.5 99.5t-132 36t-131 -36t-91.5 -99.5t-33.5 -141.5q0 -92 48 -171.5t132 -125.5v-14h1v-62h-233v62h154q-76 50 -122.5 134.5t-46.5 176.5 q0 95 42 171.5t116 120t165 43.5t165 -43.5t116.5 -120t42.5 -171.5q0 -92 -46.5 -176.5z"/>
    <glyph glyph-name="uni03BC" unicode="μ" horiz-adv-x="562" d="M426 504h63v-504h-63v105q-29 -52 -75.5 -82.5t-104.5 -30.5q-68 0 -115 55v-237h-63v694h63v-328q0 -56 33.5 -91t90.5 -35q51 0 89.5 28.5t60 81t21.5 123.5v221z"/>
    <glyph glyph-name="pi" unicode="π" horiz-adv-x="607" d="M564 446h-100v-302q0 -94 73 -94h10l-2 -57l-14 -1q-58 0 -94 41t-36 104v309h-198v-446h-63v446h-97v58h521v-58z"/>
    <glyph glyph-name="uni0E3F" unicode="฿" horiz-adv-x="604" d="M526.5 319q33.5 -45 33.5 -117q0 -93 -58.5 -147.5t-164.5 -54.5h-16v-100h-67v100h-178v700h178v100h67v-100q99 -1 154 -48.5t55 -131.5q0 -46 -28 -83.5t-68 -53.5q59 -19 92.5 -64zM143 638v-234h176q68 0 104.5 29.5t36.5 87.5t-36 87.5t-104 29.5h-177zM322 62 q82 0 124.5 36t42.5 104t-42.5 104t-124.5 36h-179v-280h179z"/>
    <glyph glyph-name="Wgrave" unicode="Ẁ" horiz-adv-x="979" d="M307 0h-69l-219 700h70l184 -626l186 626h63l184 -626l185 626h69l-217 -700h-70l-182 592zM438 904l77 -148h-47l-115 148h85z"/>
    <glyph glyph-name="wgrave" unicode="ẁ" horiz-adv-x="751" d="M249 0h-66l-154 504h66l121 -416l128 416h63l127 -416l121 416h67l-154 -504h-67l-126 412zM322 708l77 -148h-47l-115 148h85z"/>
    <glyph glyph-name="Wacute" unicode="Ẃ" horiz-adv-x="979" d="M307 0h-69l-219 700h70l184 -626l186 626h63l184 -626l185 626h69l-217 -700h-70l-182 592zM507 756h-47l77 148h85z"/>
    <glyph glyph-name="wacute" unicode="ẃ" horiz-adv-x="751" d="M249 0h-66l-154 504h66l121 -416l128 416h63l127 -416l121 416h67l-154 -504h-67l-126 412zM391 560h-47l77 148h85z"/>
    <glyph glyph-name="Wdieresis" unicode="Ẅ" horiz-adv-x="979" d="M307 0h-69l-219 700h70l184 -626l186 626h63l184 -626l185 626h69l-217 -700h-70l-182 592zM370 819q-14 14 -14 35q0 22 14 36t35 14q22 0 36.5 -14t14.5 -36q0 -21 -14.5 -35t-36.5 -14q-21 0 -35 14zM539 819q-14 14 -14 35q0 22 14 36t35 14q22 0 36.5 -14t14.5 -36 q0 -21 -14.5 -35t-36.5 -14q-21 0 -35 14z"/>
    <glyph glyph-name="wdieresis" unicode="ẅ" horiz-adv-x="751" d="M249 0h-66l-154 504h66l121 -416l128 416h63l127 -416l121 416h67l-154 -504h-67l-126 412zM254 623q-14 14 -14 35q0 22 14 36t35 14q22 0 36.5 -14t14.5 -36q0 -21 -14.5 -35t-36.5 -14q-21 0 -35 14zM423 623q-14 14 -14 35q0 22 14 36t35 14q22 0 36.5 -14t14.5 -36 q0 -21 -14.5 -35t-36.5 -14q-21 0 -35 14z"/>
    <glyph glyph-name="uni1E9E" unicode="ẞ" horiz-adv-x="595" d="M444 661.5q58 -46.5 72 -121.5l-163 -156q90 -2 144 -53t54 -134q0 -54 -26.5 -99t-72 -71.5t-99.5 -26.5h-139v62h138q37 0 67.5 18.5t48.5 49.5t18 68q0 61 -38 97.5t-101 36.5h-70l-11 40l181 177q-13 44 -52 70.5t-91 26.5q-73 0 -117 -44t-44 -115v-487h-67v487 q0 66 28 116t80 77.5t120 27.5q82 0 140 -46.5z"/>
    <glyph glyph-name="Ygrave" unicode="Ỳ" horiz-adv-x="578" d="M322 0h-67v294l-250 406h79l205 -341l204 341h80l-251 -406v-294zM236 904l77 -148h-47l-115 148h85z"/>
    <glyph glyph-name="ygrave" unicode="ỳ" horiz-adv-x="486" d="M246 85l161 419h64l-264 -686h-64l70 182l-198 504h68zM190 708l77 -148h-47l-115 148h85z"/>
    <glyph glyph-name="endash" unicode="–" horiz-adv-x="500" d="M475 260h-450v56h450v-56z"/>
    <glyph glyph-name="emdash" unicode="—" horiz-adv-x="1000" d="M975 260h-950v56h950v-56z"/>
    <glyph glyph-name="quoteleft" unicode="‘" horiz-adv-x="208" d="M135 708h45l-50 -173h-90z"/>
    <glyph glyph-name="quoteright" unicode="’" horiz-adv-x="208" d="M73 535h-45l50 173h90z"/>
    <glyph glyph-name="quotesinglbase" unicode="‚" horiz-adv-x="208" d="M73 -84h-45l50 173h90z"/>
    <glyph glyph-name="quotedblleft" unicode="“" horiz-adv-x="333" d="M135 708h45l-50 -173h-90zM260 708h45l-50 -173h-90z"/>
    <glyph glyph-name="quotedblright" unicode="”" horiz-adv-x="333" d="M198 535h-45l50 173h90zM73 535h-45l50 173h90z"/>
    <glyph glyph-name="quotedblbase" unicode="„" horiz-adv-x="333" d="M198 -84h-45l50 173h90zM73 -84h-45l50 173h90z"/>
    <glyph glyph-name="dagger" unicode="†" horiz-adv-x="341" d="M201 215h-61v289h-127v56h127v140h61v-140h127v-56h-127v-289z"/>
    <glyph glyph-name="daggerdbl" unicode="‡" horiz-adv-x="341" d="M201 504v-308h127v-56h-127v-140h-61v140h-127v56h127v308h-127v56h127v140h61v-140h127v-56h-127z"/>
    <glyph glyph-name="bullet" unicode="•" horiz-adv-x="488" d="M144 99q-46 27 -73 72.5t-27 100.5q0 54 27 100t73.5 73t101.5 27q54 0 99.5 -27t72 -73t26.5 -100q0 -55 -26.5 -100.5t-72 -72.5t-99.5 -27q-56 0 -102 27z"/>
    <glyph glyph-name="ellipsis" unicode="…" horiz-adv-x="747" d="M87.5 6q-14.5 14 -14.5 37q0 22 14.5 36.5t37.5 14.5q22 0 36.5 -14.5t14.5 -36.5t-14.5 -36.5t-36.5 -14.5q-23 0 -37.5 14zM336.5 6q-14.5 14 -14.5 37q0 22 14.5 36.5t37.5 14.5q22 0 36.5 -14.5t14.5 -36.5t-14.5 -36.5t-36.5 -14.5q-23 0 -37.5 14zM585.5 6 q-14.5 14 -14.5 37q0 22 14.5 36.5t37.5 14.5q22 0 36.5 -14.5t14.5 -36.5t-14.5 -36.5t-36.5 -14.5q-23 0 -37.5 14z"/>
    <glyph glyph-name="perthousand" unicode="‰" horiz-adv-x="1098" d="M343 443q-21 -40 -58 -63.5t-84 -23.5t-84.5 23.5t-58.5 63.5t-21 89t21 89t58.5 63.5t84.5 23.5t84 -23.5t58 -63.5t21 -89t-21 -89zM150 0l468 700h61l-468 -700h-61zM125.5 442q28.5 -34 75.5 -34q46 0 74.5 34t28.5 90t-28.5 90t-74.5 34q-47 0 -75.5 -34t-28.5 -90 t28.5 -90zM982 320.5q37 -23.5 58 -63.5t21 -89t-21 -89t-58 -63.5t-84 -23.5q-42 0 -77 19t-57 53q-22 -34 -56.5 -53t-76.5 -19q-47 0 -84.5 23.5t-58.5 63.5t-21 89t21 89t58.5 63.5t84.5 23.5q42 0 76.5 -19t56.5 -53q22 34 57 53t77 19q47 0 84 -23.5zM705.5 78 q28.5 34 28.5 90t-28.5 90t-74.5 34q-47 0 -75.5 -34t-28.5 -90t28.5 -90t75.5 -34q46 0 74.5 34zM972.5 78q28.5 34 28.5 90t-28.5 90t-74.5 34q-47 0 -75.5 -34t-28.5 -90t28.5 -90t75.5 -34q46 0 74.5 34z"/>
    <glyph glyph-name="guilsinglleft" unicode="‹" horiz-adv-x="307" d="M272 151v-68l-244 195v42l244 195v-68l-187 -148z"/>
    <glyph glyph-name="guilsinglright" unicode="›" horiz-adv-x="307" d="M279 278l-244 -195v68l187 148l-187 148v68l244 -195v-42z"/>
    <glyph glyph-name="fraction" unicode="⁄" horiz-adv-x="229" d="M-89 0h-61l468 700h61z"/>
    <glyph glyph-name="Euro" unicode="€" horiz-adv-x="785" d="M606.5 96.5q55.5 42.5 75.5 122.5l66 -13q-27 -99 -101.5 -156.5t-181.5 -57.5q-71 0 -135.5 27.5t-112 82.5t-67.5 135h-105v62h94q-2 32 -2 51q0 31 3 58h-95v62h107q21 78 68.5 131.5t111 80t133.5 26.5q107 0 183 -58t100 -157l-66 -15q-17 80 -73.5 124t-143.5 44 q-88 0 -151 -45.5t-90 -130.5h345l-22 -62h-336q-4 -24 -4 -58q0 -27 3 -51h299l-21 -62h-266q25 -88 89 -135.5t154 -47.5q86 0 141.5 42.5z"/>
    <glyph glyph-name="uni20B9" unicode="₹" horiz-adv-x="583" d="M539 638h-193q49 -43 58 -110h135v-62h-135q-7 -61 -44 -104.5t-95 -60.5l171 -301h-78l-164 294h-174v62h165q62 0 101 29t47 81h-313v62h313q-8 52 -47 81t-101 29h-165v62h519v-62z"/>
    <glyph glyph-name="uni20BF" unicode="₿" horiz-adv-x="604" d="M516 69q-44 -52 -125 -65v-120l-67 1v115h-73v-116l-67 1v115h-108v700h108v100h67v-100h68h5v100h67v-108q67 -15 103 -59.5t36 -112.5q0 -46 -28 -83.5t-68 -53.5q59 -19 92.5 -64t33.5 -117q0 -81 -44 -133zM143 638v-234h176q68 0 104.5 29.5t36.5 87.5t-36 87.5 t-104 29.5h-177zM322 62q82 0 124.5 36t42.5 104t-42.5 104t-124.5 36h-179v-280h179z"/>
    <glyph glyph-name="uni2116" unicode="№" horiz-adv-x="1244" d="M144 0h-68v700h81l383 -595v595h68v-700h-81l-383 593v-593zM815.5 230q-57.5 33 -90 92.5t-32.5 134.5t32.5 134.5t90 92.5t130.5 33t130.5 -33.5t90 -92.5t32.5 -134t-32.5 -134t-90 -92.5t-130.5 -33.5t-130.5 33zM1043.5 281q42.5 26 66 72t23.5 104t-23.5 104 t-66 72t-97.5 26t-97.5 -26t-66 -71.5t-23.5 -104.5t23.5 -104.5t66 -71.5t97.5 -26t97.5 26zM1172 8h-450v56h450v-56z"/>
    <glyph glyph-name="uni2117" unicode="℗" horiz-adv-x="805" d="M218.5 38.5q-81.5 46.5 -128 128t-46.5 183.5t46.5 183.5t128 128t183.5 46.5t184 -46.5t128.5 -128t46.5 -183.5t-46.5 -183.5t-128.5 -128t-184 -46.5t-183.5 46.5zM559.5 79.5q70.5 40.5 111 111.5t40.5 159t-40.5 159t-111 111.5t-157.5 40.5t-157.5 -40.5 t-110.5 -111.5t-40 -159t40 -159t110.5 -111.5t157.5 -40.5t157.5 40.5zM336 327v-169h-49v401h139q58 0 93.5 -32t35.5 -84t-35.5 -84t-93.5 -32h-90zM336 512v-138h91q37 0 57.5 18.5t20.5 50.5t-20.5 50.5t-57.5 18.5h-91z"/>
    <glyph glyph-name="trademark" unicode="™" horiz-adv-x="701" d="M166 350h-50v306h-110v44h270v-44h-110v-306zM363 350h-48v350h59l116 -279l116 279h58v-350h-47v258l-107 -258h-40l-107 258v-258z"/>
    <glyph glyph-name="uni2126" unicode="Ω" horiz-adv-x="735" d="M644.5 196.5q-46.5 -84.5 -122.5 -134.5h154v-62h-233v62h1v14q84 45 132.5 124.5t48.5 172.5q0 78 -33.5 141.5t-92.5 99.5t-132 36t-131 -36t-91.5 -99.5t-33.5 -141.5q0 -92 48 -171.5t132 -125.5v-14h1v-62h-233v62h154q-76 50 -122.5 134.5t-46.5 176.5 q0 95 42 171.5t116 120t165 43.5t165 -43.5t116.5 -120t42.5 -171.5q0 -92 -46.5 -176.5z"/>
    <glyph glyph-name="oneeighth" unicode="⅛" horiz-adv-x="805" d="M534 27.5q-39 31.5 -39 83.5q0 33 20 59.5t52 36.5q-25 12 -40.5 34t-15.5 47q0 44 34.5 72.5t89.5 28.5q54 0 87.5 -28.5t33.5 -72.5q0 -26 -15.5 -48t-41.5 -33q33 -10 53.5 -36t20.5 -60q0 -52 -38.5 -83.5t-99.5 -31.5q-62 0 -101 31.5zM683.5 244.5 q18.5 15.5 18.5 40.5q0 26 -18.5 42t-48.5 16q-32 0 -50.5 -15.5t-18.5 -42.5q0 -26 19 -41t50 -15q30 0 48.5 15.5zM693.5 62.5q21.5 18.5 21.5 50.5q0 30 -22 48.5t-59 18.5t-59.5 -18.5t-22.5 -48.5q0 -32 22 -50.5t60 -18.5t59.5 18.5zM109 640q-45 -30 -79 -39v51 q40 12 89 48h43v-385h-53v325zM175 0h-61l468 700h61z"/>
    <glyph glyph-name="threeeighths" unicode="⅜" horiz-adv-x="875" d="M67.5 341.5q-38.5 30.5 -43.5 80.5l53 8q4 -31 27.5 -50t58.5 -19q38 0 61 20.5t23 55.5q0 36 -21.5 55.5t-59.5 19.5q-24 0 -42 -12l-25 37l117 115h-181v48h248v-48l-106 -102l15 1q51 0 82 -31.5t31 -83.5q0 -57 -38.5 -91t-103.5 -34q-57 0 -95.5 30.5zM604 27.5 q-39 31.5 -39 83.5q0 33 20 59.5t52 36.5q-25 12 -40.5 34t-15.5 47q0 44 34.5 72.5t89.5 28.5q54 0 87.5 -28.5t33.5 -72.5q0 -26 -15.5 -48t-41.5 -33q33 -10 53.5 -36t20.5 -60q0 -52 -38.5 -83.5t-99.5 -31.5q-62 0 -101 31.5zM753.5 244.5q18.5 15.5 18.5 40.5 q0 26 -18.5 42t-48.5 16q-32 0 -50.5 -15.5t-18.5 -42.5q0 -26 19 -41t50 -15q30 0 48.5 15.5zM763.5 62.5q21.5 18.5 21.5 50.5q0 30 -22 48.5t-59 18.5t-59.5 -18.5t-22.5 -48.5q0 -32 22 -50.5t60 -18.5t59.5 18.5zM216 0h-61l468 700h61z"/>
    <glyph glyph-name="fiveeighths" unicode="⅝" horiz-adv-x="875" d="M69.5 339.5q-37.5 28.5 -45.5 77.5l52 9q5 -29 28.5 -47t57.5 -18q36 0 58 22.5t22 58.5q0 38 -22.5 60.5t-61.5 22.5q-54 0 -83 -45l-40 9l30 211h207v-50h-166l-16 -109q16 14 37 22.5t42 8.5q59 0 95 -36t36 -94q0 -59 -37 -95t-98 -36q-58 0 -95.5 28.5zM604 27.5 q-39 31.5 -39 83.5q0 33 20 59.5t52 36.5q-25 12 -40.5 34t-15.5 47q0 44 34.5 72.5t89.5 28.5q54 0 87.5 -28.5t33.5 -72.5q0 -26 -15.5 -48t-41.5 -33q33 -10 53.5 -36t20.5 -60q0 -52 -38.5 -83.5t-99.5 -31.5q-62 0 -101 31.5zM753.5 244.5q18.5 15.5 18.5 40.5 q0 26 -18.5 42t-48.5 16q-32 0 -50.5 -15.5t-18.5 -42.5q0 -26 19 -41t50 -15q30 0 48.5 15.5zM763.5 62.5q21.5 18.5 21.5 50.5q0 30 -22 48.5t-59 18.5t-59.5 -18.5t-22.5 -48.5q0 -32 22 -50.5t60 -18.5t59.5 18.5zM235 0h-61l468 700h61z"/>
    <glyph glyph-name="seveneighths" unicode="⅞" horiz-adv-x="795" d="M59 315q26 87 69 173.5t102 161.5h-211v50h265v-50q-61 -82 -104.5 -169t-64.5 -166h-56zM524 27.5q-39 31.5 -39 83.5q0 33 20 59.5t52 36.5q-25 12 -40.5 34t-15.5 47q0 44 34.5 72.5t89.5 28.5q54 0 87.5 -28.5t33.5 -72.5q0 -26 -15.5 -48t-41.5 -33q33 -10 53.5 -36 t20.5 -60q0 -52 -38.5 -83.5t-99.5 -31.5q-62 0 -101 31.5zM673.5 244.5q18.5 15.5 18.5 40.5q0 26 -18.5 42t-48.5 16q-32 0 -50.5 -15.5t-18.5 -42.5q0 -26 19 -41t50 -15q30 0 48.5 15.5zM683.5 62.5q21.5 18.5 21.5 50.5q0 30 -22 48.5t-59 18.5t-59.5 -18.5 t-22.5 -48.5q0 -32 22 -50.5t60 -18.5t59.5 18.5zM145 0h-61l468 700h61z"/>
    <glyph glyph-name="uni2160" unicode="Ⅰ" horiz-adv-x="439" d="M363 700v-62h-110v-576h110v-62h-287v62h110v576h-110v62h287z"/>
    <glyph glyph-name="uni2161" unicode="Ⅱ" horiz-adv-x="668" d="M592 700v-62h-110v-576h110v-62h-516v62h110v576h-110v62h516zM253 62h162v576h-162v-576z"/>
    <glyph glyph-name="uni2162" unicode="Ⅲ" horiz-adv-x="897" d="M821 700v-62h-110v-576h110v-62h-745v62h110v576h-110v62h745zM253 638v-576h162v576h-162zM482 62h162v576h-162v-576z"/>
    <glyph glyph-name="uni2163" unicode="Ⅳ" horiz-adv-x="1084" d="M1008 700v-62h-90l-220 -576h310v-62h-932v62h110v576h-110v62h932zM253 638v-576h326l-220 576h-106zM427 638l211 -564l212 564h-423z"/>
    <glyph glyph-name="uni2164" unicode="Ⅴ" horiz-adv-x="907" d="M831 700v-62h-93l-220 -576h288v-62h-705v62h298l-220 576h-103v62h755zM247 638l211 -564l212 564h-423z"/>
    <glyph glyph-name="uni2165" unicode="Ⅵ" horiz-adv-x="1084" d="M1008 700v-62h-110v-576h110v-62h-932v62h320l-220 576h-100v62h932zM455 74l212 564h-423zM515 62h316v576h-96z"/>
    <glyph glyph-name="uni2166" unicode="Ⅶ" horiz-adv-x="1313" d="M1237 700v-62h-110v-576h110v-62h-1161v62h320l-220 576h-100v62h1161zM455 74l212 564h-423zM735 638l-220 -576h316v576h-96zM898 638v-576h162v576h-162z"/>
    <glyph glyph-name="uni2167" unicode="Ⅷ" horiz-adv-x="1542" d="M1466 700v-62h-110v-576h110v-62h-1390v62h320l-220 576h-100v62h1390zM455 74l212 564h-423zM735 638l-220 -576h316v576h-96zM898 638v-576h162v576h-162zM1127 638v-576h162v576h-162z"/>
    <glyph glyph-name="uni2168" unicode="Ⅸ" horiz-adv-x="1073" d="M997 638h-97l-185 -288l185 -288h97v-62h-921v62h110v576h-110v62h921v-62zM459 62l186 288l-185 288h-207v-576h206zM680 405l150 233h-300zM529 62h301l-150 234z"/>
    <glyph glyph-name="uni2169" unicode="Ⅹ" horiz-adv-x="787" d="M711 638h-97l-185 -288l185 -288h97v-62h-635v62h97l186 288l-185 288h-98v62h635v-62zM544 638h-300l150 -233zM243 62h301l-150 234z"/>
    <glyph glyph-name="uni216A" unicode="Ⅺ" horiz-adv-x="977" d="M901 700v-62h-110v-576h110v-62h-825v62h97l185 288l-185 288h-97v62h825zM543 638h-300l150 -233zM614 62h110v576h-111l-185 -288zM393 296l-150 -234h301z"/>
    <glyph glyph-name="uni216B" unicode="Ⅻ" horiz-adv-x="1264" d="M1188 700v-62h-110v-576h110v-62h-1112v62h97l185 288l-185 288h-97v62h1112zM543 638h-300l150 -233zM614 62h110v576h-111l-185 -288zM791 62h220v576h-220v-576zM393 296l-150 -234h301z"/>
    <glyph glyph-name="uni216C" unicode="Ⅼ" horiz-adv-x="627" d="M610 172l2 -110v-62h-536v62h110v576h-110v62h287v-62h-110v-576h297l-2 109z"/>
    <glyph glyph-name="uni216D" unicode="Ⅽ" horiz-adv-x="707" d="M669 0l-63 -1v105q-37 -54 -94 -83t-133 -29q-89 0 -165.5 40t-123 121t-46.5 197t47 197t123.5 121t164.5 40q156 0 227 -108v99l59 1l2 -207l-66 -15q-18 80 -76 124t-146 44q-78 0 -138 -34.5t-93.5 -101.5t-33.5 -160t33.5 -160t93.5 -101.5t138 -34.5 q88 0 144.5 42.5t77.5 122.5l66 -13z"/>
    <glyph glyph-name="uni216E" unicode="Ⅾ" horiz-adv-x="774" d="M561.5 658q78.5 -42 123.5 -121.5t45 -186.5t-45 -186.5t-123.5 -121.5t-177.5 -42h-308v62h110v576h-110v62h308q99 0 177.5 -42zM386 62q74 0 136 31t99.5 96t37.5 161t-37.5 161t-99.5 96t-136 31h-133v-576h133z"/>
    <glyph glyph-name="uni216F" unicode="Ⅿ" horiz-adv-x="1042" d="M966 700v-62h-110v-576h110v-62h-179v572l-235 -572h-62l-235 572v-572h-179v62h110v576h-110v62h197l248 -601l248 601h197z"/>
    <glyph glyph-name="arrowleft" unicode="←" horiz-adv-x="706" d="M144 285h522v-56h-522l202 -202l-38 -38l-268 268l269 269l38 -39z"/>
    <glyph glyph-name="arrowup" unicode="↑" horiz-adv-x="617" d="M309 641l268 -268l-38 -38l-202 202v-522h-56v522l-202 -203l-39 38z"/>
    <glyph glyph-name="arrowright" unicode="→" horiz-adv-x="706" d="M359 487l38 39l269 -269l-268 -268l-38 38l202 202h-522v56h522z"/>
    <glyph glyph-name="arrowdown" unicode="↓" horiz-adv-x="617" d="M336 105l202 203l39 -38l-269 -269l-268 268l38 38l202 -202v522h56v-522z"/>
    <glyph glyph-name="arrowboth" unicode="↔" horiz-adv-x="1020" d="M673 487l38 39l269 -269l-268 -268l-38 38l202 202h-732l202 -202l-38 -38l-268 268l269 269l38 -39l-203 -202h732z"/>
    <glyph glyph-name="arrowupdn" unicode="↕" horiz-adv-x="617" d="M336 -60l202 203l39 -38l-269 -269l-268 268l38 38l202 -202v732l-202 -202l-38 38l268 268l269 -269l-39 -38l-202 203v-732z"/>
    <glyph glyph-name="uni2196" unicode="↖" horiz-adv-x="575" d="M166 434l369 -369l-39 -40l-369 368v-284h-54v379h380v-55z"/>
    <glyph glyph-name="uni2197" unicode="↗" horiz-adv-x="568" d="M115 433v55h380v-379h-54v284l-369 -368l-39 40l369 369z"/>
    <glyph glyph-name="uni2198" unicode="↘" horiz-adv-x="576" d="M449 100l-1 287h55v-380h-379v54h284l-368 369l40 39z"/>
    <glyph glyph-name="uni2199" unicode="↙" horiz-adv-x="576" d="M495 469l40 -39l-368 -369h284v-54h-379v380h55l-1 -287z"/>
    <glyph glyph-name="partialdiff" unicode="∂" horiz-adv-x="589" d="M209 708h17q97 0 169 -47t111.5 -137t39.5 -216q0 -96 -31.5 -167.5t-89 -110t-134.5 -38.5q-72 0 -128.5 30.5t-88 84.5t-31.5 123q0 68 31.5 122.5t88 85t128.5 30.5q63 0 119 -35.5t75 -89.5q0 88 -33 157t-91 107.5t-132 38.5q-18 0 -27 -1zM382.5 76.5 q40.5 22.5 63.5 63t23 91.5q0 50 -23 90t-63.5 62.5t-91.5 22.5t-91.5 -22.5t-63.5 -62.5t-23 -90q0 -51 23 -91.5t63.5 -63t91.5 -22.5t91.5 22.5z"/>
    <glyph glyph-name="uni2206" unicode="∆" horiz-adv-x="643" d="M292 700h59l282 -700h-623zM322 611l-218 -549h435z"/>
    <glyph glyph-name="product" unicode="∏" horiz-adv-x="631" d="M146 0h-70v700h479v-700h-72v638h-337v-638z"/>
    <glyph glyph-name="summation" unicode="∑" horiz-adv-x="546" d="M496 0h-451v62l249 288l-249 288v62h451v-62h-370l228 -260v-56l-228 -260h370v-62z"/>
    <glyph glyph-name="minus" unicode="−" d="M495 309h-460v56h460v-56z"/>
    <glyph glyph-name="radical" unicode="√" horiz-adv-x="536" d="M309 0h-75l-103 327h-101v62h145l94 -309l193 620h69z"/>
    <glyph glyph-name="infinity" unicode="∞" horiz-adv-x="898" d="M760 525q45 -24 70 -67t25 -99t-25 -99t-70 -67t-104 -24t-112 33.5t-95 98.5q-42 -65 -95 -98.5t-112 -33.5t-104 24t-70 67t-25 99t25 99t70 67t104 24t112 -33.5t95 -98.5q42 65 95 98.5t112 33.5t104 -24zM337 261q45 34 80 98q-35 64 -80 98t-95 34 q-65 0 -101.5 -35.5t-36.5 -96.5t36.5 -96.5t101.5 -35.5q50 0 95 34zM757.5 262.5q36.5 35.5 36.5 96.5t-36.5 96.5t-101.5 35.5q-49 0 -94 -34t-80 -98q35 -64 80 -98t94 -34q65 0 101.5 35.5z"/>
    <glyph glyph-name="integral" unicode="∫" horiz-adv-x="265" d="M20 -189l-2 57h10q73 0 73 94v601q0 63 36 104t94 41l14 -1l2 -57h-10q-73 0 -73 -94v-601q0 -63 -36 -104t-94 -41z"/>
    <glyph glyph-name="approxequal" unicode="≈" horiz-adv-x="558" d="M314 378.5q-22 8.5 -46 25.5q-6 4 -24 17t-35 19.5t-35 6.5q-28 0 -47.5 -17.5t-23.5 -49.5l-53 9q4 52 37.5 83t86.5 31q26 0 48 -8.5t46 -25.5q6 -4 24 -17t35 -19.5t35 -6.5q28 0 47.5 17.5t23.5 49.5l53 -9q-4 -52 -37.5 -83t-86.5 -31q-26 0 -48 8.5zM314 177.5 q-22 8.5 -46 25.5q-6 4 -24 17t-35 19.5t-35 6.5q-28 0 -47.5 -17.5t-23.5 -49.5l-53 9q4 52 37.5 83t86.5 31q26 0 48 -8.5t46 -25.5q6 -4 24 -17t35 -19.5t35 -6.5q28 0 47.5 17.5t23.5 49.5l53 -9q-4 -52 -37.5 -83t-86.5 -31q-26 0 -48 8.5z"/>
    <glyph glyph-name="notequal" unicode="≠" d="M495 458v-56h-150l-79 -127h229v-56h-263l-95 -153l-52 30l76 123h-126v56h161l78 127h-239v56h274l84 136l52 -30l-66 -106h116z"/>
    <glyph glyph-name="lessequal" unicode="≤" d="M495 132v-65l-460 188v72l460 188v-65l-398 -159zM495 56v-56h-460v56h460z"/>
    <glyph glyph-name="greaterequal" unicode="≥" d="M495 255l-460 -188v65l398 159l-398 159v65l460 -188v-72zM495 0h-460v56h460v-56z"/>
    <glyph glyph-name="uni2460" unicode="①" horiz-adv-x="805" d="M218.5 38.5q-81.5 46.5 -128 128t-46.5 183.5t46.5 183.5t128 128t183.5 46.5t184 -46.5t128.5 -128t46.5 -183.5t-46.5 -183.5t-128.5 -128t-184 -46.5t-183.5 46.5zM559.5 79.5q70.5 40.5 111 111.5t40.5 159t-40.5 159t-111 111.5t-157.5 40.5t-157.5 -40.5 t-110.5 -111.5t-40 -159t40 -159t110.5 -111.5t157.5 -40.5t157.5 40.5zM401 492q-45 -30 -79 -39v51q40 12 89 48h43v-385h-53v325z"/>
    <glyph glyph-name="uni2461" unicode="②" horiz-adv-x="805" d="M218.5 38.5q-81.5 46.5 -128 128t-46.5 183.5t46.5 183.5t128 128t183.5 46.5t184 -46.5t128.5 -128t46.5 -183.5t-46.5 -183.5t-128.5 -128t-184 -46.5t-183.5 46.5zM559.5 79.5q70.5 40.5 111 111.5t40.5 159t-40.5 159t-111 111.5t-157.5 40.5t-157.5 -40.5 t-110.5 -111.5t-40 -159t40 -159t110.5 -111.5t157.5 -40.5t157.5 40.5zM271 167v48l130 111q40 33 57.5 60t17.5 54q0 30 -19 48t-51 18q-39 0 -59 -25t-16 -67l-54 5q-4 61 32 99t97 38q58 0 93 -32t35 -84q0 -36 -22.5 -70.5t-73.5 -77.5l-90 -75h186v-50h-263z"/>
    <glyph glyph-name="uni2462" unicode="③" horiz-adv-x="805" d="M218.5 38.5q-81.5 46.5 -128 128t-46.5 183.5t46.5 183.5t128 128t183.5 46.5t184 -46.5t128.5 -128t46.5 -183.5t-46.5 -183.5t-128.5 -128t-184 -46.5t-183.5 46.5zM559.5 79.5q70.5 40.5 111 111.5t40.5 159t-40.5 159t-111 111.5t-157.5 40.5t-157.5 -40.5 t-110.5 -111.5t-40 -159t40 -159t110.5 -111.5t157.5 -40.5t157.5 40.5zM303.5 193.5q-38.5 30.5 -43.5 80.5l53 8q4 -31 27.5 -50t58.5 -19q38 0 61 20.5t23 55.5q0 36 -21.5 55.5t-59.5 19.5q-24 0 -42 -12l-25 37l117 115h-181v48h248v-48l-106 -102l15 1q51 0 82 -31.5 t31 -83.5q0 -57 -38.5 -91t-103.5 -34q-57 0 -95.5 30.5z"/>
    <glyph glyph-name="uni2463" unicode="④" horiz-adv-x="805" d="M218.5 38.5q-81.5 46.5 -128 128t-46.5 183.5t46.5 183.5t128 128t183.5 46.5t184 -46.5t128.5 -128t46.5 -183.5t-46.5 -183.5t-128.5 -128t-184 -46.5t-183.5 46.5zM559.5 79.5q70.5 40.5 111 111.5t40.5 159t-40.5 159t-111 111.5t-157.5 40.5t-157.5 -40.5 t-110.5 -111.5t-40 -159t40 -159t110.5 -111.5t157.5 -40.5t157.5 40.5zM483 167h-57v90h-203v50l196 245h64v-245h57v-50h-57v-90zM426 487l-143 -180h143v180z"/>
    <glyph glyph-name="uni2464" unicode="⑤" horiz-adv-x="805" d="M218.5 38.5q-81.5 46.5 -128 128t-46.5 183.5t46.5 183.5t128 128t183.5 46.5t184 -46.5t128.5 -128t46.5 -183.5t-46.5 -183.5t-128.5 -128t-184 -46.5t-183.5 46.5zM559.5 79.5q70.5 40.5 111 111.5t40.5 159t-40.5 159t-111 111.5t-157.5 40.5t-157.5 -40.5 t-110.5 -111.5t-40 -159t40 -159t110.5 -111.5t157.5 -40.5t157.5 40.5zM308.5 191.5q-37.5 28.5 -45.5 77.5l52 9q5 -29 28.5 -47t57.5 -18q36 0 58 22.5t22 58.5q0 38 -22.5 60.5t-61.5 22.5q-54 0 -83 -45l-40 9l30 211h207v-50h-166l-16 -109q16 14 37 22.5t42 8.5 q59 0 95 -36t36 -94q0 -59 -37 -95t-98 -36q-58 0 -95.5 28.5z"/>
    <glyph glyph-name="uni2465" unicode="⑥" horiz-adv-x="805" d="M218.5 38.5q-81.5 46.5 -128 128t-46.5 183.5t46.5 183.5t128 128t183.5 46.5t184 -46.5t128.5 -128t46.5 -183.5t-46.5 -183.5t-128.5 -128t-184 -46.5t-183.5 46.5zM559.5 79.5q70.5 40.5 111 111.5t40.5 159t-40.5 159t-111 111.5t-157.5 40.5t-157.5 -40.5 t-110.5 -111.5t-40 -159t40 -159t110.5 -111.5t157.5 -40.5t157.5 40.5zM497.5 388q38.5 -37 38.5 -94q0 -58 -39.5 -94.5t-101.5 -36.5q-65 0 -105 48.5t-40 128.5q0 69 23.5 118t64 74t92.5 25q30 0 58 -9.5t48 -27.5l-28 -40q-31 27 -79 27q-54 0 -89 -39t-37 -100 q12 26 39 41.5t58 15.5q59 0 97.5 -37zM456 237q24 24 24 62q0 35 -24.5 57t-60.5 22q-37 0 -60 -22.5t-23 -58.5q0 -37 23 -60.5t60 -23.5t61 24z"/>
    <glyph glyph-name="uni2466" unicode="⑦" horiz-adv-x="805" d="M218.5 38.5q-81.5 46.5 -128 128t-46.5 183.5t46.5 183.5t128 128t183.5 46.5t184 -46.5t128.5 -128t46.5 -183.5t-46.5 -183.5t-128.5 -128t-184 -46.5t-183.5 46.5zM559.5 79.5q70.5 40.5 111 111.5t40.5 159t-40.5 159t-111 111.5t-157.5 40.5t-157.5 -40.5 t-110.5 -111.5t-40 -159t40 -159t110.5 -111.5t157.5 -40.5t157.5 40.5zM310 167q26 87 69 173.5t102 161.5h-211v50h265v-50q-61 -82 -104.5 -169t-64.5 -166h-56z"/>
    <glyph glyph-name="uni2467" unicode="⑧" horiz-adv-x="805" d="M218.5 38.5q-81.5 46.5 -128 128t-46.5 183.5t46.5 183.5t128 128t183.5 46.5t184 -46.5t128.5 -128t46.5 -183.5t-46.5 -183.5t-128.5 -128t-184 -46.5t-183.5 46.5zM559.5 79.5q70.5 40.5 111 111.5t40.5 159t-40.5 159t-111 111.5t-157.5 40.5t-157.5 -40.5 t-110.5 -111.5t-40 -159t40 -159t110.5 -111.5t157.5 -40.5t157.5 40.5zM303 194.5q-39 31.5 -39 83.5q0 33 20 59.5t52 36.5q-25 12 -40.5 34t-15.5 47q0 44 34.5 72.5t89.5 28.5q54 0 87.5 -28.5t33.5 -72.5q0 -26 -15.5 -48t-41.5 -33q33 -10 53.5 -36t20.5 -60 q0 -52 -38.5 -83.5t-99.5 -31.5q-62 0 -101 31.5zM452.5 411.5q18.5 15.5 18.5 40.5q0 26 -18.5 42t-48.5 16q-32 0 -50.5 -15.5t-18.5 -42.5q0 -26 19 -41t50 -15q30 0 48.5 15.5zM462.5 229.5q21.5 18.5 21.5 50.5q0 30 -22 48.5t-59 18.5t-59.5 -18.5t-22.5 -48.5 q0 -32 22 -50.5t60 -18.5t59.5 18.5z"/>
    <glyph glyph-name="uni2468" unicode="⑨" horiz-adv-x="805" d="M218.5 38.5q-81.5 46.5 -128 128t-46.5 183.5t46.5 183.5t128 128t183.5 46.5t184 -46.5t128.5 -128t46.5 -183.5t-46.5 -183.5t-128.5 -128t-184 -46.5t-183.5 46.5zM559.5 79.5q70.5 40.5 111 111.5t40.5 159t-40.5 159t-111 111.5t-157.5 40.5t-157.5 -40.5 t-110.5 -111.5t-40 -159t40 -159t110.5 -111.5t157.5 -40.5t157.5 40.5zM299.5 331q-38.5 37 -38.5 94q0 58 39.5 94.5t101.5 36.5q65 0 105 -48.5t40 -128.5q0 -69 -23.5 -118t-64 -74t-92.5 -25q-30 0 -58 9.5t-48 27.5l28 40q32 -27 79 -27q54 0 89 39t37 100 q-12 -26 -39 -41.5t-58 -15.5q-59 0 -97.5 37zM341 482q-24 -24 -24 -62q0 -35 24.5 -57t60.5 -22q37 0 60 22.5t23 58.5q0 37 -23 60.5t-60 23.5t-61 -24z"/>
    <glyph glyph-name="lozenge" unicode="◊" horiz-adv-x="558" d="M311 0h-64l-196 350l196 350h64l196 -350zM117 350l162 -286l162 286l-162 286z"/>
    <glyph glyph-name="circle" unicode="○" horiz-adv-x="805" d="M218.5 38.5q-81.5 46.5 -128 128t-46.5 183.5t46.5 183.5t128 128t183.5 46.5t184 -46.5t128.5 -128t46.5 -183.5t-46.5 -183.5t-128.5 -128t-184 -46.5t-183.5 46.5zM559.5 79.5q70.5 40.5 111 111.5t40.5 159t-40.5 159t-111 111.5t-157.5 40.5t-157.5 -40.5 t-110.5 -111.5t-40 -159t40 -159t110.5 -111.5t157.5 -40.5t157.5 40.5z"/>
    <glyph glyph-name="uni25CF" unicode="●" horiz-adv-x="805" d="M219.5 38.5q-82.5 46.5 -129 128t-46.5 183.5t46.5 183.5t129 128t184.5 46.5q101 0 182.5 -46.5t128 -128t46.5 -183.5t-46.5 -183.5t-128 -128t-182.5 -46.5q-102 0 -184.5 46.5z"/>
    <glyph glyph-name="uniF8FF" unicode="" horiz-adv-x="782" d="M612 266q36 0 67.5 -19t50.5 -50.5t19 -68.5q0 -36 -18.5 -67.5t-50 -50t-68.5 -18.5t-69 18.5t-50.5 50t-18.5 67.5v85h-167v-85q0 -36 -18.5 -67.5t-50.5 -50t-69 -18.5t-68 18.5t-49.5 49.5t-18.5 68t18.5 69t50 50.5t67.5 18.5h85v167h-85q-36 0 -67.5 18.5t-50 50.5 t-18.5 69t18.5 68.5t50 50t67.5 18.5q37 0 68.5 -19t50.5 -50.5t19 -67.5v-85h167v85q0 36 19 67.5t50.5 50.5t68.5 19t68.5 -18.5t50 -50t18.5 -68.5t-19 -68.5t-50.5 -50.5t-67.5 -19h-85v-167h85zM254 486v85q0 35 -25 59.5t-60 24.5q-34 0 -58.5 -24.5t-24.5 -59.5 t24.5 -60t58.5 -25h85zM527 486h85q35 0 59.5 25t24.5 60t-24.5 59.5t-59.5 24.5t-60 -24.5t-25 -59.5v-85zM307 433v-167h167v167h-167zM254 213h-85q-34 0 -58.5 -25t-24.5 -60q0 -34 24.5 -58.5t58.5 -24.5q35 0 60 24.5t25 58.5v85zM671.5 69.5q24.5 24.5 24.5 58.5 q0 35 -24.5 60t-59.5 25h-85v-85q0 -34 25 -58.5t60 -24.5t59.5 24.5z"/>
    <glyph glyph-name="fi" unicode="ﬁ" d="M457 504v-504h-63v446h-205v-446h-63v446h-88v58h88v52q0 78 37 120.5t97 42.5q36 0 64 -7l-2 -60q-23 9 -54 9q-35 0 -57 -26t-22 -69v-62h268zM461.5 694q14.5 -14 14.5 -36q0 -21 -14.5 -35t-36.5 -14q-21 0 -35 14t-14 35q0 22 14 36t35 14q22 0 36.5 -14z"/>
    <glyph glyph-name="fl" unicode="ﬂ" horiz-adv-x="549" d="M413 708h63v-708h-63v446h-224v-446h-63v446h-88v58h88v52q0 78 37 120.5t97 42.5q36 0 64 -7l-2 -60q-23 9 -54 9q-35 0 -57 -26t-22 -69v-62h224v204z"/>
    <glyph glyph-name="G.ss03" horiz-adv-x="743" d="M208.5 37.5q-77.5 45.5 -121 127t-43.5 185.5t43.5 185.5t121 127t176.5 45.5q75 0 138 -26.5t105.5 -75t56.5 -112.5l-66 -15q-16 79 -78.5 123t-155.5 44q-80 0 -141 -34.5t-95.5 -101t-34.5 -160.5q0 -86 34.5 -153t96 -105t140.5 -38q73 0 128 29t85 83t31 126h-294 v62h364v-21q0 -103 -38.5 -180t-109 -119t-165.5 -42q-100 0 -177.5 45.5z"/>
    <glyph glyph-name="Gbreve.ss03" horiz-adv-x="743" d="M208.5 37.5q-77.5 45.5 -121 127t-43.5 185.5t43.5 185.5t121 127t176.5 45.5q75 0 138 -26.5t105.5 -75t56.5 -112.5l-66 -15q-16 79 -78.5 123t-155.5 44q-80 0 -141 -34.5t-95.5 -101t-34.5 -160.5q0 -86 34.5 -153t96 -105t140.5 -38q73 0 128 29t85 83t31 126h-294 v62h364v-21q0 -103 -38.5 -180t-109 -119t-165.5 -42q-100 0 -177.5 45.5zM285 788q-35 35 -35 88h55q0 -30 19.5 -50.5t48.5 -20.5t49 20.5t20 50.5h55q0 -53 -35.5 -88t-88.5 -35t-88 35z"/>
    <glyph glyph-name="Gcircumflex.ss03" horiz-adv-x="743" d="M208.5 37.5q-77.5 45.5 -121 127t-43.5 185.5t43.5 185.5t121 127t176.5 45.5q75 0 138 -26.5t105.5 -75t56.5 -112.5l-66 -15q-16 79 -78.5 123t-155.5 44q-80 0 -141 -34.5t-95.5 -101t-34.5 -160.5q0 -86 34.5 -153t96 -105t140.5 -38q73 0 128 29t85 83t31 126h-294 v62h364v-21q0 -103 -38.5 -180t-109 -119t-165.5 -42q-100 0 -177.5 45.5zM231 756l118 148h47l118 -148h-56l-85 96l-87 -96h-55z"/>
    <glyph glyph-name="uni0122.ss03" horiz-adv-x="743" d="M208.5 37.5q-77.5 45.5 -121 127t-43.5 185.5t43.5 185.5t121 127t176.5 45.5q75 0 138 -26.5t105.5 -75t56.5 -112.5l-66 -15q-16 79 -78.5 123t-155.5 44q-80 0 -141 -34.5t-95.5 -101t-34.5 -160.5q0 -86 34.5 -153t96 -105t140.5 -38q73 0 128 29t85 83t31 126h-294 v62h364v-21q0 -103 -38.5 -180t-109 -119t-165.5 -42q-100 0 -177.5 45.5zM334 -190h-47l47 148h76z"/>
    <glyph glyph-name="Gdotaccent.ss03" horiz-adv-x="743" d="M208.5 37.5q-77.5 45.5 -121 127t-43.5 185.5t43.5 185.5t121 127t176.5 45.5q75 0 138 -26.5t105.5 -75t56.5 -112.5l-66 -15q-16 79 -78.5 123t-155.5 44q-80 0 -141 -34.5t-95.5 -101t-34.5 -160.5q0 -86 34.5 -153t96 -105t140.5 -38q73 0 128 29t85 83t31 126h-294 v62h364v-21q0 -103 -38.5 -180t-109 -119t-165.5 -42q-100 0 -177.5 45.5zM338 819q-14 14 -14 35q0 22 14 36t35 14q22 0 36.5 -14t14.5 -36q0 -21 -14.5 -35t-36.5 -14q-21 0 -35 14z"/>
    <glyph glyph-name="i.loclTRK" horiz-adv-x="209" d="M136 0h-63v504h63v-504zM69 623q-14 14 -14 35q0 22 14 36t35 14q22 0 36.5 -14t14.5 -36q0 -21 -14.5 -35t-36.5 -14q-21 0 -35 14z"/>
    <glyph glyph-name="r.calt" horiz-adv-x="345" d="M311 449q-15 3 -34 3q-65 0 -103 -65.5t-38 -191.5v-195h-63v504h63v-107q21 51 63 83t88 32q16 0 28 -2z"/>
    <glyph glyph-name="racute.calt" horiz-adv-x="345" d="M311 449q-15 3 -34 3q-65 0 -103 -65.5t-38 -191.5v-195h-63v504h63v-107q21 51 63 83t88 32q16 0 28 -2zM209 560h-47l77 148h85z"/>
    <glyph glyph-name="rcaron.calt" horiz-adv-x="345" d="M311 449q-15 3 -34 3q-65 0 -103 -65.5t-38 -191.5v-195h-63v504h63v-107q21 51 63 83t88 32q16 0 28 -2zM216 560h-47l-118 148h55l87 -96l85 96h56z"/>
    <glyph glyph-name="uni0157.calt" horiz-adv-x="345" d="M311 449q-15 3 -34 3q-65 0 -103 -65.5t-38 -191.5v-195h-63v504h63v-107q21 51 63 83t88 32q16 0 28 -2zM66 -190h-47l47 148h76z"/>
    <glyph glyph-name="germandbls.calt" horiz-adv-x="595" d="M444 661.5q58 -46.5 72 -121.5l-163 -156q90 -2 144 -53t54 -134q0 -54 -26.5 -99t-72 -71.5t-99.5 -26.5h-139v62h138q37 0 67.5 18.5t48.5 49.5t18 68q0 61 -38 97.5t-101 36.5h-70l-11 40l181 177q-13 44 -52 70.5t-91 26.5q-73 0 -117 -44t-44 -115v-487h-67v487 q0 66 28 116t80 77.5t120 27.5q82 0 140 -46.5z"/>
    <glyph glyph-name="a.ss01" horiz-adv-x="599" d="M526 504v-504h-63v81q-17 -37 -66.5 -63t-108.5 -26q-78 0 -133 34.5t-83.5 93.5t-28.5 132t28.5 132t83.5 93.5t133 34.5q52 0 101 -25t74 -64v81h63zM421 105q49 55 49 147t-49 147t-131 55t-131 -55t-49 -147t49 -147t131 -55t131 55z"/>
    <glyph glyph-name="aacute.ss01" horiz-adv-x="599" d="M526 504v-504h-63v81q-17 -37 -66.5 -63t-108.5 -26q-78 0 -133 34.5t-83.5 93.5t-28.5 132t28.5 132t83.5 93.5t133 34.5q52 0 101 -25t74 -64v81h63zM421 105q49 55 49 147t-49 147t-131 55t-131 -55t-49 -147t49 -147t131 -55t131 55zM317 560h-47l77 148h85z"/>
    <glyph glyph-name="abreve.ss01" horiz-adv-x="599" d="M526 504v-504h-63v81q-17 -37 -66.5 -63t-108.5 -26q-78 0 -133 34.5t-83.5 93.5t-28.5 132t28.5 132t83.5 93.5t133 34.5q52 0 101 -25t74 -64v81h63zM421 105q49 55 49 147t-49 147t-131 55t-131 -55t-49 -147t49 -147t131 -55t131 55zM213 592q-35 35 -35 88h55 q0 -30 19.5 -50.5t48.5 -20.5t49 20.5t20 50.5h55q0 -53 -35.5 -88t-88.5 -35t-88 35z"/>
    <glyph glyph-name="acircumflex.ss01" horiz-adv-x="599" d="M526 504v-504h-63v81q-17 -37 -66.5 -63t-108.5 -26q-78 0 -133 34.5t-83.5 93.5t-28.5 132t28.5 132t83.5 93.5t133 34.5q52 0 101 -25t74 -64v81h63zM421 105q49 55 49 147t-49 147t-131 55t-131 -55t-49 -147t49 -147t131 -55t131 55zM159 560l118 148h47l118 -148 h-56l-85 96l-87 -96h-55z"/>
    <glyph glyph-name="adieresis.ss01" horiz-adv-x="599" d="M526 504v-504h-63v81q-17 -37 -66.5 -63t-108.5 -26q-78 0 -133 34.5t-83.5 93.5t-28.5 132t28.5 132t83.5 93.5t133 34.5q52 0 101 -25t74 -64v81h63zM421 105q49 55 49 147t-49 147t-131 55t-131 -55t-49 -147t49 -147t131 -55t131 55zM180 623q-14 14 -14 35 q0 22 14 36t35 14q22 0 36.5 -14t14.5 -36q0 -21 -14.5 -35t-36.5 -14q-21 0 -35 14zM349 623q-14 14 -14 35q0 22 14 36t35 14q22 0 36.5 -14t14.5 -36q0 -21 -14.5 -35t-36.5 -14q-21 0 -35 14z"/>
    <glyph glyph-name="agrave.ss01" horiz-adv-x="599" d="M526 504v-504h-63v81q-17 -37 -66.5 -63t-108.5 -26q-78 0 -133 34.5t-83.5 93.5t-28.5 132t28.5 132t83.5 93.5t133 34.5q52 0 101 -25t74 -64v81h63zM421 105q49 55 49 147t-49 147t-131 55t-131 -55t-49 -147t49 -147t131 -55t131 55zM248 708l77 -148h-47l-115 148 h85z"/>
    <glyph glyph-name="amacron.ss01" horiz-adv-x="599" d="M526 504v-504h-63v81q-17 -37 -66.5 -63t-108.5 -26q-78 0 -133 34.5t-83.5 93.5t-28.5 132t28.5 132t83.5 93.5t133 34.5q52 0 101 -25t74 -64v81h63zM421 105q49 55 49 147t-49 147t-131 55t-131 -55t-49 -147t49 -147t131 -55t131 55zM431 594h-261v56h261v-56z"/>
    <glyph glyph-name="aogonek.ss01" horiz-adv-x="599" d="M566 -186q-24 -4 -46 -4q-49 0 -79 27t-30 70q0 23 15.5 52.5t36.5 47.5v74q-17 -37 -66.5 -63t-108.5 -26q-78 0 -133 34.5t-83.5 93.5t-28.5 132t28.5 132t83.5 93.5t133 34.5q52 0 101 -25t74 -64v81h63v-504q-22 -22 -35 -45t-13 -39q0 -19 12.5 -31t32.5 -12 q23 0 33 2zM421 105q49 55 49 147t-49 147t-131 55t-131 -55t-49 -147t49 -147t131 -55t131 55z"/>
    <glyph glyph-name="aring.ss01" horiz-adv-x="599" d="M526 504v-504h-63v81q-17 -37 -66.5 -63t-108.5 -26q-78 0 -133 34.5t-83.5 93.5t-28.5 132t28.5 132t83.5 93.5t133 34.5q52 0 101 -25t74 -64v81h63zM421 105q49 55 49 147t-49 147t-131 55t-131 -55t-49 -147t49 -147t131 -55t131 55zM226 573q-30 28 -30 70t30 70 t75 28t75 -28t30 -70t-30 -70t-75 -28t-75 28zM342 603.5q16 15.5 16 39.5t-16 39.5t-41 15.5q-24 0 -40 -15.5t-16 -39.5t16 -39.5t40 -15.5q25 0 41 15.5z"/>
    <glyph glyph-name="aringacute.ss01" horiz-adv-x="599" d="M226 573q-30 28 -30 70q0 35 21.5 61t55.5 34l74 142h85l-109 -141q36 -7 59.5 -33.5t23.5 -62.5q0 -42 -30 -70t-75 -28t-75 28zM261 682.5q-16 -15.5 -16 -39.5t16 -39.5t40 -15.5q25 0 41 15.5t16 39.5t-16 39.5t-41 15.5q-24 0 -40 -15.5zM463 504h63v-504h-63v81 q-17 -37 -66.5 -63t-108.5 -26q-78 0 -133 34.5t-83.5 93.5t-28.5 132t28.5 132t83.5 93.5t133 34.5q52 0 101 -25t74 -64v81zM421 105q49 55 49 147t-49 147t-131 55t-131 -55t-49 -147t49 -147t131 -55t131 55z"/>
    <glyph glyph-name="atilde.ss01" horiz-adv-x="599" d="M526 504v-504h-63v81q-17 -37 -66.5 -63t-108.5 -26q-78 0 -133 34.5t-83.5 93.5t-28.5 132t28.5 132t83.5 93.5t133 34.5q52 0 101 -25t74 -64v81h63zM421 105q49 55 49 147t-49 147t-131 55t-131 -55t-49 -147t49 -147t131 -55t131 55zM141 601q1 41 27.5 66.5 t68.5 25.5q36 0 70 -27q21 -15 35 -22t32 -7q20 0 33 12.5t15 36.5l48 -9q-2 -41 -28.5 -66t-67.5 -25q-19 0 -35.5 7t-35.5 19q-5 3 -18 12.5t-24.5 14t-23.5 4.5q-21 0 -34 -13t-15 -37z"/>
    <glyph glyph-name="ae.ss01" horiz-adv-x="989" d="M944 246h-410q0 -58 23 -102.5t62.5 -69t90.5 -24.5q65 0 107.5 29t53.5 82l60 -12q-17 -75 -75 -116t-145 -41q-60 0 -107.5 24.5t-77.5 69.5v-86h-63v81q-17 -37 -66.5 -63t-108.5 -26q-78 0 -133 34.5t-83.5 93.5t-28.5 132t28.5 132t83.5 93.5t133 34.5q52 0 101 -25 t74 -64v81h63v-86q30 45 77.5 69.5t107.5 24.5q68 0 121.5 -30t83.5 -83t30 -120q0 -19 -2 -33zM421 105q49 55 49 147t-49 147t-131 55t-131 -55t-49 -147t49 -147t131 -55t131 55zM881 304q-8 67 -53 108.5t-117 41.5q-67 0 -112.5 -40t-59.5 -110h342z"/>
    <glyph glyph-name="aeacute.ss01" horiz-adv-x="989" d="M944 246h-410q0 -58 23 -102.5t62.5 -69t90.5 -24.5q65 0 107.5 29t53.5 82l60 -12q-17 -75 -75 -116t-145 -41q-60 0 -107.5 24.5t-77.5 69.5v-86h-63v81q-17 -37 -66.5 -63t-108.5 -26q-78 0 -133 34.5t-83.5 93.5t-28.5 132t28.5 132t83.5 93.5t133 34.5q52 0 101 -25 t74 -64v81h63v-86q30 45 77.5 69.5t107.5 24.5q68 0 121.5 -30t83.5 -83t30 -120q0 -19 -2 -33zM421 105q49 55 49 147t-49 147t-131 55t-131 -55t-49 -147t49 -147t131 -55t131 55zM881 304q-8 67 -53 108.5t-117 41.5q-67 0 -112.5 -40t-59.5 -110h342zM523 560h-47 l77 148h85z"/>
    <glyph glyph-name="g.ss02" horiz-adv-x="520" d="M327 94q74 0 118.5 -32.5t44.5 -99.5q0 -71 -60 -111.5t-165 -40.5t-165 38.5t-60 105.5q0 34 16 61.5t41 44.5q-44 25 -44 82q0 30 18 53t48 37q-40 45 -40 111q0 50 24.5 88.5t66.5 59.5t94 21q47 0 89 -20l85 62l36 -50l-68 -50q44 -47 44 -111q0 -50 -24.5 -88.5 t-67 -59.5t-94.5 -21q-57 0 -102 24q-47 -17 -47 -56q0 -25 19.5 -36.5t48.5 -11.5h144zM178.5 427q-35.5 -31 -35.5 -84t35.5 -84t85.5 -31q51 0 86.5 31t35.5 84t-35.5 84t-86.5 31q-50 0 -85.5 -31zM384.5 -110.5q43.5 23.5 43.5 64.5q0 86 -108 86h-114q-29 0 -53 3 q-51 -29 -51 -91q0 -40 43 -63t120 -23q76 0 119.5 23.5z"/>
    <glyph glyph-name="gbreve.ss02" horiz-adv-x="520" d="M327 94q74 0 118.5 -32.5t44.5 -99.5q0 -71 -60 -111.5t-165 -40.5t-165 38.5t-60 105.5q0 34 16 61.5t41 44.5q-44 25 -44 82q0 30 18 53t48 37q-40 45 -40 111q0 50 24.5 88.5t66.5 59.5t94 21q47 0 89 -20l85 62l36 -50l-68 -50q44 -47 44 -111q0 -50 -24.5 -88.5 t-67 -59.5t-94.5 -21q-57 0 -102 24q-47 -17 -47 -56q0 -25 19.5 -36.5t48.5 -11.5h144zM178.5 427q-35.5 -31 -35.5 -84t35.5 -84t85.5 -31q51 0 86.5 31t35.5 84t-35.5 84t-86.5 31q-50 0 -85.5 -31zM384.5 -110.5q43.5 23.5 43.5 64.5q0 86 -108 86h-114q-29 0 -53 3 q-51 -29 -51 -91q0 -40 43 -63t120 -23q76 0 119.5 23.5zM176 592q-35 35 -35 88h55q0 -30 19.5 -50.5t48.5 -20.5t49 20.5t20 50.5h55q0 -53 -35.5 -88t-88.5 -35t-88 35z"/>
    <glyph glyph-name="gcircumflex.ss02" horiz-adv-x="520" d="M327 94q74 0 118.5 -32.5t44.5 -99.5q0 -71 -60 -111.5t-165 -40.5t-165 38.5t-60 105.5q0 34 16 61.5t41 44.5q-44 25 -44 82q0 30 18 53t48 37q-40 45 -40 111q0 50 24.5 88.5t66.5 59.5t94 21q47 0 89 -20l85 62l36 -50l-68 -50q44 -47 44 -111q0 -50 -24.5 -88.5 t-67 -59.5t-94.5 -21q-57 0 -102 24q-47 -17 -47 -56q0 -25 19.5 -36.5t48.5 -11.5h144zM178.5 427q-35.5 -31 -35.5 -84t35.5 -84t85.5 -31q51 0 86.5 31t35.5 84t-35.5 84t-86.5 31q-50 0 -85.5 -31zM384.5 -110.5q43.5 23.5 43.5 64.5q0 86 -108 86h-114q-29 0 -53 3 q-51 -29 -51 -91q0 -40 43 -63t120 -23q76 0 119.5 23.5zM122 560l118 148h47l118 -148h-56l-85 96l-87 -96h-55z"/>
    <glyph glyph-name="uni0123.ss02" horiz-adv-x="520" d="M327 94q74 0 118.5 -32.5t44.5 -99.5q0 -71 -60 -111.5t-165 -40.5t-165 38.5t-60 105.5q0 34 16 61.5t41 44.5q-44 25 -44 82q0 30 18 53t48 37q-40 45 -40 111q0 50 24.5 88.5t66.5 59.5t94 21q47 0 89 -20l85 62l36 -50l-68 -50q44 -47 44 -111q0 -50 -24.5 -88.5 t-67 -59.5t-94.5 -21q-57 0 -102 24q-47 -17 -47 -56q0 -25 19.5 -36.5t48.5 -11.5h144zM178.5 427q-35.5 -31 -35.5 -84t35.5 -84t85.5 -31q51 0 86.5 31t35.5 84t-35.5 84t-86.5 31q-50 0 -85.5 -31zM384.5 -110.5q43.5 23.5 43.5 64.5q0 86 -108 86h-114q-29 0 -53 3 q-51 -29 -51 -91q0 -40 43 -63t120 -23q76 0 119.5 23.5zM297 708h47l-30 -148h-75z"/>
    <glyph glyph-name="gdotaccent.ss02" horiz-adv-x="520" d="M327 94q74 0 118.5 -32.5t44.5 -99.5q0 -71 -60 -111.5t-165 -40.5t-165 38.5t-60 105.5q0 34 16 61.5t41 44.5q-44 25 -44 82q0 30 18 53t48 37q-40 45 -40 111q0 50 24.5 88.5t66.5 59.5t94 21q47 0 89 -20l85 62l36 -50l-68 -50q44 -47 44 -111q0 -50 -24.5 -88.5 t-67 -59.5t-94.5 -21q-57 0 -102 24q-47 -17 -47 -56q0 -25 19.5 -36.5t48.5 -11.5h144zM178.5 427q-35.5 -31 -35.5 -84t35.5 -84t85.5 -31q51 0 86.5 31t35.5 84t-35.5 84t-86.5 31q-50 0 -85.5 -31zM384.5 -110.5q43.5 23.5 43.5 64.5q0 86 -108 86h-114q-29 0 -53 3 q-51 -29 -51 -91q0 -40 43 -63t120 -23q76 0 119.5 23.5zM229 623q-14 14 -14 35q0 22 14 36t35 14q22 0 36.5 -14t14.5 -36q0 -21 -14.5 -35t-36.5 -14q-21 0 -35 14z"/>
    <glyph glyph-name="f_f.dlig" horiz-adv-x="637" d="M468 504h134v-58h-134v-446h-63v446h-216v-446h-63v446h-88v58h88v52q0 78 37 120.5t97 42.5q36 0 64 -7l-2 -60q-23 9 -54 9q-35 0 -57 -26t-22 -69v-62h216v52q0 78 37 120.5t97 42.5q36 0 64 -7l-2 -60q-23 9 -54 9q-35 0 -57 -26t-22 -69v-62z"/>
    <glyph glyph-name="f_f_i.dlig" horiz-adv-x="759" d="M686 504v-504h-63v446h-205v-446h-63v446h-166v-446h-63v446h-88v58h88v52q0 78 37 120.5t97 42.5q36 0 64 -7l-2 -60q-23 9 -54 9q-35 0 -57 -26t-22 -69v-62h166v52q0 78 37 120.5t97 42.5q36 0 64 -7l-2 -60q-23 9 -54 9q-35 0 -57 -26t-22 -69v-62h268zM690.5 694 q14.5 -14 14.5 -36q0 -21 -14.5 -35t-36.5 -14q-21 0 -35 14t-14 35q0 22 14 36t35 14q22 0 36.5 -14z"/>
    <glyph glyph-name="f_f_l.dlig" horiz-adv-x="778" d="M642 708h63v-708h-63v446h-224v-446h-63v446h-166v-446h-63v446h-88v58h88v52q0 78 37 120.5t97 42.5q36 0 64 -7l-2 -60q-23 9 -54 9q-35 0 -57 -26t-22 -69v-62h166v52q0 78 37 120.5t97 42.5q36 0 64 -7l-2 -60q-23 9 -54 9q-35 0 -57 -26t-22 -69v-62h224v204z"/>
    <glyph glyph-name="f_i.dlig" d="M457 504v-504h-63v446h-205v-446h-63v446h-88v58h88v52q0 78 37 120.5t97 42.5q36 0 64 -7l-2 -60q-23 9 -54 9q-35 0 -57 -26t-22 -69v-62h268zM461.5 694q14.5 -14 14.5 -36q0 -21 -14.5 -35t-36.5 -14q-21 0 -35 14t-14 35q0 22 14 36t35 14q22 0 36.5 -14z"/>
    <glyph glyph-name="f_l.dlig" horiz-adv-x="549" d="M413 708h63v-708h-63v446h-224v-446h-63v446h-88v58h88v52q0 78 37 120.5t97 42.5q36 0 64 -7l-2 -60q-23 9 -54 9q-35 0 -57 -26t-22 -69v-62h224v204z"/>
    <glyph glyph-name="three.ss04" horiz-adv-x="570" d="M157 18q-56 26 -86.5 73.5t-30.5 109.5l69 6q0 -69 48.5 -111t128.5 -42q78 0 126 37.5t48 98.5q0 67 -47.5 102t-130.5 35q-48 0 -57 -1l-1 61q11 -1 42 -1q48 0 85.5 19.5t58.5 51.5t21 69q0 54 -41 87t-107 33q-45 0 -81 -18.5t-56 -51t-19 -71.5l-68 6q0 57 28 102 t79 70t117 25q64 0 113.5 -22.5t77 -64t27.5 -95.5q0 -59 -40.5 -106.5t-104.5 -58.5q78 -2 126 -49.5t48 -121.5q0 -58 -30.5 -103t-85.5 -70t-127 -25q-74 0 -130 26z"/>
    <glyph glyph-name="uni2462.ss04" horiz-adv-x="805" d="M218.5 38.5q-81.5 46.5 -128 128t-46.5 183.5t46.5 183.5t128 128t183.5 46.5t184 -46.5t128.5 -128t46.5 -183.5t-46.5 -183.5t-128.5 -128t-184 -46.5t-183.5 46.5zM559.5 79.5q70.5 40.5 111 111.5t40.5 159t-40.5 159t-111 111.5t-157.5 40.5t-157.5 -40.5 t-110.5 -111.5t-40 -159t40 -159t110.5 -111.5t157.5 -40.5t157.5 40.5zM305.5 195q-38.5 32 -38.5 85l55 3q0 -31 23 -51.5t59 -20.5q37 0 60 18t23 46q0 32 -23 49t-62 17h-39v46l32 -1q34 0 54.5 20t20.5 50q0 25 -19 39t-50 14q-30 0 -51.5 -19t-20.5 -47l-53 4 q0 46 35.5 77.5t89.5 31.5t89.5 -28t35.5 -73q0 -32 -21.5 -57.5t-55.5 -31.5q42 -2 67.5 -28t25.5 -65q0 -49 -38 -79.5t-99 -30.5t-99.5 32z"/>
    <glyph glyph-name="zero.tf" horiz-adv-x="600" d="M104 88.5q-66 96.5 -66 261.5t66 261.5t193 96.5t193 -96.5t66 -261.5t-66 -261.5t-193 -96.5t-193 96.5zM436.5 134q49.5 80 49.5 216t-49.5 216t-139.5 80q-91 0 -140 -80t-49 -216t49 -216t140 -80q90 0 139.5 80z"/>
    <glyph glyph-name="one.tf" horiz-adv-x="600" d="M357 62h179v-62h-455v62h211v543q-33 -33 -73 -51.5t-95 -28.5v60q112 23 178 115h55v-638z"/>
    <glyph glyph-name="two.tf" horiz-adv-x="600" d="M61 0v62l270 237q64 56 93 105t29 100q0 65 -40 103.5t-108 38.5q-74 0 -116.5 -42t-42.5 -115q0 -18 1 -27l-66 5q-4 72 22 126.5t78 84.5t124 30q99 0 158.5 -55.5t59.5 -148.5q0 -63 -35.5 -123.5t-113.5 -128.5l-218 -190h367v-62h-462z"/>
    <glyph glyph-name="three.tf" horiz-adv-x="600" d="M129.5 46.5q-66.5 54.5 -76.5 145.5l65 9q7 -67 56 -107t123 -40q80 0 128.5 44.5t48.5 117.5q0 76 -45 117.5t-126 41.5q-44 0 -76 -20l-32 41l237 242h-359v62h437v-62l-209 -212q22 2 33 2q62 0 109.5 -26t74 -74t26.5 -112q0 -66 -30.5 -117t-86.5 -79t-130 -28 q-101 0 -167.5 54.5z"/>
    <glyph glyph-name="four.tf" horiz-adv-x="600" d="M464 0h-67v185h-378v62l362 453h83v-453h106v-62h-106v-185zM397 627l-303 -380h303v380z"/>
    <glyph glyph-name="five.tf" horiz-adv-x="600" d="M145 44.5q-68 52.5 -81 139.5l64 11q10 -64 60.5 -102.5t123.5 -38.5q77 0 123.5 48.5t46.5 127.5q0 82 -48.5 129t-132.5 47q-54 0 -97.5 -24t-70.5 -68l-48 10l53 376h366v-62h-316l-33 -232q29 27 71 44.5t80 17.5q74 0 129.5 -29.5t86 -83.5t30.5 -125t-29.5 -125 t-83.5 -83.5t-126 -29.5q-100 0 -168 52.5z"/>
    <glyph glyph-name="six.tf" horiz-adv-x="600" d="M432.5 437.5q56.5 -30.5 88 -85t31.5 -122.5q0 -69 -31.5 -123t-88 -84.5t-128.5 -30.5q-77 0 -134.5 38.5t-89 110t-31.5 167.5q0 126 39.5 216t111.5 137t169 47q51 0 98.5 -15t85.5 -45l-37 -56q-62 54 -150 54q-72 0 -130 -38.5t-91.5 -106t-33.5 -151.5 q24 53 77.5 85.5t115.5 32.5q72 0 128.5 -30.5zM395.5 76.5q40.5 22.5 63.5 63t23 91.5q0 50 -23 90t-63.5 62.5t-91.5 22.5t-91.5 -22.5t-63.5 -62.5t-23 -90q0 -51 23 -91.5t63.5 -63t91.5 -22.5t91.5 22.5z"/>
    <glyph glyph-name="seven.tf" horiz-adv-x="600" d="M562 638q-300 -377 -323 -638h-69q16 149 104 313.5t219 324.5h-366v-134h-63v196h498v-62z"/>
    <glyph glyph-name="eight.tf" horiz-adv-x="600" d="M172 17.5q-56 25.5 -86.5 72.5t-30.5 109t37 110.5t99 67.5q-49 22 -78.5 62.5t-29.5 86.5q0 83 59.5 132.5t159.5 49.5q97 0 155.5 -49.5t58.5 -132.5q0 -47 -29 -87.5t-78 -61.5q62 -19 99 -67.5t37 -110.5t-30 -109t-85 -72.5t-128 -25.5q-74 0 -130 25.5zM406.5 436 q39.5 34 39.5 90q0 55 -39.5 87.5t-104.5 32.5q-68 0 -108.5 -32.5t-40.5 -87.5q0 -56 40.5 -90t108.5 -34q65 0 104.5 34zM427.5 93.5q47.5 39.5 47.5 105.5t-47.5 105.5t-126.5 39.5q-80 0 -128 -39.5t-48 -105.5t48 -105.5t128 -39.5q79 0 126.5 39.5z"/>
    <glyph glyph-name="nine.tf" horiz-adv-x="600" d="M167.5 270.5q-56.5 30.5 -88 85t-31.5 122.5q0 69 31.5 123t88 84.5t128.5 30.5q77 0 134.5 -38.5t89 -110t31.5 -167.5q0 -126 -39.5 -216t-111.5 -137t-169 -47q-51 0 -98.5 15t-85.5 45l37 56q62 -54 150 -54q72 0 130 38.5t91.5 106t33.5 151.5q-24 -53 -77.5 -85.5 t-115.5 -32.5q-72 0 -128.5 30.5zM204.5 631.5q-40.5 -22.5 -63.5 -63t-23 -91.5q0 -50 23 -90t63.5 -62.5t91.5 -22.5t91.5 22.5t63.5 62.5t23 90q0 51 -23 91.5t-63.5 63t-91.5 22.5t-91.5 -22.5z"/>
    <glyph glyph-name="three.tf.ss04" horiz-adv-x="600" d="M185 18q-56 26 -86.5 73.5t-30.5 109.5l69 6q0 -69 48.5 -111t128.5 -42q78 0 126 37.5t48 98.5q0 67 -47.5 102t-130.5 35q-48 0 -57 -1l-1 61q11 -1 42 -1q48 0 85.5 19.5t58.5 51.5t21 69q0 54 -41 87t-107 33q-45 0 -81 -18.5t-56 -51t-19 -71.5l-68 6q0 57 28 102 t79 70t117 25q64 0 113.5 -22.5t77 -64t27.5 -95.5q0 -59 -40.5 -106.5t-104.5 -58.5q78 -2 126 -49.5t48 -121.5q0 -58 -30.5 -103t-85.5 -70t-127 -25q-74 0 -130 26z"/>
    <glyph glyph-name="zero.subs" horiz-adv-x="352" d="M63.5 -120.5q-39.5 53.5 -39.5 143.5t39.5 143t112.5 53q72 0 112 -53.5t40 -142.5q0 -90 -40 -143.5t-112 -53.5q-73 0 -112.5 53.5zM245.5 -84.5q24.5 39.5 24.5 107.5t-24.5 107t-69.5 39t-69.5 -39t-24.5 -107t24.5 -107.5t69.5 -39.5t69.5 39.5z"/>
    <glyph glyph-name="one.subs" horiz-adv-x="203" d="M109 155q-45 -30 -79 -39v51q40 12 89 48h43v-385h-53v325z"/>
    <glyph glyph-name="two.subs" horiz-adv-x="327" d="M31 -170v48l130 111q40 33 57.5 60t17.5 54q0 30 -19 48t-51 18q-39 0 -59 -25t-16 -67l-54 5q-4 61 32 99t97 38q58 0 93 -32t35 -84q0 -36 -22.5 -70.5t-73.5 -77.5l-90 -75h186v-50h-263z"/>
    <glyph glyph-name="three.subs" horiz-adv-x="328" d="M67.5 -143.5q-38.5 30.5 -43.5 80.5l53 8q4 -31 27.5 -50t58.5 -19q38 0 61 20.5t23 55.5q0 36 -21.5 55.5t-59.5 19.5q-24 0 -42 -12l-25 37l117 115h-181v48h248v-48l-106 -102l15 1q51 0 82 -31.5t31 -83.5q0 -57 -38.5 -91t-103.5 -34q-57 0 -95.5 30.5z"/>
    <glyph glyph-name="four.subs" horiz-adv-x="365" d="M284 -170h-57v90h-203v50l196 245h64v-245h57v-50h-57v-90zM227 150l-143 -180h143v180z"/>
    <glyph glyph-name="five.subs" horiz-adv-x="325" d="M69.5 -145.5q-37.5 28.5 -45.5 77.5l52 9q5 -29 28.5 -47t57.5 -18q36 0 58 22.5t22 58.5q0 38 -22.5 60.5t-61.5 22.5q-54 0 -83 -45l-40 9l30 211h207v-50h-166l-16 -109q16 14 37 22.5t42 8.5q59 0 95 -36t36 -94q0 -59 -37 -95t-98 -36q-58 0 -95.5 28.5z"/>
    <glyph glyph-name="six.subs" horiz-adv-x="351" d="M279.5 51q38.5 -37 38.5 -94q0 -58 -39.5 -94.5t-101.5 -36.5q-65 0 -105 48.5t-40 128.5q0 69 23.5 118t64 74t92.5 25q30 0 58 -9.5t48 -27.5l-28 -40q-31 27 -79 27q-54 0 -89 -39t-37 -100q12 26 39 41.5t58 15.5q59 0 97.5 -37zM238 -100q24 24 24 62q0 35 -24.5 57 t-60.5 22q-37 0 -60 -22.5t-23 -58.5q0 -37 23 -60.5t60 -23.5t61 24z"/>
    <glyph glyph-name="seven.subs" horiz-adv-x="298" d="M59 -170q26 87 69 173.5t102 161.5h-211v50h265v-50q-61 -82 -104.5 -169t-64.5 -166h-56z"/>
    <glyph glyph-name="eight.subs" horiz-adv-x="342" d="M71 -142.5q-39 31.5 -39 83.5q0 33 20 59.5t52 36.5q-25 12 -40.5 34t-15.5 47q0 44 34.5 72.5t89.5 28.5q54 0 87.5 -28.5t33.5 -72.5q0 -26 -15.5 -48t-41.5 -33q33 -10 53.5 -36t20.5 -60q0 -52 -38.5 -83.5t-99.5 -31.5q-62 0 -101 31.5zM220.5 74.5 q18.5 15.5 18.5 40.5q0 26 -18.5 42t-48.5 16q-32 0 -50.5 -15.5t-18.5 -42.5q0 -26 19 -41t50 -15q30 0 48.5 15.5zM230.5 -107.5q21.5 18.5 21.5 50.5q0 30 -22 48.5t-59 18.5t-59.5 -18.5t-22.5 -48.5q0 -32 22 -50.5t60 -18.5t59.5 18.5z"/>
    <glyph glyph-name="nine.subs" horiz-adv-x="351" d="M71.5 -6q-38.5 37 -38.5 94q0 58 39.5 94.5t101.5 36.5q65 0 105 -48.5t40 -128.5q0 -69 -23.5 -118t-64 -74t-92.5 -25q-30 0 -58 9.5t-48 27.5l28 40q32 -27 79 -27q54 0 89 39t37 100q-12 -26 -39 -41.5t-58 -15.5q-59 0 -97.5 37zM113 145q-24 -24 -24 -62 q0 -35 24.5 -57t60.5 -22q37 0 60 22.5t23 58.5q0 37 -23 60.5t-60 23.5t-61 -24z"/>
    <glyph glyph-name="zero.dnom" horiz-adv-x="352" d="M63.5 49.5q-39.5 53.5 -39.5 143.5t39.5 143t112.5 53q72 0 112 -53.5t40 -142.5q0 -90 -40 -143.5t-112 -53.5q-73 0 -112.5 53.5zM245.5 85.5q24.5 39.5 24.5 107.5t-24.5 107t-69.5 39t-69.5 -39t-24.5 -107t24.5 -107.5t69.5 -39.5t69.5 39.5z"/>
    <glyph glyph-name="one.dnom" horiz-adv-x="203" d="M109 325q-45 -30 -79 -39v51q40 12 89 48h43v-385h-53v325z"/>
    <glyph glyph-name="two.dnom" horiz-adv-x="327" d="M31 0v48l130 111q40 33 57.5 60t17.5 54q0 30 -19 48t-51 18q-39 0 -59 -25t-16 -67l-54 5q-4 61 32 99t97 38q58 0 93 -32t35 -84q0 -36 -22.5 -70.5t-73.5 -77.5l-90 -75h186v-50h-263z"/>
    <glyph glyph-name="three.dnom" horiz-adv-x="328" d="M67.5 26.5q-38.5 30.5 -43.5 80.5l53 8q4 -31 27.5 -50t58.5 -19q38 0 61 20.5t23 55.5q0 36 -21.5 55.5t-59.5 19.5q-24 0 -42 -12l-25 37l117 115h-181v48h248v-48l-106 -102l15 1q51 0 82 -31.5t31 -83.5q0 -57 -38.5 -91t-103.5 -34q-57 0 -95.5 30.5z"/>
    <glyph glyph-name="four.dnom" horiz-adv-x="365" d="M284 0h-57v90h-203v50l196 245h64v-245h57v-50h-57v-90zM227 320l-143 -180h143v180z"/>
    <glyph glyph-name="five.dnom" horiz-adv-x="325" d="M69.5 24.5q-37.5 28.5 -45.5 77.5l52 9q5 -29 28.5 -47t57.5 -18q36 0 58 22.5t22 58.5q0 38 -22.5 60.5t-61.5 22.5q-54 0 -83 -45l-40 9l30 211h207v-50h-166l-16 -109q16 14 37 22.5t42 8.5q59 0 95 -36t36 -94q0 -59 -37 -95t-98 -36q-58 0 -95.5 28.5z"/>
    <glyph glyph-name="six.dnom" horiz-adv-x="351" d="M279.5 221q38.5 -37 38.5 -94q0 -58 -39.5 -94.5t-101.5 -36.5q-65 0 -105 48.5t-40 128.5q0 69 23.5 118t64 74t92.5 25q30 0 58 -9.5t48 -27.5l-28 -40q-31 27 -79 27q-54 0 -89 -39t-37 -100q12 26 39 41.5t58 15.5q59 0 97.5 -37zM238 70q24 24 24 62q0 35 -24.5 57 t-60.5 22q-37 0 -60 -22.5t-23 -58.5q0 -37 23 -60.5t60 -23.5t61 24z"/>
    <glyph glyph-name="seven.dnom" horiz-adv-x="298" d="M59 0q26 87 69 173.5t102 161.5h-211v50h265v-50q-61 -82 -104.5 -169t-64.5 -166h-56z"/>
    <glyph glyph-name="eight.dnom" horiz-adv-x="342" d="M71 27.5q-39 31.5 -39 83.5q0 33 20 59.5t52 36.5q-25 12 -40.5 34t-15.5 47q0 44 34.5 72.5t89.5 28.5q54 0 87.5 -28.5t33.5 -72.5q0 -26 -15.5 -48t-41.5 -33q33 -10 53.5 -36t20.5 -60q0 -52 -38.5 -83.5t-99.5 -31.5q-62 0 -101 31.5zM220.5 244.5 q18.5 15.5 18.5 40.5q0 26 -18.5 42t-48.5 16q-32 0 -50.5 -15.5t-18.5 -42.5q0 -26 19 -41t50 -15q30 0 48.5 15.5zM230.5 62.5q21.5 18.5 21.5 50.5q0 30 -22 48.5t-59 18.5t-59.5 -18.5t-22.5 -48.5q0 -32 22 -50.5t60 -18.5t59.5 18.5z"/>
    <glyph glyph-name="nine.dnom" horiz-adv-x="351" d="M71.5 164q-38.5 37 -38.5 94q0 58 39.5 94.5t101.5 36.5q65 0 105 -48.5t40 -128.5q0 -69 -23.5 -118t-64 -74t-92.5 -25q-30 0 -58 9.5t-48 27.5l28 40q32 -27 79 -27q54 0 89 39t37 100q-12 -26 -39 -41.5t-58 -15.5q-59 0 -97.5 37zM113 315q-24 -24 -24 -62 q0 -35 24.5 -57t60.5 -22q37 0 60 22.5t23 58.5q0 37 -23 60.5t-60 23.5t-61 -24z"/>
    <glyph glyph-name="zero.numr" horiz-adv-x="352" d="M63.5 364.5q-39.5 53.5 -39.5 143.5t39.5 143t112.5 53q72 0 112 -53.5t40 -142.5q0 -90 -40 -143.5t-112 -53.5q-73 0 -112.5 53.5zM245.5 400.5q24.5 39.5 24.5 107.5t-24.5 107t-69.5 39t-69.5 -39t-24.5 -107t24.5 -107.5t69.5 -39.5t69.5 39.5z"/>
    <glyph glyph-name="one.numr" horiz-adv-x="203" d="M109 640q-45 -30 -79 -39v51q40 12 89 48h43v-385h-53v325z"/>
    <glyph glyph-name="two.numr" horiz-adv-x="327" d="M31 315v48l130 111q40 33 57.5 60t17.5 54q0 30 -19 48t-51 18q-39 0 -59 -25t-16 -67l-54 5q-4 61 32 99t97 38q58 0 93 -32t35 -84q0 -36 -22.5 -70.5t-73.5 -77.5l-90 -75h186v-50h-263z"/>
    <glyph glyph-name="three.numr" horiz-adv-x="328" d="M67.5 341.5q-38.5 30.5 -43.5 80.5l53 8q4 -31 27.5 -50t58.5 -19q38 0 61 20.5t23 55.5q0 36 -21.5 55.5t-59.5 19.5q-24 0 -42 -12l-25 37l117 115h-181v48h248v-48l-106 -102l15 1q51 0 82 -31.5t31 -83.5q0 -57 -38.5 -91t-103.5 -34q-57 0 -95.5 30.5z"/>
    <glyph glyph-name="four.numr" horiz-adv-x="365" d="M284 315h-57v90h-203v50l196 245h64v-245h57v-50h-57v-90zM227 635l-143 -180h143v180z"/>
    <glyph glyph-name="five.numr" horiz-adv-x="325" d="M69.5 339.5q-37.5 28.5 -45.5 77.5l52 9q5 -29 28.5 -47t57.5 -18q36 0 58 22.5t22 58.5q0 38 -22.5 60.5t-61.5 22.5q-54 0 -83 -45l-40 9l30 211h207v-50h-166l-16 -109q16 14 37 22.5t42 8.5q59 0 95 -36t36 -94q0 -59 -37 -95t-98 -36q-58 0 -95.5 28.5z"/>
    <glyph glyph-name="six.numr" horiz-adv-x="351" d="M279.5 536q38.5 -37 38.5 -94q0 -58 -39.5 -94.5t-101.5 -36.5q-65 0 -105 48.5t-40 128.5q0 69 23.5 118t64 74t92.5 25q30 0 58 -9.5t48 -27.5l-28 -40q-31 27 -79 27q-54 0 -89 -39t-37 -100q12 26 39 41.5t58 15.5q59 0 97.5 -37zM238 385q24 24 24 62q0 35 -24.5 57 t-60.5 22q-37 0 -60 -22.5t-23 -58.5q0 -37 23 -60.5t60 -23.5t61 24z"/>
    <glyph glyph-name="seven.numr" horiz-adv-x="298" d="M59 315q26 87 69 173.5t102 161.5h-211v50h265v-50q-61 -82 -104.5 -169t-64.5 -166h-56z"/>
    <glyph glyph-name="eight.numr" horiz-adv-x="342" d="M71 342.5q-39 31.5 -39 83.5q0 33 20 59.5t52 36.5q-25 12 -40.5 34t-15.5 47q0 44 34.5 72.5t89.5 28.5q54 0 87.5 -28.5t33.5 -72.5q0 -26 -15.5 -48t-41.5 -33q33 -10 53.5 -36t20.5 -60q0 -52 -38.5 -83.5t-99.5 -31.5q-62 0 -101 31.5zM220.5 559.5 q18.5 15.5 18.5 40.5q0 26 -18.5 42t-48.5 16q-32 0 -50.5 -15.5t-18.5 -42.5q0 -26 19 -41t50 -15q30 0 48.5 15.5zM230.5 377.5q21.5 18.5 21.5 50.5q0 30 -22 48.5t-59 18.5t-59.5 -18.5t-22.5 -48.5q0 -32 22 -50.5t60 -18.5t59.5 18.5z"/>
    <glyph glyph-name="nine.numr" horiz-adv-x="351" d="M71.5 479q-38.5 37 -38.5 94q0 58 39.5 94.5t101.5 36.5q65 0 105 -48.5t40 -128.5q0 -69 -23.5 -118t-64 -74t-92.5 -25q-30 0 -58 9.5t-48 27.5l28 40q32 -27 79 -27q54 0 89 39t37 100q-12 -26 -39 -41.5t-58 -15.5q-59 0 -97.5 37zM113 630q-24 -24 -24 -62 q0 -35 24.5 -57t60.5 -22q37 0 60 22.5t23 58.5q0 37 -23 60.5t-60 23.5t-61 -24z"/>
    <glyph glyph-name="zero.sups" horiz-adv-x="352" d="M63.5 424.5q-39.5 53.5 -39.5 143.5t39.5 143t112.5 53q72 0 112 -53.5t40 -142.5q0 -90 -40 -143.5t-112 -53.5q-73 0 -112.5 53.5zM245.5 460.5q24.5 39.5 24.5 107.5t-24.5 107t-69.5 39t-69.5 -39t-24.5 -107t24.5 -107.5t69.5 -39.5t69.5 39.5z"/>
    <glyph glyph-name="one.sups" horiz-adv-x="203" d="M109 700q-45 -30 -79 -39v51q40 12 89 48h43v-385h-53v325z"/>
    <glyph glyph-name="two.sups" horiz-adv-x="327" d="M31 375v48l130 111q40 33 57.5 60t17.5 54q0 30 -19 48t-51 18q-39 0 -59 -25t-16 -67l-54 5q-4 61 32 99t97 38q58 0 93 -32t35 -84q0 -36 -22.5 -70.5t-73.5 -77.5l-90 -75h186v-50h-263z"/>
    <glyph glyph-name="three.sups" horiz-adv-x="328" d="M67.5 401.5q-38.5 30.5 -43.5 80.5l53 8q4 -31 27.5 -50t58.5 -19q38 0 61 20.5t23 55.5q0 36 -21.5 55.5t-59.5 19.5q-24 0 -42 -12l-25 37l117 115h-181v48h248v-48l-106 -102l15 1q51 0 82 -31.5t31 -83.5q0 -57 -38.5 -91t-103.5 -34q-57 0 -95.5 30.5z"/>
    <glyph glyph-name="four.sups" horiz-adv-x="365" d="M284 375h-57v90h-203v50l196 245h64v-245h57v-50h-57v-90zM227 695l-143 -180h143v180z"/>
    <glyph glyph-name="five.sups" horiz-adv-x="325" d="M69.5 399.5q-37.5 28.5 -45.5 77.5l52 9q5 -29 28.5 -47t57.5 -18q36 0 58 22.5t22 58.5q0 38 -22.5 60.5t-61.5 22.5q-54 0 -83 -45l-40 9l30 211h207v-50h-166l-16 -109q16 14 37 22.5t42 8.5q59 0 95 -36t36 -94q0 -59 -37 -95t-98 -36q-58 0 -95.5 28.5z"/>
    <glyph glyph-name="six.sups" horiz-adv-x="351" d="M279.5 596q38.5 -37 38.5 -94q0 -58 -39.5 -94.5t-101.5 -36.5q-65 0 -105 48.5t-40 128.5q0 69 23.5 118t64 74t92.5 25q30 0 58 -9.5t48 -27.5l-28 -40q-31 27 -79 27q-54 0 -89 -39t-37 -100q12 26 39 41.5t58 15.5q59 0 97.5 -37zM238 445q24 24 24 62q0 35 -24.5 57 t-60.5 22q-37 0 -60 -22.5t-23 -58.5q0 -37 23 -60.5t60 -23.5t61 24z"/>
    <glyph glyph-name="seven.sups" horiz-adv-x="298" d="M59 375q26 87 69 173.5t102 161.5h-211v50h265v-50q-61 -82 -104.5 -169t-64.5 -166h-56z"/>
    <glyph glyph-name="eight.sups" horiz-adv-x="342" d="M71 402.5q-39 31.5 -39 83.5q0 33 20 59.5t52 36.5q-25 12 -40.5 34t-15.5 47q0 44 34.5 72.5t89.5 28.5q54 0 87.5 -28.5t33.5 -72.5q0 -26 -15.5 -48t-41.5 -33q33 -10 53.5 -36t20.5 -60q0 -52 -38.5 -83.5t-99.5 -31.5q-62 0 -101 31.5zM220.5 619.5 q18.5 15.5 18.5 40.5q0 26 -18.5 42t-48.5 16q-32 0 -50.5 -15.5t-18.5 -42.5q0 -26 19 -41t50 -15q30 0 48.5 15.5zM230.5 437.5q21.5 18.5 21.5 50.5q0 30 -22 48.5t-59 18.5t-59.5 -18.5t-22.5 -48.5q0 -32 22 -50.5t60 -18.5t59.5 18.5z"/>
    <glyph glyph-name="nine.sups" horiz-adv-x="351" d="M71 539q-38 37 -38 94t40 94t101 37q65 0 104.5 -48.5t39.5 -128.5q0 -103 -50 -160t-129 -57q-29 0 -57.5 9.5t-49.5 27.5l28 40q33 -27 79 -27q55 0 90.5 39t37.5 100q-13 -25 -40 -41t-58 -16q-60 0 -98 37zM114 691q-23 -23 -23 -60t23 -59.5t59 -22.5q37 0 61 23 t24 59t-24 59.5t-61 23.5q-36 0 -59 -23z"/>
    <glyph glyph-name="three.subs.ss04" horiz-adv-x="322" d="M62.5 -142q-38.5 32 -38.5 85l55 3q0 -31 23 -51.5t59 -20.5q37 0 60 18t23 46q0 32 -23 49t-62 17h-39v46l32 -1q34 0 54.5 20t20.5 50q0 25 -19 39t-50 14q-30 0 -51.5 -19t-20.5 -47l-53 4q0 46 35.5 77.5t89.5 31.5t89.5 -28t35.5 -73q0 -32 -21.5 -57.5t-55.5 -31.5 q42 -2 67.5 -28t25.5 -65q0 -49 -38 -79.5t-99 -30.5t-99.5 32z"/>
    <glyph glyph-name="three.dnom.ss04" horiz-adv-x="322" d="M62.5 28q-38.5 32 -38.5 85l55 3q0 -31 23 -51.5t59 -20.5q37 0 60 18t23 46q0 32 -23 49t-62 17h-39v46l32 -1q34 0 54.5 20t20.5 50q0 25 -19 39t-50 14q-30 0 -51.5 -19t-20.5 -47l-53 4q0 46 35.5 77.5t89.5 31.5t89.5 -28t35.5 -73q0 -32 -21.5 -57.5t-55.5 -31.5 q42 -2 67.5 -28t25.5 -65q0 -49 -38 -79.5t-99 -30.5t-99.5 32z"/>
    <glyph glyph-name="three.numr.ss04" horiz-adv-x="322" d="M62.5 343q-38.5 32 -38.5 85l55 3q0 -31 23 -51.5t59 -20.5q37 0 60 18t23 46q0 32 -23 49t-62 17h-39v46l32 -1q34 0 54.5 20t20.5 50q0 25 -19 39t-50 14q-30 0 -51.5 -19t-20.5 -47l-53 4q0 46 35.5 77.5t89.5 31.5t89.5 -28t35.5 -73q0 -32 -21.5 -57.5t-55.5 -31.5 q42 -2 67.5 -28t25.5 -65q0 -49 -38 -79.5t-99 -30.5t-99.5 32z"/>
    <glyph glyph-name="uni00B3.ss04" horiz-adv-x="331" d="M62.5 403q-38.5 32 -38.5 85l55 3q0 -31 23 -51.5t59 -20.5q37 0 60 18t23 46q0 32 -23 49t-62 17h-39v46l32 -1q34 0 54.5 20t20.5 50q0 25 -19 39t-50 14q-30 0 -51.5 -19t-20.5 -47l-53 4q0 46 35.5 77.5t89.5 31.5t89.5 -28t35.5 -73q0 -32 -21.5 -57.5t-55.5 -31.5 q42 -2 67.5 -28t25.5 -65q0 -49 -38 -79.5t-99 -30.5t-99.5 32z"/>
    <glyph glyph-name="three.sups.ss04" horiz-adv-x="331" d="M62.5 403q-38.5 32 -38.5 85l55 3q0 -31 23 -51.5t59 -20.5q37 0 60 18t23 46q0 32 -23 49t-62 17h-39v46l32 -1q34 0 54.5 20t20.5 50q0 25 -19 39t-50 14q-30 0 -51.5 -19t-20.5 -47l-53 4q0 46 35.5 77.5t89.5 31.5t89.5 -28t35.5 -73q0 -32 -21.5 -57.5t-55.5 -31.5 q42 -2 67.5 -28t25.5 -65q0 -49 -38 -79.5t-99 -30.5t-99.5 32z"/>
    <glyph glyph-name="colon.case" horiz-adv-x="249" d="M87.5 514q-14.5 14 -14.5 37q0 22 14.5 36.5t37.5 14.5q22 0 36.5 -14.5t14.5 -36.5t-14.5 -36.5t-36.5 -14.5q-23 0 -37.5 14zM87.5 96q-14.5 14 -14.5 37q0 22 14.5 36.5t37.5 14.5q22 0 36.5 -14.5t14.5 -36.5t-14.5 -36.5t-36.5 -14.5q-23 0 -37.5 14z"/>
    <glyph glyph-name="bullet.case" horiz-adv-x="488" d="M144 169q-46 27 -73 72.5t-27 100.5q0 54 27 100t73.5 73t101.5 27q54 0 99.5 -27t72 -73t26.5 -100q0 -55 -26.5 -100.5t-72 -72.5t-99.5 -27q-56 0 -102 27z"/>
    <glyph glyph-name="period.tf" horiz-adv-x="600" d="M263.5 6q-14.5 14 -14.5 37q0 22 14.5 36.5t37.5 14.5q22 0 36.5 -14.5t14.5 -36.5t-14.5 -36.5t-36.5 -14.5q-23 0 -37.5 14z"/>
    <glyph glyph-name="comma.tf" horiz-adv-x="600" d="M253 -96h-47l54 185h95z"/>
    <glyph glyph-name="parenleft.case" horiz-adv-x="261" d="M192 -141q-72 95 -112 216.5t-40 242.5t40 242t112 216l44 -33q-133 -204 -133 -425q0 -219 133 -425z"/>
    <glyph glyph-name="parenright.case" horiz-adv-x="261" d="M25 -107q133 206 133 425q0 221 -133 425l44 33q72 -95 112 -216t40 -242t-40 -242.5t-112 -216.5z"/>
    <glyph glyph-name="braceleft.case" horiz-adv-x="310" d="M238 -105q-46 0 -73.5 30.5t-27.5 80.5v208q0 51 -20 73t-66 23v54q46 1 66 23t20 72v209q0 50 27.5 80t73.5 30h45v-53h-31q-30 0 -43.5 -14t-13.5 -43v-225q0 -46 -17.5 -70t-51.5 -36q34 -13 51.5 -37t17.5 -70v-225q0 -29 13.5 -42.5t43.5 -13.5h31v-54h-45z"/>
    <glyph glyph-name="braceright.case" horiz-adv-x="310" d="M27 -105v54h31q30 0 43.5 13.5t13.5 42.5v225q0 46 17.5 70t51.5 37q-34 12 -51.5 36t-17.5 70v225q0 29 -13.5 43t-43.5 14h-31v53h45q46 0 73.5 -30t27.5 -80v-209q0 -50 20 -72t66 -23v-54q-46 -1 -66 -23t-20 -73v-208q0 -50 -27.5 -80.5t-73.5 -30.5h-45z"/>
    <glyph glyph-name="bracketleft.case" horiz-adv-x="296" d="M262 -114h-186v889h186v-50h-130v-789h130v-50z"/>
    <glyph glyph-name="bracketright.case" horiz-adv-x="296" d="M220 775v-889h-186v50h130v789h-130v50h186z"/>
    <glyph glyph-name="hyphen.case" horiz-adv-x="340" d="M310 340h-280v56h280v-56z"/>
    <glyph glyph-name="uni00AD.case" horiz-adv-x="340" d="M310 340h-280v56h280v-56z"/>
    <glyph glyph-name="endash.case" horiz-adv-x="500" d="M475 340h-450v56h450v-56z"/>
    <glyph glyph-name="emdash.case" horiz-adv-x="1000" d="M975 340h-950v56h950v-56z"/>
    <glyph glyph-name="quotesinglbase.ss05" horiz-adv-x="186" d="M141.5 15.5q-4.5 -11.5 -22.5 -46.5l-27 -53h-40l30 73q-18 5 -30 19t-12 33q0 22 16 37.5t38 15.5t37 -15.5t15 -37.5q0 -14 -4.5 -25.5z"/>
    <glyph glyph-name="quotedblbase.ss05" horiz-adv-x="322" d="M141.5 15.5q-4.5 -11.5 -22.5 -46.5l-27 -53h-40l30 73q-18 5 -30 19t-12 33q0 22 16 37.5t38 15.5t37 -15.5t15 -37.5q0 -14 -4.5 -25.5zM277.5 15.5q-4.5 -11.5 -22.5 -46.5l-27 -53h-40l30 73q-18 5 -30 19t-12 33q0 22 16 37.5t38 15.5t37 -15.5t15 -37.5 q0 -14 -4.5 -25.5z"/>
    <glyph glyph-name="quotedblleft.ss05" horiz-adv-x="322" d="M44.5 608.5q4.5 11.5 22.5 46.5l27 53h40l-30 -73q18 -5 30 -19t12 -33q0 -22 -16 -37.5t-38 -15.5t-37 15.5t-15 37.5q0 14 4.5 25.5zM180.5 608.5q4.5 11.5 22.5 46.5l27 53h40l-30 -73q18 -5 30 -19t12 -33q0 -22 -16 -37.5t-38 -15.5t-37 15.5t-15 37.5 q0 14 4.5 25.5z"/>
    <glyph glyph-name="quotedblright.ss05" horiz-adv-x="322" d="M141.5 634.5q-4.5 -11.5 -22.5 -46.5l-27 -53h-40l30 73q-18 5 -30 19t-12 33q0 22 16 37.5t38 15.5t37 -15.5t15 -37.5q0 -14 -4.5 -25.5zM277.5 634.5q-4.5 -11.5 -22.5 -46.5l-27 -53h-40l30 73q-18 5 -30 19t-12 33q0 22 16 37.5t38 15.5t37 -15.5t15 -37.5 q0 -14 -4.5 -25.5z"/>
    <glyph glyph-name="quoteleft.ss05" horiz-adv-x="186" d="M44.5 608.5q4.5 11.5 22.5 46.5l27 53h40l-30 -73q18 -5 30 -19t12 -33q0 -22 -16 -37.5t-38 -15.5t-37 15.5t-15 37.5q0 14 4.5 25.5z"/>
    <glyph glyph-name="quoteright.ss05" horiz-adv-x="186" d="M141.5 634.5q-4.5 -11.5 -22.5 -46.5l-27 -53h-40l30 73q-18 5 -30 19t-12 33q0 22 16 37.5t38 15.5t37 -15.5t15 -37.5q0 -14 -4.5 -25.5z"/>
    <glyph glyph-name="space.tf" horiz-adv-x="600"/>
    <glyph glyph-name="percent.part" horiz-adv-x="401" d="M116.5 379.5q-37.5 23.5 -58.5 63.5t-21 89t21 89t58.5 63.5t84.5 23.5t84 -23.5t58 -63.5t21 -89t-21 -89t-58 -63.5t-84 -23.5t-84.5 23.5zM275.5 442q28.5 34 28.5 90t-28.5 90t-74.5 34q-47 0 -75.5 -34t-28.5 -90t28.5 -90t75.5 -34q46 0 74.5 34z"/>
    <glyph glyph-name="at.case" horiz-adv-x="909" d="M577 517h58v-287q0 -29 18.5 -50t43.5 -21q48 0 78 51.5t30 135.5q0 87 -45 158t-124.5 112t-176.5 41q-100 0 -181 -46t-127.5 -126t-46.5 -179q0 -104 45 -184.5t127 -125.5t188 -45q72 0 133 18.5t137 59.5l26 -55q-84 -41 -151.5 -59t-143.5 -18q-124 0 -219.5 51 t-148 144t-52.5 214q0 115 54 207.5t148.5 145t211.5 52.5q114 0 207 -47.5t145.5 -130.5t52.5 -187q0 -73 -20.5 -128.5t-58.5 -86t-88 -30.5q-36 0 -65 18.5t-42 49.5q-20 -36 -60.5 -56.5t-92.5 -20.5q-92 0 -147.5 59t-55.5 157q0 60 26.5 109.5t73.5 77.5t106 28 q39 0 76.5 -18t60.5 -47v59zM543 189q40 44 40 119q0 74 -39.5 118t-104.5 44t-104.5 -44t-39.5 -118t39 -118.5t103 -44.5q66 0 106 44z"/>
    <glyph glyph-name="uni030C.alt" horiz-adv-x="0" d="M-113 560h-40l33 168h70z"/>
    </font>
</defs>
</svg>
